<?xml version="1.0" standalone="no"?>
<!DOCTYPE svg PUBLIC "-//W3C//DTD SVG 1.1//EN" "http://www.w3.org/Graphics/SVG/1.1/DTD/svg11.dtd" >
<svg xmlns="http://www.w3.org/2000/svg" xmlns:xlink="http://www.w3.org/1999/xlink" version="1.1">
<metadata>
Created by FontForge 20170731 at Mon Sep  4 07:16:45 2017
 By Aleksey,,,
Copyright (c) 2017 by www.fontiran.com (Moslem Ebrahimi). All rights reserved.
</metadata>
<defs>
<font id="IRANSansWebFaNum-Black" horiz-adv-x="0" >
  <font-face 
    font-family="IRANSansWeb(FaNum) Black"
    font-weight="900"
    font-stretch="normal"
    units-per-em="2300"
    panose-1="2 11 5 6 3 8 4 2 2 4"
    ascent="1840"
    descent="-460"
    x-height="1215"
    cap-height="1635"
    bbox="-1201 -1310 3480 2817.43"
    underline-thickness="100"
    underline-position="-950"
    unicode-range="U+001D-FEFF"
  />
<missing-glyph horiz-adv-x="1229" 
d="M102 -362v1806h1024v-1806h-1024zM217 -248h795v1577h-795v-1577z" />
    <glyph glyph-name="allah" unicode="&#xfedf;&#xfee0;&#x651;&#x64e;&#xfeea;" horiz-adv-x="2218" arabic-form="isolated" 
d="M1637 -100q-38 -1 -74.5 6.5t-69.5 21t-62.5 33.5t-51.5 45q-21 -24 -46 -43.5t-59.5 -33.5t-80.5 -21.5t-108 -7.5q-121 0 -203 36t-136 114q-45 -5 -88 -7.5t-85 -2.5q-106 0 -199.5 22t-163 69t-109.5 120t-40 174q0 70 24 133t63.5 118.5t90.5 102t104.5 83.5
t105 64.5t92.5 44.5l-15 122l390 83q22 -196 41.5 -351.5t34.5 -264t24.5 -167.5t11.5 -63q4 -9 7.5 -15.5t9 -10.5t15 -6t27.5 -2q50 1 71.5 23t27 59t0.5 85.5t-8 101.5q-6 113 -12 199t-11.5 161t-10 147.5t-8.5 159.5l400 72l30 -915q0 -44 16 -68.5t58 -24.5
q76 1 104.5 46t26.5 135q0 9 -2 45t-6 91t-8.5 125t-10 147t-11 156t-11 153t-11 138t-9.5 111l388 97q3 -32 7 -106t9.5 -203t13 -320t17.5 -457q0 -8 0.5 -14.5t0.5 -14.5q0 -116 -30.5 -212.5t-92.5 -166t-156 -108t-222 -38.5zM360 441q2 -10 29.5 -20.5t67.5 -17
t85.5 -7t82.5 9.5l-36 242q-41 -16 -83 -45t-75 -60t-53.5 -59t-17.5 -43zM1172 1393q-41 1 -74.5 15t-57.5 37.5t-37.5 56t-13.5 70.5q0 25 5.5 52t13 50t15.5 40.5t13 24.5l102 -54q-11 -22 -21.5 -51t-12 -55.5t11.5 -45t49 -18.5q29 0 45.5 16t24.5 39.5t10 50t2 47.5
l109 47q0 -50 11.5 -84.5t29 -55.5t38 -29t38 -4.5t29.5 17.5t12 38q0 21 -5.5 40.5t-15 40.5t-22.5 45.5t-29 57.5l105 73q7 -10 19 -36t24 -61t20.5 -75t8.5 -77t-15 -72t-40.5 -62.5t-59 -44.5t-70.5 -17q-25 0 -57 9t-61 39q-52 -64 -136 -64h-8zM1227 1778
q7 51 10.5 96t3 88.5t-4 86t-9.5 89.5l131 47q6 -54 9.5 -92.5t4.5 -75t-2.5 -79.5t-11.5 -107z" />
    <glyph glyph-name="riyal" unicode="&#x631;&#xfef3;&#xfe8e;&#x644;" horiz-adv-x="3548" arabic-form="isolated" 
d="M450 277q-20 -37 -37 -77.5t-29 -82.5t-18 -86t-4 -89q3 -62 32.5 -116.5t76 -96t104.5 -65.5t119 -24q42 0 89 8.5t94 26.5t89.5 45.5t75.5 66.5t52.5 89t19.5 113q0 79 -5.5 187.5t-15 239.5t-21 281.5t-23.5 313.5q-4 54 -9 115t-10 124.5t-10.5 127t-10.5 123.5
l399 93l8 -216v1q5 -112 9 -219t8 -215q5 -128 9.5 -264.5t8.5 -265.5t6 -240.5t2 -188.5q0 -140 -34 -249t-91.5 -191.5t-134 -140t-162 -93.5t-174.5 -52t-172 -16q-72 0 -151.5 16.5t-155.5 51.5t-144.5 89.5t-120 129.5t-81 171.5t-27.5 216.5q2 126 20 219.5t40 159.5
q11 32 25.5 65t32.5 68zM2102 296h124q36 0 81.5 4.5t85 16t67 30t27.5 46.5q0 21 -16.5 63.5t-42.5 98t-57 118.5t-61 124l358 177q30 -69 58.5 -144t50.5 -150t35.5 -148t13.5 -137q0 -131 -43 -224.5t-120 -153.5t-184.5 -88.5t-236.5 -28.5h-140v396zM3345 692
q24 -69 48 -146t43.5 -155t31.5 -154.5t12 -146.5q0 -141 -50 -270.5t-139.5 -244t-211.5 -212t-266 -173.5l-243 312q107 57 207 126.5t178.5 145.5t127.5 156t55 158q-17 57 -36.5 115t-40 114t-41.5 109t-40 99zM2093 -100q-136 0 -230.5 36.5t-154 101t-86.5 152
t-27 190.5q0 135 2 271t0 273.5t-10.5 277t-30.5 282.5l375 114q26 -132 36 -273.5t11.5 -285t-2 -284.5t-3.5 -271q0 -45 0.5 -81.5t11 -61t35.5 -36.5t74 -9h27v-396h-28zM2108 -465l-188 -188l-194 193l192 193l190 -190l188 188l194 -193l-192 -193z" />
    <glyph glyph-name="uni06440622.isol" unicode="&#xfedf;&#xfe82;" horiz-adv-x="1379" arabic-form="isolated" 
d="M1331 602q14 -118 -5 -217.5t-63.5 -181t-111.5 -145t-149 -110t-176.5 -75t-194.5 -39.5t-201.5 -5t-197.5 29l68 386q73 -15 151 -26t162 -3l-540 943l306 260l535 -1079q17 16 34.5 36.5t30 47t18.5 61.5t-1 80q-3 22 -5 36.5t-5 31.5t-7 41.5t-11 65t-17.5 101.5
t-26 152.5t-37.5 218t-52 296.5l379 92zM2 1521q15 58 45.5 104.5t70 78.5t86.5 49.5t96 17.5q36 0 68 -9.5t62 -21t59.5 -21t61.5 -9.5q17 0 32.5 3t31.5 12.5t33 26t38 43.5l166 -106q-2 -5 -25.5 -35t-64 -64.5t-94.5 -62.5t-116 -29q-39 -1 -70.5 8.5t-59.5 21t-55 21.5
t-58 10q-34 0 -66 -25t-48 -84z" />
    <glyph glyph-name="uni06440622.fina" unicode="&#xfee0;&#xfe82;" horiz-adv-x="1439" arabic-form="final" 
d="M1305 609q10 -68 21 -125.5t26 -99t36 -65t51 -23.5h20v-396h-60q-99 0 -172.5 32.5t-129.5 96.5q-84 -73 -190 -120.5t-223.5 -70t-239.5 -20t-237 30.5l68 395q73 -15 151 -26t162 -3l-540 943l306 260l535 -1079q17 16 34.5 36.5t30 47t18.5 61.5t-1 80q-3 22 -5 36.5
t-5 31.5t-7 41.5t-11 65t-17.5 101.5t-26 152.5t-37.5 218t-52 296.5l379 92zM-2 1507q15 58 45.5 104.5t70 78.5t86.5 49.5t96 17.5q36 0 68 -9.5t62 -21t59.5 -21t61.5 -9.5q17 0 32.5 3t31.5 12.5t33 26t38 43.5l166 -106q-2 -5 -25.5 -35t-64 -64.5t-94.5 -62.5
t-116 -29q-39 -1 -70.5 8.5t-59.5 21t-55 21.5t-58 10q-34 0 -66 -25t-48 -84z" />
    <glyph glyph-name="uni06440623.isol" unicode="&#xfedf;&#xfe84;" horiz-adv-x="1292" arabic-form="isolated" 
d="M1281 602q14 -118 -5 -217.5t-63.5 -181t-111.5 -145t-149 -110t-176.5 -75t-194.5 -39.5t-201.5 -5t-197.5 29l68 386q73 -15 151 -26t162 -3l-540 943l306 260l535 -1079q17 16 34.5 36.5t30 47t18.5 61.5t-1 80q-3 22 -5 36.5t-5 31.5t-7 41.5t-11 65t-17.5 101.5
t-26 152.5t-37.5 218t-52 296.5l379 92zM426 1909q-26 4 -46.5 8.5t-39 6.5t-36 0.5t-36.5 -8.5q-20 -8 -36 -21t-26.5 -31t-12.5 -39.5t7 -46.5q6 -18 21 -30t33.5 -18t37.5 -7.5t33 1.5t23.5 5.5t26.5 10.5t48 24t89 46l76 -102l-257 -150l-240 -133l-62 113l166 93
q-34 20 -60.5 50t-41.5 65q-17 42 -14.5 85t20.5 82t49 70.5t72 49.5q25 11 51 15.5t53 4.5q13 0 25.5 -1t28 -3.5t36 -7t49.5 -11.5z" />
    <glyph glyph-name="uni06440623.fina" unicode="&#xfee0;&#xfe84;" horiz-adv-x="1399" arabic-form="final" 
d="M1265 609q10 -68 21 -125.5t26 -99t36 -65t51 -23.5h20v-396h-60q-99 0 -172.5 32.5t-129.5 96.5q-84 -73 -190 -120.5t-223.5 -70t-239.5 -20t-237 30.5l68 395q73 -15 151 -26t162 -3l-540 943l306 260l535 -1079q17 16 34.5 36.5t30 47t18.5 61.5t-1 80q-3 22 -5 36.5
t-5 31.5t-7 41.5t-11 65t-17.5 101.5t-26 152.5t-37.5 218t-52 296.5l379 92zM414 1900q-26 4 -46.5 8.5t-39 6.5t-36 0.5t-36.5 -8.5q-20 -8 -36 -21t-26.5 -31t-12.5 -39.5t7 -46.5q6 -18 21 -30t33.5 -18t37.5 -7.5t33 1.5t23.5 5.5t26.5 10.5t48 24t89 46l76 -102
l-257 -150l-240 -133l-62 113l166 93q-34 20 -60.5 50t-41.5 65q-17 42 -14.5 85t20.5 82t49 70.5t72 49.5q25 11 51 15.5t53 4.5q13 0 25.5 -1t28 -3.5t36 -7t49.5 -11.5z" />
    <glyph glyph-name="uni06440625.isol" unicode="&#xfedf;&#xfe88;" horiz-adv-x="1270" arabic-form="isolated" 
d="M1261 602q14 -118 -5 -217.5t-63.5 -181t-111.5 -145t-149 -110t-176.5 -75t-194.5 -39.5t-201.5 -5t-197.5 29l68 386q73 -15 151 -26t162 -3l-540 943l306 260l535 -1079q17 16 34.5 36.5t30 47t18.5 61.5t-1 80q-3 22 -5 36.5t-5 31.5t-7 41.5t-11 65t-17.5 101.5
t-26 152.5t-37.5 218t-52 296.5l379 92zM510 -370q-26 4 -46.5 8.5t-39 6.5t-36 0.5t-36.5 -8.5q-20 -8 -36 -21t-26.5 -31t-12.5 -39.5t7 -46.5q6 -18 21 -30t33.5 -18t37.5 -7.5t33 1.5t23.5 5.5t26.5 10.5t48 24t89 46l76 -102l-257 -150l-240 -133l-62 113l166 93
q-34 20 -60.5 50t-41.5 65q-17 42 -14.5 85t20.5 82t49 70.5t72 49.5q25 11 51 15.5t53 4.5q13 0 25.5 -1t28 -3.5t36 -7t49.5 -11.5z" />
    <glyph glyph-name="uni06440625.fina" unicode="&#xfee0;&#xfe88;" horiz-adv-x="1399" arabic-form="final" 
d="M1265 609q10 -68 21 -125.5t26 -99t36 -65t51 -23.5h20v-396h-60q-99 0 -172.5 32.5t-129.5 96.5q-84 -73 -190 -120.5t-223.5 -70t-239.5 -20t-237 30.5l68 395q73 -15 151 -26t162 -3l-540 943l306 260l535 -1079q17 16 34.5 36.5t30 47t18.5 61.5t-1 80q-3 22 -5 36.5
t-5 31.5t-7 41.5t-11 65t-17.5 101.5t-26 152.5t-37.5 218t-52 296.5l379 92zM525 -380q-26 4 -46.5 8.5t-39 6.5t-36 0.5t-36.5 -8.5q-20 -8 -36 -21t-26.5 -31t-12.5 -39.5t7 -46.5q6 -18 21 -30t33.5 -18t37.5 -7.5t33 1.5t23.5 5.5t26.5 10.5t48 24t89 46l76 -102
l-257 -150l-240 -133l-62 113l166 93q-34 20 -60.5 50t-41.5 65q-17 42 -14.5 85t20.5 82t49 70.5t72 49.5q25 11 51 15.5t53 4.5q13 0 25.5 -1t28 -3.5t36 -7t49.5 -11.5z" />
    <glyph glyph-name="uni06440627.isol" unicode="&#xfedf;&#xfe8e;" horiz-adv-x="1287" arabic-form="isolated" 
d="M1261 602q14 -118 -5 -217.5t-63.5 -181t-111.5 -145t-149 -110t-176.5 -75t-194.5 -39.5t-201.5 -5t-197.5 29l68 386q73 -15 151 -26t162 -3l-540 943l306 260l535 -1079q17 16 34.5 36.5t30 47t18.5 61.5t-1 80q-3 22 -5 36.5t-5 31.5t-7 41.5t-11 65t-17.5 101.5
t-26 152.5t-37.5 218t-52 296.5l379 92z" />
    <glyph glyph-name="uni06440627.fina" unicode="&#xfee0;&#xfe8e;" horiz-adv-x="1399" arabic-form="final" 
d="M1265 609q10 -68 21 -125.5t26 -99t36 -65t51 -23.5h20v-396h-60q-99 0 -172.5 32.5t-129.5 96.5q-84 -73 -190 -120.5t-223.5 -70t-239.5 -20t-237 30.5l68 395q73 -15 151 -26t162 -3l-540 943l306 260l535 -1079q17 16 34.5 36.5t30 47t18.5 61.5t-1 80q-3 22 -5 36.5
t-5 31.5t-7 41.5t-11 65t-17.5 101.5t-26 152.5t-37.5 218t-52 296.5l379 92z" />
    <glyph glyph-name="uni06440671.isol" unicode="&#xfedf;&#xfb51;" horiz-adv-x="1310" 
d="M1281 602q14 -118 -5 -217.5t-63.5 -181t-111.5 -145t-149 -110t-176.5 -75t-194.5 -39.5t-201.5 -5t-197.5 29l68 386q73 -15 151 -26t162 -3l-540 943l306 260l535 -1079q17 16 34.5 36.5t30 47t18.5 61.5t-1 80q-3 22 -5 36.5t-5 31.5t-7 41.5t-11 65t-17.5 101.5
t-26 152.5t-37.5 218t-52 296.5l379 92zM610 1707q-2 19 -13.5 29t-27 13.5t-31.5 3t-26 -1.5q-27 -4 -50 -16t-42.5 -29t-36.5 -37.5t-32 -41.5q20 -6 47.5 -8.5t57 -1t58 7.5t50.5 17t35 27t11 38zM702 1709q-2 -58 -26.5 -95.5t-59.5 -59t-73 -30.5t-67 -11
q-83 -7 -134 5t-84 29t-55.5 32t-48.5 14q-12 0 -25 -5.5t-26.5 -14t-25.5 -18t-22 -18.5l-35 103q30 21 60.5 39t67.5 20q33 2 57 -6.5t47 -24.5q24 40 53.5 76.5t64 64t74.5 43.5t87 16q34 0 65 -12.5t54 -34t37 -50.5t15 -62z" />
    <glyph glyph-name="uni06440671.fina" unicode="&#xfee0;&#xfb51;" horiz-adv-x="1419" 
d="M1285 609q10 -68 21 -125.5t26 -99t36 -65t51 -23.5h20v-396h-60q-99 0 -172.5 32.5t-129.5 96.5q-84 -73 -190 -120.5t-223.5 -70t-239.5 -20t-237 30.5l68 395q73 -15 151 -26t162 -3l-540 943l306 260l535 -1079q17 16 34.5 36.5t30 47t18.5 61.5t-1 80q-3 22 -5 36.5
t-5 31.5t-7 41.5t-11 65t-17.5 101.5t-26 152.5t-37.5 218t-52 296.5l379 92zM609 1690q-2 19 -13.5 29t-27 13.5t-31.5 3t-26 -1.5q-27 -4 -50 -16t-42.5 -29t-36.5 -37.5t-32 -41.5q20 -6 47.5 -8.5t57 -1t58 7.5t50.5 17t35 27t11 38zM701 1692q-2 -58 -26.5 -95.5
t-59.5 -59t-73 -30.5t-67 -11q-83 -7 -134 5t-84 29t-55.5 32t-48.5 14q-12 0 -25 -5.5t-26.5 -14t-25.5 -18t-22 -18.5l-35 103q30 21 60.5 39t67.5 20q33 2 57 -6.5t47 -24.5q24 40 53.5 76.5t64 64t74.5 43.5t87 16q34 0 65 -12.5t54 -34t37 -50.5t15 -62z" />
    <glyph glyph-name="yeye" unicode="&#xfbff;&#xfbff;" horiz-adv-x="1728" 
d="M872 296v-396h-22q-47 0 -95 8t-91 23.5t-77.5 38t-53.5 50.5q-29 -32 -75 -54.5t-103 -37t-123 -21.5t-133 -7h-119v396h119q64 0 111.5 3t80 15t49.5 35t21.5 63t-3.5 99.5t-26 143.5l356 88q9 -38 17.5 -90.5t14.5 -108t7 -108t-5 -88.5q9 -20 26.5 -30.5t36.5 -15
t36.5 -5.5t28.5 -1h22zM418 -473l-188 -188l-194 193l192 193l190 -190l188 188l194 -193l-192 -193zM1745 296v-396h-22q-47 0 -95 8t-91 23.5t-77.5 38t-53.5 50.5q-29 -32 -75 -54.5t-103 -37t-123 -21.5t-133 -7h-119v396h119q64 0 111.5 3t80 15t49.5 35t21.5 63
t-3.5 99.5t-26 143.5l356 88q9 -38 17.5 -90.5t14.5 -108t7 -108t-5 -88.5q9 -20 26.5 -30.5t36.5 -15t36.5 -5.5t28.5 -1h22zM1270 -376l-188 -188l-194 193l192 193l190 -190l188 188l194 -193l-192 -193z" />
    <glyph glyph-name="yeye1" unicode="&#xfbfe;&#xfbff;" horiz-adv-x="1809" 
d="M857 296h202q24 0 55 2t63.5 6.5t64 12t56 18.5t39.5 25t15 33q0 21 -16.5 63.5t-42.5 98t-57 118.5t-61 124l358 177q30 -69 58.5 -144t50.5 -150t35.5 -148t13.5 -137q0 -131 -48 -224.5t-131 -153.5t-195.5 -88.5t-241.5 -28.5h-218v396zM872 296v-396h-22
q-47 0 -95 8t-91 23.5t-77.5 38t-53.5 50.5q-29 -32 -75 -54.5t-103 -37t-123 -21.5t-133 -7h-119v396h119q64 0 111.5 3t80 15t49.5 35t21.5 63t-3.5 99.5t-26 143.5l356 88q9 -38 17.5 -90.5t14.5 -108t7 -108t-5 -88.5q9 -20 26.5 -30.5t36.5 -15t36.5 -5.5t28.5 -1h22z
M434 -567l-188 -188l-194 193l192 193l190 -190l188 188l194 -193l-192 -193zM1258 -428l-188 -188l-194 193l192 193l190 -190l188 188l194 -193l-192 -193z" />
    <glyph glyph-name="uni0621" unicode="&#x621;" horiz-adv-x="1019" arabic-form="isolated" 
d="M731 496q-39 11 -69 18t-67 12q-9 1 -15.5 1h-10.5q-22 0 -45 -5q-39 -8 -71 -25t-51 -42q-13 -18 -13 -38v-7t2 -13q7 -29 23.5 -48.5t40.5 -31t52.5 -16.5t59.5 -5q38 0 78 10.5t79.5 25.5t77.5 33t74 33l68 -246q-29 -14 -55.5 -26.5t-61.5 -28t-84.5 -36t-126 -50.5
t-185.5 -72.5t-262 -100.5l-50 245l167 70q-21 24 -39.5 54.5t-32 64t-21.5 69t-8 69.5q0 73 30 139.5t81 117t118 80.5t141 30q30 0 58 -3.5t59.5 -11t68 -19.5t83.5 -28z" />
    <glyph glyph-name="uni0622" unicode="&#x622;" horiz-adv-x="813" arabic-form="isolated" 
d="M177 -69q4 65 8 138.5t7.5 147t5.5 143t2 128.5q0 284 -11.5 496.5t-29.5 352.5l374 116q16 -125 25.5 -242.5t14.5 -221.5t7 -191.5t2 -151.5q0 -65 -0.5 -144.5t-2 -166t-4.5 -175t-8 -169.5zM-39 1557q15 58 45.5 104.5t70 78.5t86.5 49.5t96 17.5q36 0 68 -9.5
t62 -21t59.5 -21t61.5 -9.5q17 0 32.5 3t31.5 12.5t33 26t38 43.5l166 -106q-2 -5 -25.5 -35t-64 -64.5t-94.5 -62.5t-116 -29q-39 -1 -70.5 8.5t-59.5 21t-55 21.5t-58 10q-34 0 -66 -25t-48 -84z" />
    <glyph glyph-name="uni0623" unicode="&#x623;" horiz-adv-x="599" arabic-form="isolated" 
d="M117 -69q4 65 8 138.5t7.5 147t5.5 143t2 128.5q0 284 -11.5 496.5t-29.5 352.5l374 116q16 -125 25.5 -242.5t14.5 -221.5t7 -191.5t2 -151.5q0 -65 -0.5 -144.5t-2 -166t-4.5 -175t-8 -169.5zM404 1917q-26 4 -46.5 8.5t-39 6.5t-36 0.5t-36.5 -8.5q-20 -8 -36 -21
t-26.5 -31t-12.5 -39.5t7 -46.5q6 -18 21 -30t33.5 -18t37.5 -7.5t33 1.5t23.5 5.5t26.5 10.5t48 24t89 46l76 -102l-257 -150l-240 -133l-62 113l166 93q-34 20 -60.5 50t-41.5 65q-17 42 -14.5 85t20.5 82t49 70.5t72 49.5q25 11 51 15.5t53 4.5q13 0 25.5 -1t28 -3.5
t36 -7t49.5 -11.5z" />
    <glyph glyph-name="uni0624" unicode="&#x624;" horiz-adv-x="1068" arabic-form="isolated" 
d="M18 -418q123 26 228 61t188.5 76t143 87t91.5 94q-15 0 -33 0.5t-35.5 1.5t-33 1.5t-25.5 1.5q-107 9 -194 41t-149 88.5t-96 137.5t-34 187q0 65 16.5 134t46.5 135t71.5 124t91.5 102t106.5 69.5t116.5 25.5q84 0 157 -36t132.5 -97t105.5 -141.5t77.5 -169.5
t47.5 -180.5t16 -175.5q0 -133 -34.5 -247.5t-97 -211t-149.5 -175.5t-192 -140.5t-224 -105.5t-246 -71zM511 571q-29 0 -54 -19t-43.5 -47.5t-29 -61t-10.5 -60.5q0 -19 17.5 -33t46.5 -23.5t66 -15.5t75.5 -9t75 -4t65.5 -1q-5 46 -22.5 95t-45 88.5t-63.5 65t-78 25.5z
M576 1427q-26 4 -46.5 8.5t-39 6.5t-36 0.5t-36.5 -8.5q-20 -8 -36 -21t-26.5 -31t-12.5 -39.5t7 -46.5q6 -18 21 -30t33.5 -18t37.5 -7.5t33 1.5t23.5 5.5t26.5 10.5t48 24t89 46l76 -102l-257 -150l-240 -133l-62 113l166 93q-34 20 -60.5 50t-41.5 65q-17 42 -14.5 85
t20.5 82t49 70.5t72 49.5q25 11 51 15.5t53 4.5q13 0 25.5 -1t28 -3.5t36 -7t49.5 -11.5z" />
    <glyph glyph-name="uni0625" unicode="&#x625;" horiz-adv-x="603" arabic-form="isolated" 
d="M87 -69q4 65 8 138.5t7.5 147t5.5 143t2 128.5q0 284 -11.5 496.5t-29.5 352.5l374 116q16 -125 25.5 -242.5t14.5 -221.5t7 -191.5t2 -151.5q0 -65 -0.5 -144.5t-2 -166t-4.5 -175t-8 -169.5zM418 -249q-26 4 -46.5 8.5t-39 6.5t-36 0.5t-36.5 -8.5q-20 -8 -36 -21
t-26.5 -31t-12.5 -39.5t7 -46.5q6 -18 21 -30t33.5 -18t37.5 -7.5t33 1.5t23.5 5.5t26.5 10.5t48 24t89 46l76 -102l-257 -150l-240 -133l-62 113l166 93q-34 20 -60.5 50t-41.5 65q-17 42 -14.5 85t20.5 82t49 70.5t72 49.5q25 11 51 15.5t53 4.5q13 0 25.5 -1t28 -3.5
t36 -7t49.5 -11.5z" />
    <glyph glyph-name="uni0626" unicode="&#x626;" horiz-adv-x="1776" arabic-form="isolated" 
d="M785 194q0 93 25 184.5t70.5 175t109.5 155t143 123.5t170 82t190 30q36 0 69.5 -3.5t68.5 -12.5t73.5 -25t84.5 -40l-134 -354q-58 27 -117.5 32t-117 -7t-110 -39.5t-96 -66t-76 -86.5t-48.5 -101q36 -17 97 -32.5t131.5 -36.5t143 -50t131 -72.5t95.5 -105t37 -146.5
q0 -113 -39.5 -201.5t-106.5 -155.5t-156 -113.5t-188 -75.5t-202.5 -42t-198.5 -13q-177 0 -326.5 46t-258 135.5t-170 222t-61.5 305.5q0 171 44.5 343.5t113.5 342.5l325 -135q-28 -68 -53.5 -134.5t-45 -133.5t-31.5 -133t-12 -132q0 -93 41 -155t108 -99t152.5 -52.5
t173.5 -15.5q209 0 358.5 36t230.5 118q-94 22 -178 41.5t-155 42t-127.5 51t-96 69.5t-60.5 98t-21 136zM742 1151q-26 4 -46.5 8.5t-39 6.5t-36 0.5t-36.5 -8.5q-20 -8 -36 -21t-26.5 -31t-12.5 -39.5t7 -46.5q6 -18 21 -30t33.5 -18t37.5 -7.5t33 1.5t23.5 5.5t26.5 10.5
t48 24t89 46l76 -102l-257 -150l-240 -133l-62 113l166 93q-34 20 -60.5 50t-41.5 65q-17 42 -14.5 85t20.5 82t49 70.5t72 49.5q25 11 51 15.5t53 4.5q13 0 25.5 -1t28 -3.5t36 -7t49.5 -11.5z" />
    <glyph glyph-name="uni0627" unicode="&#x627;" horiz-adv-x="536" arabic-form="isolated" 
d="M80 -69q4 65 8 138.5t7.5 147t5.5 143t2 128.5q0 183 -8.5 337.5t-20 278t-24 217t-20.5 155.5l385 127q23 -146 36.5 -286.5t21 -265t10 -228.5t2.5 -177q0 -65 -0.5 -144.5t-2 -166t-4.5 -175t-8 -169.5z" />
    <glyph glyph-name="uni0628" unicode="&#x628;" horiz-adv-x="2055" arabic-form="isolated" 
d="M1016 -100q-93 0 -201 7.5t-215.5 30t-208.5 63t-179.5 106t-128.5 159.5t-56 223q0 59 13.5 117t36 115t52 114t61.5 114l297 -252q-17 -27 -35 -59.5t-32.5 -65.5t-23.5 -62.5t-9 -50.5q0 -44 53.5 -75t141.5 -50t201 -27.5t233 -8.5q65 0 150 6t176.5 19.5t182 35
t167.5 51.5q-23 42 -43 80t-42.5 79t-51 88.5t-68.5 108.5l310 202q22 -37 47.5 -83t51 -98t49.5 -107t41.5 -109t27.5 -105t8 -95q-4 -68 -36.5 -124.5t-85.5 -102.5t-122.5 -82t-148 -63t-162 -46t-164 -30.5t-154.5 -17t-133 -5.5zM1010 -608l-222 222l222 222l222 -222z
" />
    <glyph glyph-name="uni0629" unicode="&#x629;" horiz-adv-x="1033" arabic-form="isolated" 
d="M514 -100q-58 0 -117 14t-113 40.5t-101 65t-81.5 88t-54.5 109.5t-20 130q0 72 19.5 135.5t52 120.5t74.5 109t87 100l-58 50l236 310q64 -48 144 -120t178 -176q67 -77 113.5 -146.5t75.5 -134t41.5 -126t12.5 -122.5q0 -110 -41.5 -193.5t-109.5 -140t-156.5 -85
t-181.5 -28.5zM690 330q5 9 -1.5 28t-21 45t-35.5 56.5t-45.5 60.5t-51 57.5t-50.5 48.5q-24 -27 -52.5 -63.5t-52 -74.5t-36.5 -74t-4 -64q8 -26 28.5 -40.5t46 -21.5t52 -9t46.5 -2q24 0 52 3.5t53 10t44.5 16.5t27.5 23zM470 1392l-188 -188l-194 193l192 193l190 -190
l188 188l194 -193l-192 -193z" />
    <glyph glyph-name="uni062A" unicode="&#x62a;" horiz-adv-x="2046" arabic-form="isolated" 
d="M1016 -100q-93 0 -201 7.5t-215.5 30t-208.5 63t-179.5 106t-128.5 159.5t-56 223q0 59 13.5 117t36 115t52 114t61.5 114l297 -252q-17 -27 -35 -59.5t-32.5 -65.5t-23.5 -62.5t-9 -50.5q0 -44 53.5 -75t141.5 -50t201 -27.5t233 -8.5q65 0 150 6t176.5 19.5t182 35
t167.5 51.5q-23 42 -43 80t-42.5 79t-51 88.5t-68.5 108.5l310 202q22 -37 47.5 -83t51 -98t49.5 -107t41.5 -109t27.5 -105t8 -95q-4 -68 -36.5 -124.5t-85.5 -102.5t-122.5 -82t-148 -63t-162 -46t-164 -30.5t-154.5 -17t-133 -5.5zM1031 1006l-188 -188l-194 193l192 193
l190 -190l188 188l194 -193l-192 -193z" />
    <glyph glyph-name="uni062B" unicode="&#x62b;" horiz-adv-x="2055" arabic-form="isolated" 
d="M1016 -100q-93 0 -201 7.5t-215.5 30t-208.5 63t-179.5 106t-128.5 159.5t-56 223q0 59 13.5 117t36 115t52 114t61.5 114l297 -252q-17 -27 -35 -59.5t-32.5 -65.5t-23.5 -62.5t-9 -50.5q0 -44 53.5 -75t141.5 -50t201 -27.5t233 -8.5q65 0 150 6t176.5 19.5t182 35
t167.5 51.5q-23 42 -43 80t-42.5 79t-51 88.5t-68.5 108.5l310 202q22 -37 47.5 -83t51 -98t49.5 -107t41.5 -109t27.5 -105t8 -95q-4 -68 -36.5 -124.5t-85.5 -102.5t-122.5 -82t-148 -63t-162 -46t-164 -30.5t-154.5 -17t-133 -5.5zM1032 993l-188 -188l-194 193l192 193
l190 -190l188 188l194 -193l-192 -193zM1211 1285l-178 -178l-179 179l178 178z" />
    <glyph glyph-name="uni062C" unicode="&#x62c;" horiz-adv-x="1647" arabic-form="isolated" 
d="M1542 -624q-93 -83 -208.5 -139.5t-240.5 -85.5t-254 -30.5t-249 27t-225.5 86t-184 146t-124 208.5t-45.5 273q0 103 39.5 200t110.5 182.5t169 156t214.5 121t247 78t267.5 26.5q-56 29 -115 57.5t-117 50.5t-112.5 35t-101.5 11q-44 -2 -89 -15.5t-86.5 -36.5
t-78.5 -54t-65 -68l-258 191q57 82 119 147t132 110t150 69t173 24q86 0 171 -26t167 -66.5t161 -89.5t153.5 -94t144 -80.5t132.5 -49.5l-109 -405q-124 6 -252.5 -9t-249 -46.5t-226.5 -77.5t-185 -102t-125 -120.5t-46 -132.5q0 -76 31 -133.5t84.5 -98.5t125 -65
t152 -32.5t166.5 -2t168 27.5t156 55t131 81zM898 -310l-222 222l222 222l222 -222z" />
    <glyph glyph-name="uni062D" unicode="&#x62d;" horiz-adv-x="1647" arabic-form="isolated" 
d="M1542 -624q-93 -83 -208.5 -139.5t-240.5 -85.5t-254 -30.5t-249 27t-225.5 86t-184 146t-124 208.5t-45.5 273q0 103 39.5 200t110.5 182.5t169 156t214.5 121t247 78t267.5 26.5q-56 29 -115 57.5t-117 50.5t-112.5 35t-101.5 11q-44 -2 -89 -15.5t-86.5 -36.5
t-78.5 -54t-65 -68l-258 191q57 82 119 147t132 110t150 69t173 24q86 0 171 -26t167 -66.5t161 -89.5t153.5 -94t144 -80.5t132.5 -49.5l-109 -405q-124 6 -252.5 -9t-249 -46.5t-226.5 -77.5t-185 -102t-125 -120.5t-46 -132.5q0 -76 31 -133.5t84.5 -98.5t125 -65
t152 -32.5t166.5 -2t168 27.5t156 55t131 81z" />
    <glyph glyph-name="uni062E" unicode="&#x62e;" horiz-adv-x="1644" arabic-form="isolated" 
d="M1542 -624q-93 -83 -208.5 -139.5t-240.5 -85.5t-254 -30.5t-249 27t-225.5 86t-184 146t-124 208.5t-45.5 273q0 103 39.5 200t110.5 182.5t169 156t214.5 121t247 78t267.5 26.5q-56 29 -115 57.5t-117 50.5t-112.5 35t-101.5 11q-44 -2 -89 -15.5t-86.5 -36.5
t-78.5 -54t-65 -68l-258 191q57 82 119 147t132 110t150 69t173 24q86 0 171 -26t167 -66.5t161 -89.5t153.5 -94t144 -80.5t132.5 -49.5l-109 -405q-124 6 -252.5 -9t-249 -46.5t-226.5 -77.5t-185 -102t-125 -120.5t-46 -132.5q0 -76 31 -133.5t84.5 -98.5t125 -65
t152 -32.5t166.5 -2t168 27.5t156 55t131 81zM622 1232l-222 222l222 222l222 -222z" />
    <glyph glyph-name="uni062F" unicode="&#x62f;" horiz-adv-x="1163" arabic-form="isolated" 
d="M202 447q109 -66 215 -106t190 -48q38 -3 73 -2t64 7t49.5 16.5t28.5 27.5q14 28 -6 70t-62.5 91.5t-100.5 103t-120.5 105.5t-123 99t-106.5 83l223 331q77 -58 151.5 -121t142 -130.5t125 -140t99.5 -150t65.5 -160.5t23.5 -171q0 -102 -35.5 -187t-101 -146.5
t-159.5 -95.5t-211 -34h-16q-4 0 -8 0.5t-8 0.5q-72 0 -144 13t-141.5 37t-137.5 57t-133 73z" />
    <glyph glyph-name="uni0630" unicode="&#x630;" horiz-adv-x="1158" arabic-form="isolated" 
d="M202 447q109 -66 215 -106t190 -48q38 -3 73 -2t64 7t49.5 16.5t28.5 27.5q14 28 -6 70t-62.5 91.5t-100.5 103t-120.5 105.5t-123 99t-106.5 83l223 331q77 -58 151.5 -121t142 -130.5t125 -140t99.5 -150t65.5 -160.5t23.5 -171q0 -102 -35.5 -187t-101 -146.5
t-159.5 -95.5t-211 -34h-16q-4 0 -8 0.5t-8 0.5q-72 0 -144 13t-141.5 37t-137.5 57t-133 73zM462 1292l-222 222l222 222l222 -222z" />
    <glyph glyph-name="uni0631" unicode="&#x631;" horiz-adv-x="765" arabic-form="isolated" 
d="M598 692q24 -69 48 -146t43.5 -155t31.5 -154.5t12 -146.5q0 -141 -50 -270.5t-139.5 -244t-211.5 -212t-266 -173.5l-243 312q107 57 207 126.5t178.5 145.5t127.5 156t55 158q-17 57 -36.5 115t-40 114t-41.5 109t-40 99z" />
    <glyph glyph-name="uni0632" unicode="&#x632;" horiz-adv-x="761" arabic-form="isolated" 
d="M598 692q24 -69 48 -146t43.5 -155t31.5 -154.5t12 -146.5q0 -141 -50 -270.5t-139.5 -244t-211.5 -212t-266 -173.5l-243 312q107 57 207 126.5t178.5 145.5t127.5 156t55 158q-17 57 -36.5 115t-40 114t-41.5 109t-40 99zM395 869l-222 222l222 222l222 -222z" />
    <glyph glyph-name="uni0633" unicode="&#x633;" horiz-adv-x="2742" arabic-form="isolated" 
d="M2528 1015q11 -21 28.5 -58t38 -85t41.5 -104t38 -115.5t27.5 -120.5t10.5 -117q-1 -107 -32 -200.5t-90.5 -162.5t-147.5 -109t-204 -40q-45 0 -81.5 10t-66.5 26.5t-55 38t-46 45.5q-27 -46 -70.5 -74.5t-95.5 -41.5t-108.5 -11t-107.5 16q-9 -115 -47.5 -209.5
t-100.5 -169t-142.5 -129.5t-173 -91t-193 -54t-200.5 -18q-162 0 -295.5 53.5t-229.5 150.5t-148.5 232.5t-52.5 299.5q3 87 25 181.5t56.5 187.5t77.5 180t89 160l281 -213q-36 -61 -68.5 -126.5t-57.5 -131t-39.5 -128.5t-14.5 -119q-3 -68 24 -127.5t77 -104
t119.5 -70.5t152.5 -26q254 0 374.5 99.5t120.5 285.5q0 52 -14 108.5t-40 121.5t-63 142t-83 170l344 193q29 -66 55.5 -130.5t52 -121.5t50 -104.5t49 -80.5t49.5 -49.5t52 -11.5q38 7 60 30.5t33 57.5t13.5 75.5t1 86t-4.5 88.5t-3 83l315 40l2 -21q2 -21 6 -54.5
t10.5 -77t15.5 -88t21 -87t27.5 -75t34 -51.5t41.5 -16q53 6 78.5 35t30.5 73.5t-7.5 102t-36 121t-54.5 130t-62 129.5z" />
    <glyph glyph-name="uni0634" unicode="&#x634;" horiz-adv-x="2742" arabic-form="isolated" 
d="M2538 1015q11 -21 28.5 -58t38 -85t41.5 -104t38 -115.5t27.5 -120.5t10.5 -117q-1 -107 -32 -200.5t-90.5 -162.5t-147.5 -109t-204 -40q-45 0 -81.5 10t-66.5 26.5t-55 38t-46 45.5q-27 -46 -70.5 -74.5t-95.5 -41.5t-108.5 -11t-107.5 16q-9 -115 -47.5 -209.5
t-100.5 -169t-142.5 -129.5t-173 -91t-193 -54t-200.5 -18q-162 0 -295.5 53.5t-229.5 150.5t-148.5 232.5t-52.5 299.5q3 87 25 181.5t56.5 187.5t77.5 180t89 160l281 -213q-36 -61 -68.5 -126.5t-57.5 -131t-39.5 -128.5t-14.5 -119q-3 -68 24 -127.5t77 -104
t119.5 -70.5t152.5 -26q254 0 374.5 99.5t120.5 285.5q0 52 -14 108.5t-40 121.5t-63 142t-83 170l344 193q29 -66 55.5 -130.5t52 -121.5t50 -104.5t49 -80.5t49.5 -49.5t52 -11.5q38 7 60 30.5t33 57.5t13.5 75.5t1 86t-4.5 88.5t-3 83l315 40l2 -21q2 -21 6 -54.5
t10.5 -77t15.5 -88t21 -87t27.5 -75t34 -51.5t41.5 -16q53 6 78.5 35t30.5 73.5t-7.5 102t-36 121t-54.5 130t-62 129.5zM1940 1201l-188 -188l-194 193l192 193l190 -190l188 188l194 -193l-192 -193zM2119 1493l-178 -178l-179 179l178 178z" />
    <glyph glyph-name="uni0635" unicode="&#x635;" horiz-adv-x="2916" arabic-form="isolated" 
d="M816 -749q-106 0 -206.5 19t-189.5 57t-163 95t-127.5 134t-83.5 173.5t-30 212.5q0 103 25.5 210.5t62.5 207t77 184.5t70 143l294 -210q-13 -23 -31.5 -59.5t-37.5 -80.5t-38 -94t-34 -102t-24 -103.5t-9 -97.5q0 -80 39 -135.5t101.5 -90t140 -49.5t154.5 -15
q89 0 171.5 26.5t145.5 77t101 124.5t38 169q0 68 -16 135.5t-40.5 133.5t-55 132t-60.5 131l347 189q41 -104 75 -181t54 -130q58 84 138 168t180.5 151.5t220.5 110t258 42.5q101 0 196.5 -31.5t169.5 -90t118.5 -143t44.5 -189.5q0 -103 -33.5 -188.5t-92 -153.5
t-137.5 -118t-169.5 -83t-188.5 -49.5t-194 -16.5q-120 0 -234.5 20.5t-226.5 66.5q-13 -154 -77 -283t-169 -222t-246 -145t-308 -52zM2381 544q-144 0 -289 -70.5t-281 -216.5q65 -14 141.5 -21t154.5 -4.5t154.5 15.5t142 39t115.5 67.5t77 100.5q-30 42 -89 66t-126 24z
" />
    <glyph glyph-name="uni0636" unicode="&#x636;" horiz-adv-x="2912" arabic-form="isolated" 
d="M816 -749q-106 0 -206.5 19t-189.5 57t-163 95t-127.5 134t-83.5 173.5t-30 212.5q0 103 25.5 210.5t62.5 207t77 184.5t70 143l294 -210q-13 -23 -31.5 -59.5t-37.5 -80.5t-38 -94t-34 -102t-24 -103.5t-9 -97.5q0 -80 39 -135.5t101.5 -90t140 -49.5t154.5 -15
q89 0 171.5 26.5t145.5 77t101 124.5t38 169q0 68 -16 135.5t-40.5 133.5t-55 132t-60.5 131l347 189q41 -104 75 -181t54 -130q58 84 138 168t180.5 151.5t220.5 110t258 42.5q101 0 196.5 -31.5t169.5 -90t118.5 -143t44.5 -189.5q0 -103 -33.5 -188.5t-92 -153.5
t-137.5 -118t-169.5 -83t-188.5 -49.5t-194 -16.5q-120 0 -234.5 20.5t-226.5 66.5q-13 -154 -77 -283t-169 -222t-246 -145t-308 -52zM2381 544q-144 0 -289 -70.5t-281 -216.5q65 -14 141.5 -21t154.5 -4.5t154.5 15.5t142 39t115.5 67.5t77 100.5q-30 42 -89 66t-126 24z
M2290 1070l-222 222l222 222l222 -222z" />
    <glyph glyph-name="uni0637" unicode="&#x637;" horiz-adv-x="1816" arabic-form="isolated" 
d="M866 -100q-115 0 -224 7.5t-215 27t-209.5 53.5t-208.5 87l142 366q42 -16 75.5 -28t61.5 -21.5t52.5 -17t48.5 -14.5q5 7 9.5 12.5t11.5 14t18.5 22.5t29.5 38q14 70 21 156t8 179t-3.5 190t-13 189t-20.5 176t-25 152l398 106q15 -88 27.5 -187t18.5 -200t3.5 -198.5
t-16.5 -182.5q41 33 88 62.5t100.5 52.5t113.5 36.5t128 15.5q86 2 170.5 -18t153 -65.5t115.5 -117t58 -171.5q1 -137 -39.5 -244t-110 -187t-162 -135.5t-195 -90t-208.5 -50t-202 -15.5zM1483 560q-45 47 -108.5 62.5t-135 6t-146.5 -41t-145 -79.5t-129.5 -110
t-98.5 -132q86 -7 175 -2t173.5 21t159 42.5t130.5 61.5t89.5 78t35.5 93z" />
    <glyph glyph-name="uni0638" unicode="&#x638;" horiz-adv-x="1807" arabic-form="isolated" 
d="M866 -100q-115 0 -224 7.5t-215 27t-209.5 53.5t-208.5 87l142 366q42 -16 75.5 -28t61.5 -21.5t52.5 -17t48.5 -14.5q5 7 9.5 12.5t11.5 14t18.5 22.5t29.5 38q14 70 21 156t8 179t-3.5 190t-13 189t-20.5 176t-25 152l398 106q15 -88 27.5 -187t18.5 -200t3.5 -198.5
t-16.5 -182.5q41 33 88 62.5t100.5 52.5t113.5 36.5t128 15.5q86 2 170.5 -18t153 -65.5t115.5 -117t58 -171.5q1 -137 -39.5 -244t-110 -187t-162 -135.5t-195 -90t-208.5 -50t-202 -15.5zM1483 560q-45 47 -108.5 62.5t-135 6t-146.5 -41t-145 -79.5t-129.5 -110
t-98.5 -132q86 -7 175 -2t173.5 21t159 42.5t130.5 61.5t89.5 78t35.5 93zM1320 1212l-222 222l222 222l222 -222z" />
    <glyph glyph-name="uni0639" unicode="&#x639;" horiz-adv-x="1532" arabic-form="isolated" 
d="M828 -815q-105 0 -207 22t-193.5 65t-169 106t-134 144.5t-88 181.5t-31.5 216q0 119 35.5 224.5t99 194t153 159t197.5 121.5q-29 23 -54 57t-43 75.5t-28.5 88.5t-10.5 95q1 67 22.5 131.5t59 122.5t88 107.5t110 86t125 59t132.5 25.5q8 0 17 0.5t17 0.5
q63 0 119.5 -11t110 -32.5t106 -52.5t107.5 -71l-161 -307q-36 16 -66.5 31.5t-61 26.5t-63.5 18t-75 7q-35 0 -78 -10.5t-81 -31.5t-63.5 -51.5t-25.5 -69.5q0 -24 20.5 -44.5t54 -36t77 -24.5t90.5 -9h6t17 1t38.5 2.5t71 4.5t113.5 7t167 11l-31 -393
q-104 -8 -187.5 -16.5t-158 -22t-146 -36t-151.5 -59.5q-22 -10 -53.5 -28t-67 -42.5t-71 -56.5t-63.5 -71t-45.5 -84t-17.5 -97q0 -81 42.5 -142.5t110.5 -102.5t153 -61.5t170 -20.5q53 0 112.5 8.5t123.5 27.5t129.5 49t130.5 72l199 -313q-86 -68 -179 -115.5
t-184.5 -78t-177.5 -44.5t-158 -14z" />
    <glyph glyph-name="uni063A" unicode="&#x63a;" horiz-adv-x="1534" arabic-form="isolated" 
d="M828 -815q-105 0 -207 22t-193.5 65t-169 106t-134 144.5t-88 181.5t-31.5 216q0 119 35.5 224.5t99 194t153 159t197.5 121.5q-29 23 -54 57t-43 75.5t-28.5 88.5t-10.5 95q1 67 22.5 131.5t59 122.5t88 107.5t110 86t125 59t132.5 25.5q8 0 17 0.5t17 0.5
q63 0 119.5 -11t110 -32.5t106 -52.5t107.5 -71l-161 -307q-36 16 -66.5 31.5t-61 26.5t-63.5 18t-75 7q-35 0 -78 -10.5t-81 -31.5t-63.5 -51.5t-25.5 -69.5q0 -24 20.5 -44.5t54 -36t77 -24.5t90.5 -9h6t17 1t38.5 2.5t71 4.5t113.5 7t167 11l-31 -393
q-104 -8 -187.5 -16.5t-158 -22t-146 -36t-151.5 -59.5q-22 -10 -53.5 -28t-67 -42.5t-71 -56.5t-63.5 -71t-45.5 -84t-17.5 -97q0 -81 42.5 -142.5t110.5 -102.5t153 -61.5t170 -20.5q53 0 112.5 8.5t123.5 27.5t129.5 49t130.5 72l199 -313q-86 -68 -179 -115.5
t-184.5 -78t-177.5 -44.5t-158 -14zM912 1561l-222 222l222 222l222 -222z" />
    <glyph glyph-name="uni0641" unicode="&#x641;" horiz-adv-x="1985" arabic-form="isolated" 
d="M1472 871q-32 3 -57 -11.5t-42.5 -38t-26.5 -51.5t-9 -52q0 -11 17 -22.5t44.5 -21.5t62 -18.5t68.5 -13t65 -4.5t51 6q-9 35 -26.5 74t-40.5 72t-50.5 56t-55.5 25zM1008 -100q-93 0 -201 7.5t-215.5 30t-208.5 63t-179.5 106t-128.5 159.5t-56 223q0 59 13.5 117
t36 115t52 114t61.5 114l297 -252q-17 -27 -35 -59.5t-32.5 -65.5t-23.5 -62.5t-9 -50.5q0 -44 53.5 -75t141.5 -50.5t201 -28.5t233 -9h59.5t98.5 1t119.5 2.5t122.5 4t108 7t77 10.5q-113 3 -209.5 20.5t-166.5 58.5t-109.5 108.5t-39.5 169.5q0 59 12 121t36 120.5
t59 110.5t80 91t100.5 62t120.5 23q78 0 144.5 -30.5t121 -83t96.5 -121.5t70.5 -146.5t43.5 -159t15 -157.5q0 -141 -37 -240.5t-103.5 -167t-157.5 -107.5t-198 -60.5t-225 -26.5t-238 -6zM1496 1287l-222 222l222 222l222 -222z" />
    <glyph glyph-name="uni0642" unicode="&#x642;" horiz-adv-x="1663" arabic-form="isolated" 
d="M1098 570q-29 0 -54 -19t-43.5 -47.5t-29 -61t-10.5 -60.5q0 -19 17.5 -33t46.5 -23.5t66 -15.5t75.5 -9t75 -4t65.5 -1q-5 46 -22.5 95t-45 88.5t-63.5 65t-78 25.5zM827 -360q72 0 137.5 20.5t121.5 55.5t100.5 82.5t73.5 101.5q-154 4 -265.5 29t-185 77.5
t-110.5 136.5t-41 206q0 58 12 125t36.5 133t60.5 127t84 107.5t107.5 74t130.5 27.5q96 0 174 -36.5t138.5 -98.5t104 -143t72 -170t42 -180t13.5 -173q0 -130 -27.5 -247t-79 -217t-124 -180.5t-162.5 -137.5t-195.5 -87.5t-221.5 -30.5q-107 0 -207.5 24.5t-189 70.5
t-162.5 112t-127 150t-82.5 184t-29.5 213q0 73 7.5 142.5t24 139.5t43.5 143.5t66 154.5l323 -136q-39 -75 -62 -137t-35 -116t-15.5 -100.5t-3.5 -89.5q0 -80 38.5 -146t102 -113.5t145.5 -73t168 -24.5zM1099 1236l-188 -188l-194 193l192 193l190 -190l188 188l194 -193
l-192 -193z" />
    <glyph glyph-name="uni0643" unicode="&#x643;" horiz-adv-x="2024" arabic-form="isolated" 
d="M1147 893q-24 4 -47.5 7t-49.5 3t-53 -9.5t-48 -25.5t-31 -38t-1 -47q7 -16 23.5 -30t39 -23t49 -10.5t52.5 7.5q45 15 86.5 40.5t89.5 59.5l62 -146q-18 -11 -35 -22t-40.5 -25.5t-57 -34t-83.5 -48t-120 -67t-166 -90.5l-51 145l129 76q-29 21 -51.5 49t-36.5 60
q-20 41 -17.5 87.5t22 89t53.5 77.5t77 53q60 25 122 20.5t128 -20.5zM1980 666q0 -137 -19 -248t-64 -197.5t-118.5 -149t-182 -103t-255 -60t-337.5 -19.5q-188 0 -342 24.5t-269 66.5q-80 30 -150 77.5t-122.5 110.5t-83 141t-30.5 171q0 99 36 198.5t93 201.5l297 -224
q-32 -54 -52 -98t-20 -82q0 -59 52 -95.5t140 -57t204.5 -28t246.5 -7.5h51q66 0 131.5 1.5t125 8.5t111 21.5t89.5 39.5t59.5 63t21.5 93q0 56 -1 987l390 89z" />
    <glyph glyph-name="uni0644" unicode="&#x644;" horiz-adv-x="1502" arabic-form="isolated" 
d="M450 277q-20 -37 -37 -77.5t-29 -82.5t-18 -86t-4 -89q3 -62 32.5 -116.5t76 -96t104.5 -65.5t119 -24q42 0 89 8.5t94 26.5t89.5 45.5t75.5 66.5t52.5 89t19.5 113q0 79 -5.5 187.5t-15 239.5t-21 281.5t-23.5 313.5q-4 54 -9 115t-10 124.5t-10.5 127t-10.5 123.5
l399 93l8 -216v1q5 -112 9 -219t8 -215q5 -128 9.5 -264.5t8.5 -265.5t6 -240.5t2 -188.5q0 -140 -34 -249t-91.5 -191.5t-134 -140t-162 -93.5t-174.5 -52t-172 -16q-72 0 -151.5 16.5t-155.5 51.5t-144.5 89.5t-120 129.5t-81 171.5t-27.5 216.5q2 126 20 219.5t40 159.5
q11 32 25.5 65t32.5 68z" />
    <glyph glyph-name="uni0645" unicode="&#x645;" horiz-adv-x="1260" arabic-form="isolated" 
d="M50 -802l-40 995q0 72 28.5 130.5t75 100t105 63.5t118.5 19q32 76 76.5 149t102 131t127.5 93.5t152 35.5q96 0 174.5 -41.5t135 -111.5t88.5 -160.5t35 -187.5q3 -81 -14.5 -167t-53.5 -157.5t-90.5 -117t-126.5 -45.5q-65 0 -142 17.5t-153.5 44.5t-146 59t-119.5 61
q6 -94 14 -199.5t16 -202.5q4 -53 8.5 -110t8.5 -115t7.5 -114.5t6.5 -108.5zM788 554q-27 4 -52 -9t-46 -35t-37.5 -48.5t-26.5 -49.5q27 -14 67.5 -31t84.5 -34t85 -31t70 -20q3 31 -2 72.5t-21.5 80.5t-46 68.5t-75.5 36.5z" />
    <glyph glyph-name="uni0646" unicode="&#x646;" horiz-adv-x="1653" arabic-form="isolated" 
d="M830 -789q-181 0 -329.5 46.5t-254.5 139t-164 230.5t-58 321q0 165 54.5 334t161.5 343l290 -208q-23 -37 -50 -92.5t-50 -120.5t-38.5 -133.5t-15.5 -130.5q0 -71 36 -129t94.5 -101t133 -68.5t151.5 -30.5q94 0 181 28.5t154.5 77t109.5 113.5t47 139q-3 61 -23.5 130
t-48 138t-59 135.5t-56.5 122.5l331 184q14 -29 35 -77t44 -108t46 -128t41.5 -137t30 -135t11.5 -122q0 -94 -21 -187t-64.5 -177.5t-109.5 -157t-155.5 -126t-203 -83.5t-251.5 -30zM820 455l-222 222l222 222l222 -222z" />
    <glyph glyph-name="uni0647" unicode="&#x647;" horiz-adv-x="1023" arabic-form="isolated" 
d="M514 -100q-58 0 -117 14t-113 40.5t-101 65t-81.5 88t-54.5 109.5t-20 130q0 72 19.5 135.5t52 120.5t74.5 109t87 100l-58 50l236 310q64 -48 144 -120t178 -176q67 -77 113.5 -146.5t75.5 -134t41.5 -126t12.5 -122.5q0 -110 -41.5 -193.5t-109.5 -140t-156.5 -85
t-181.5 -28.5zM690 330q5 9 -1.5 28t-21 45t-35.5 56.5t-45.5 60.5t-51 57.5t-50.5 48.5q-24 -27 -52.5 -63.5t-52 -74.5t-36.5 -74t-4 -64q8 -26 28.5 -40.5t46 -21.5t52 -9t46.5 -2q24 0 52 3.5t53 10t44.5 16.5t27.5 23z" />
    <glyph glyph-name="uni0648" unicode="&#x648;" horiz-adv-x="1088" arabic-form="isolated" 
d="M18 -418q123 26 228 61t188.5 76t143 87t91.5 94q-15 0 -33 0.5t-35.5 1.5t-33 1.5t-25.5 1.5q-107 9 -194 41t-149 88.5t-96 137.5t-34 187q0 65 16.5 134t46.5 135t71.5 124t91.5 102t106.5 69.5t116.5 25.5q84 0 157 -36t132.5 -97t105.5 -141.5t77.5 -169.5
t47.5 -180.5t16 -175.5q0 -133 -34.5 -247.5t-97 -211t-149.5 -175.5t-192 -140.5t-224 -105.5t-246 -71zM511 571q-29 0 -54 -19t-43.5 -47.5t-29 -61t-10.5 -60.5q0 -19 17.5 -33t46.5 -23.5t66 -15.5t75.5 -9t75 -4t65.5 -1q-5 46 -22.5 95t-45 88.5t-63.5 65t-78 25.5z
" />
    <glyph glyph-name="uni0649" unicode="&#x649;" horiz-adv-x="1809" arabic-form="isolated" 
d="M785 194q0 93 25 184.5t70.5 175t109.5 155t143 123.5t170 82t190 30q36 0 69.5 -3.5t68.5 -12.5t73.5 -25t84.5 -40l-134 -354q-58 27 -117.5 32t-117 -7t-110 -39.5t-96 -66t-76 -86.5t-48.5 -101q36 -17 97 -32.5t131.5 -36.5t143 -50t131 -72.5t95.5 -105t37 -146.5
q0 -113 -39.5 -201.5t-106.5 -155.5t-156 -113.5t-188 -75.5t-202.5 -42t-198.5 -13q-177 0 -326.5 46t-258 135.5t-170 222t-61.5 305.5q0 171 44.5 343.5t113.5 342.5l325 -135q-28 -68 -53.5 -134.5t-45 -133.5t-31.5 -133t-12 -132q0 -93 41 -155t108 -99t152.5 -52.5
t173.5 -15.5q209 0 358.5 36t230.5 118q-94 22 -178 41.5t-155 42t-127.5 51t-96 69.5t-60.5 98t-21 136z" />
    <glyph glyph-name="uni064A" unicode="&#x64a;" horiz-adv-x="1809" arabic-form="isolated" 
d="M785 194q0 93 25 184.5t70.5 175t109.5 155t143 123.5t170 82t190 30q36 0 69.5 -3.5t68.5 -12.5t73.5 -25t84.5 -40l-134 -354q-58 27 -117.5 32t-117 -7t-110 -39.5t-96 -66t-76 -86.5t-48.5 -101q36 -17 97 -32.5t131.5 -36.5t143 -50t131 -72.5t95.5 -105t37 -146.5
q0 -113 -39.5 -201.5t-106.5 -155.5t-156 -113.5t-188 -75.5t-202.5 -42t-198.5 -13q-177 0 -326.5 46t-258 135.5t-170 222t-61.5 305.5q0 171 44.5 343.5t113.5 342.5l325 -135q-28 -68 -53.5 -134.5t-45 -133.5t-31.5 -133t-12 -132q0 -93 41 -155t108 -99t152.5 -52.5
t173.5 -15.5q209 0 358.5 36t230.5 118q-94 22 -178 41.5t-155 42t-127.5 51t-96 69.5t-60.5 98t-21 136zM813 -1008l-188 -188l-194 193l192 193l190 -190l188 188l194 -193l-192 -193z" />
    <glyph glyph-name="uni066E.init" unicode="&#x66e;" horiz-adv-x="715" 
d="M-20 296h124q36 0 81.5 4.5t85 16t67 30t27.5 46.5q0 21 -16.5 63.5t-42.5 98t-57 118.5t-61 124l358 177q30 -69 58.5 -144t50.5 -150t35.5 -148t13.5 -137q0 -131 -43 -224.5t-120 -153.5t-184.5 -88.5t-236.5 -28.5h-140v396z" />
    <glyph glyph-name="uni066E.medi" unicode="&#x66e;" horiz-adv-x="705" 
d="M725 296v-396h-22q-94 0 -169 31.5t-114 88.5q-57 -63 -162.5 -91.5t-240.5 -28.5h-38v396h38q64 0 109.5 3t74 15t42 35t14.5 63t-9.5 99.5t-28.5 143.5l356 88q9 -38 17.5 -90.5t14.5 -108t7 -108t-5 -88.5q9 -20 21 -30.5t25 -15t25 -5.5t23 -1h22z" />
    <glyph glyph-name="uni066E.fina" unicode="&#x66e;" horiz-adv-x="2316" 
d="M2300 -100q-160 0 -275 52.5t-193 161.5q-71 -60 -157 -101t-186.5 -67t-215.5 -37.5t-245 -11.5q-176 0 -326.5 20.5t-269.5 62.5t-205 105.5t-134 149.5q-45 81 -60 160.5t-5.5 162t40.5 170.5t78 185l307 -178q-17 -35 -32 -77.5t-23.5 -84.5t-8 -78.5t14.5 -60.5
q26 -49 86 -76.5t143 -41t184.5 -17t210.5 -3.5q102 0 193.5 5.5t169 19.5t140 37.5t105.5 59.5q34 28 57.5 66t40.5 83t29 95t24 101l357 -90l-43 -243q-5 -29 7 -53.5t38.5 -42.5t66 -28t87.5 -10h36v-396h-36z" />
    <glyph glyph-name="uni066F.init" unicode="&#x66f;" horiz-adv-x="932" 
d="M15 296h55.5t88 1t106 2.5t109.5 4t98 7t73 10.5q-113 3 -209.5 20.5t-166.5 58.5t-109.5 108.5t-39.5 169.5q0 59 12 121t36 120.5t59 110.5t80 91t100.5 62t120.5 23q78 0 144.5 -30.5t121 -83t96.5 -121.5t70.5 -146.5t43.5 -159t15 -157.5q0 -141 -33 -240.5
t-93.5 -167t-144 -107.5t-184 -60.5t-214.5 -26.5t-234 -6h-36v396h35zM424 871q-32 3 -57 -11.5t-42.5 -38t-26.5 -51.5t-9 -52q0 -11 17 -22.5t44.5 -21.5t62 -18.5t68.5 -13t65 -4.5t51 6q-9 35 -26.5 74t-40.5 72t-50.5 56t-55.5 25z" />
    <glyph glyph-name="uni066F.medi" unicode="&#x66f;" horiz-adv-x="1001" 
d="M-20 296h33l85 7q-26 38 -42 92t-19 115q-2 64 13.5 129t46.5 124.5t74.5 110.5t97.5 88t115.5 57.5t128.5 18.5q63 -3 121 -24.5t108 -56.5t90.5 -83t69 -103t44 -116.5t15.5 -124.5q0 -60 -16.5 -117t-42.5 -111q18 -2 44 -4t55 -2h20v-396h-39q-65 0 -125 3
t-117.5 12.5t-113 26.5t-110.5 45q-38 -25 -95 -41.5t-124 -26.5t-138.5 -14.5t-139.5 -4.5h-39v396zM644 500q0 35 -15 64.5t-37 52.5t-45.5 38.5t-40.5 21.5q-19 -6 -45.5 -21.5t-50.5 -39t-41 -53.5t-17 -63q0 -27 14.5 -53t37.5 -48.5t50 -40.5t53 -28q24 10 48.5 26.5
t44 38t32 48t12.5 57.5z" />
    <glyph glyph-name="uni066F.fina" unicode="&#x66f;" horiz-adv-x="1664" 
d="M817 -360q72 0 137.5 20.5t121.5 55.5t100.5 82.5t73.5 101.5q-154 4 -265.5 29t-185 77.5t-110.5 136.5t-41 206q0 58 12 125t36.5 133t60.5 127t84 107.5t107.5 74t130.5 27.5q82 0 150.5 -27t124 -73.5t99 -109t75.5 -134.5t52.5 -149.5t31.5 -153.5h72v-396h-88
q-33 -147 -105 -268t-174 -207.5t-230 -134.5t-274 -48q-107 0 -207.5 24.5t-189 70.5t-162.5 112t-127 150t-82.5 184t-29.5 213q0 73 7.5 142.5t24 139.5t43.5 143.5t66 154.5l323 -136q-39 -75 -62 -137t-35 -116t-15.5 -100.5t-3.5 -89.5q0 -80 38.5 -146t102 -113.5
t145.5 -73t168 -24.5zM1088 570q-29 0 -54 -19t-43.5 -47.5t-29 -61t-10.5 -60.5q0 -19 17.5 -33t46.5 -23.5t66 -15.5t75.5 -9t75 -4t65.5 -1q-5 46 -22.5 95t-45 88.5t-63.5 65t-78 25.5z" />
    <glyph glyph-name="uni0671" unicode="&#x671;" horiz-adv-x="599" arabic-form="isolated" 
d="M97 -69q4 65 8 138.5t7.5 147t5.5 143t2 128.5q0 284 -11.5 496.5t-29.5 352.5l374 116q16 -125 25.5 -242.5t14.5 -221.5t7 -191.5t2 -151.5q0 -65 -0.5 -144.5t-2 -166t-4.5 -175t-8 -169.5zM506 1770q-2 19 -13.5 29t-27 13.5t-31.5 3t-26 -1.5q-27 -4 -50 -16
t-42.5 -29t-36.5 -37.5t-32 -41.5q20 -6 47.5 -8.5t57 -1t58 7.5t50.5 17t35 27t11 38zM598 1772q-2 -58 -26.5 -95.5t-59.5 -59t-73 -30.5t-67 -11q-83 -7 -134 5t-84 29t-55.5 32t-48.5 14q-12 0 -25 -5.5t-26.5 -14t-25.5 -18t-22 -18.5l-35 103q30 21 60.5 39t67.5 20
q33 2 57 -6.5t47 -24.5q24 40 53.5 76.5t64 64t74.5 43.5t87 16q34 0 65 -12.5t54 -34t37 -50.5t15 -62z" />
    <glyph glyph-name="uni0679" unicode="&#x679;" horiz-adv-x="2013" arabic-form="isolated" 
d="M996 -100q-93 0 -201 7.5t-215.5 30t-208.5 63t-179.5 106t-128.5 159.5t-56 223q0 59 13.5 117t36 115t52 114t61.5 114l297 -252q-17 -27 -35 -59.5t-32.5 -65.5t-23.5 -62.5t-9 -50.5q0 -44 53.5 -75t141.5 -50t201 -27.5t233 -8.5q65 0 150 6t176.5 19.5t182 35
t167.5 51.5q-23 42 -43 80t-42.5 79t-51 88.5t-68.5 108.5l310 202q22 -37 47.5 -83t51 -98t49.5 -107t41.5 -109t27.5 -105t8 -95q-4 -68 -36.5 -124.5t-85.5 -102.5t-122.5 -82t-148 -63t-162 -46t-164 -30.5t-154.5 -17t-133 -5.5zM1001 813q-87 0 -169.5 15.5
t-178.5 53.5l43 107q35 -14 62 -23t51 -15q12 15 25 33.5t32 54.5q4 16 4.5 43t-1.5 58.5t-4.5 65t-4.5 62.5q-2 22 -4.5 45t-5.5 49t-6.5 56.5t-8.5 68.5l116 32q8 -93 19 -184t12 -188q91 79 180 94q33 5 70 -3t68.5 -27.5t53.5 -49.5t25 -69q4 -53 -14 -94t-49.5 -72
t-73 -52.5t-84.5 -35t-84.5 -19.5t-72.5 -6zM918 930q11 -1 20.5 -1h17.5h29q26 0 62 3t74 11.5t74.5 23.5t63.5 39q14 14 22.5 31.5t8.5 31.5q0 28 -29.5 45.5t-80.5 12.5q-29 -3 -63.5 -20.5t-69.5 -44.5t-68.5 -61.5t-60.5 -70.5z" />
    <glyph glyph-name="uni067E" unicode="&#x67e;" horiz-adv-x="2046" arabic-form="isolated" 
d="M1016 -100q-93 0 -201 7.5t-215.5 30t-208.5 63t-179.5 106t-128.5 159.5t-56 223q0 59 13.5 117t36 115t52 114t61.5 114l297 -252q-17 -27 -35 -59.5t-32.5 -65.5t-23.5 -62.5t-9 -50.5q0 -44 53.5 -75t141.5 -50t201 -27.5t233 -8.5q65 0 150 6t176.5 19.5t182 35
t167.5 51.5q-23 42 -43 80t-42.5 79t-51 88.5t-68.5 108.5l310 202q22 -37 47.5 -83t51 -98t49.5 -107t41.5 -109t27.5 -105t8 -95q-4 -68 -36.5 -124.5t-85.5 -102.5t-122.5 -82t-148 -63t-162 -46t-164 -30.5t-154.5 -17t-133 -5.5zM1016 -389l188 188l194 -193l-192 -193
l-190 190l-188 -188l-194 193l192 193zM837 -681l178 178l179 -179l-178 -178z" />
    <glyph glyph-name="uni0686" unicode="&#x686;" horiz-adv-x="1647" arabic-form="isolated" 
d="M1547 -624q-93 -83 -208.5 -139.5t-240.5 -85.5t-254 -30.5t-249 27t-225.5 86t-184 146t-124 208.5t-45.5 273q0 103 39.5 200t110.5 182.5t169 156t214.5 121t247 78t267.5 26.5q-56 29 -115 57.5t-117 50.5t-112.5 35t-101.5 11q-44 -2 -89 -15.5t-86.5 -36.5
t-78.5 -54t-65 -68l-258 191q57 82 119 147t132 110t150 69t173 24q86 0 171 -26t167 -66.5t161 -89.5t153.5 -94t144 -80.5t132.5 -49.5l-109 -405q-124 6 -252.5 -9t-249 -46.5t-226.5 -77.5t-185 -102t-125 -120.5t-46 -132.5q0 -76 31 -133.5t84.5 -98.5t125 -65
t152 -32.5t166.5 -2t168 27.5t156 55t131 81zM901 -10.6904l175.699 175.769l181.307 -180.443l-179.438 -180.442l-177.568 177.638l-175.699 -175.768l-181.307 180.442l179.438 180.442zM733.712 -283.691l166.354 166.418l167.288 -167.354l-166.354 -166.418z" />
    <glyph glyph-name="uni0688" unicode="&#x688;" horiz-adv-x="1163" arabic-form="isolated" 
d="M202 447q109 -66 215 -106t190 -48q38 -3 73 -2t64 7t49.5 16.5t28.5 27.5q14 28 -6 70t-62.5 91.5t-100.5 103t-120.5 105.5t-123 99t-106.5 83l223 331q77 -58 151.5 -121t142 -130.5t125 -140t99.5 -150t65.5 -160.5t23.5 -171q0 -102 -35.5 -187t-101 -146.5
t-159.5 -95.5t-211 -34h-16q-4 0 -8 0.5t-8 0.5q-72 0 -144 13t-141.5 37t-137.5 57t-133 73zM506 1292q-87 0 -169.5 15.5t-178.5 53.5l43 107q35 -14 62 -23t51 -15q12 15 25 33.5t32 54.5q4 16 4.5 43t-1.5 58.5t-4.5 65t-4.5 62.5q-2 22 -4.5 45t-5.5 49t-6.5 56.5
t-8.5 68.5l116 32q8 -93 19 -184t12 -188q91 79 180 94q33 5 70 -3t68.5 -27.5t53.5 -49.5t25 -69q4 -53 -14 -94t-49.5 -72t-73 -52.5t-84.5 -35t-84.5 -19.5t-72.5 -6zM423 1409q11 -1 20.5 -1h17.5h29q26 0 62 3t74 11.5t74.5 23.5t63.5 39q14 14 22.5 31.5t8.5 31.5
q0 28 -29.5 45.5t-80.5 12.5q-29 -3 -63.5 -20.5t-69.5 -44.5t-68.5 -61.5t-60.5 -70.5z" />
    <glyph glyph-name="uni0691" unicode="&#x691;" horiz-adv-x="775" arabic-form="isolated" 
d="M598 692q24 -69 48 -146t43.5 -155t31.5 -154.5t12 -146.5q0 -141 -50 -270.5t-139.5 -244t-211.5 -212t-266 -173.5l-243 312q107 57 207 126.5t178.5 145.5t127.5 156t55 158q-17 57 -36.5 115t-40 114t-41.5 109t-40 99zM398 827q-87 0 -169.5 15.5t-178.5 53.5
l43 107q35 -14 62 -23t51 -15q12 15 25 33.5t32 54.5q4 16 4.5 43t-1.5 58.5t-4.5 65t-4.5 62.5q-2 22 -4.5 45t-5.5 49t-6.5 56.5t-8.5 68.5l116 32q8 -93 19 -184t12 -188q91 79 180 94q33 5 70 -3t68.5 -27.5t53.5 -49.5t25 -69q4 -53 -14 -94t-49.5 -72t-73 -52.5
t-84.5 -35t-84.5 -19.5t-72.5 -6zM315 944q11 -1 20.5 -1h17.5h29q26 0 62 3t74 11.5t74.5 23.5t63.5 39q14 14 22.5 31.5t8.5 31.5q0 28 -29.5 45.5t-80.5 12.5q-29 -3 -63.5 -20.5t-69.5 -44.5t-68.5 -61.5t-60.5 -70.5z" />
    <glyph glyph-name="uni0698" unicode="&#x698;" horiz-adv-x="760" arabic-form="isolated" 
d="M598 692q24 -69 48 -146t43.5 -155t31.5 -154.5t12 -146.5q0 -141 -50 -270.5t-139.5 -244t-211.5 -212t-266 -173.5l-243 312q107 57 207 126.5t178.5 145.5t127.5 156t55 158q-17 57 -36.5 115t-40 114t-41.5 109t-40 99zM393 1013l-188 -188l-194 193l192 193
l190 -190l188 188l194 -193l-192 -193zM572 1305l-178 -178l-179 179l178 178z" />
    <glyph glyph-name="uni06A9" unicode="&#x6a9;" horiz-adv-x="2138" arabic-form="isolated" 
d="M1169 296q47 0 98 0.5t99.5 5t92.5 13t77 25t52.5 41.5t19.5 62q0 38 -18.5 79.5t-51.5 86.5t-77.5 92t-96.5 96t-108.5 99.5t-113.5 102.5l36 322l841 371l154 -341l-601 -279q71 -58 139.5 -132t122 -158t86.5 -173.5t33 -179.5q0 -125 -49.5 -223t-155.5 -166
t-271.5 -104t-396.5 -36q-176 0 -332.5 20t-283.5 61t-219 104.5t-140 149.5q-45 81 -60 160.5t-5.5 162t40.5 170.5t78 185l307 -178q-17 -35 -32 -77.5t-23.5 -84.5t-8 -78.5t14.5 -60.5q26 -49 92 -76.5t157 -41t198.5 -17t216.5 -3.5h89z" />
    <glyph glyph-name="uni06AF" unicode="&#x6af;" horiz-adv-x="2138" arabic-form="isolated" 
d="M1169 296q47 0 98 0.5t99.5 5t92.5 13t77 25t52.5 41.5t19.5 62q0 38 -18.5 79.5t-51.5 86.5t-77.5 92t-96.5 96t-108.5 99.5t-113.5 102.5l36 322l841 371l154 -341l-601 -279q71 -58 139.5 -132t122 -158t86.5 -173.5t33 -179.5q0 -125 -49.5 -223t-155.5 -166
t-271.5 -104t-396.5 -36q-176 0 -332.5 20t-283.5 61t-219 104.5t-140 149.5q-45 81 -60 160.5t-5.5 162t40.5 170.5t78 185l307 -178q-17 -35 -32 -77.5t-23.5 -84.5t-8 -78.5t14.5 -60.5q26 -49 92 -76.5t157 -41t198.5 -17t216.5 -3.5h89zM1165 1586l765 319l55 -119
l-828 -350z" />
    <glyph glyph-name="uni06BA" unicode="&#x6ba;" horiz-adv-x="1664" arabic-form="isolated" 
d="M830 -789q-181 0 -329.5 46.5t-254.5 139t-164 230.5t-58 321q0 165 54.5 334t161.5 343l290 -208q-23 -37 -50 -92.5t-50 -120.5t-38.5 -133.5t-15.5 -130.5q0 -71 36 -129t94.5 -101t133 -68.5t151.5 -30.5q94 0 181 28.5t154.5 77t109.5 113.5t47 139q-3 61 -23.5 130
t-48 138t-59 135.5t-56.5 122.5l331 184q14 -29 35 -77t44 -108t46 -128t41.5 -137t30 -135t11.5 -122q0 -94 -21 -187t-64.5 -177.5t-109.5 -157t-155.5 -126t-203 -83.5t-251.5 -30z" />
    <glyph glyph-name="uni06BE" unicode="&#x6be;" horiz-adv-x="1615" arabic-form="isolated" 
d="M112 296l79 2q-31 61 -41 122t-4.5 119t23 110t40.5 94.5t49 73t49 45.5l-54 34l209 358q152 -80 302.5 -148.5t289.5 -132.5q71 -33 132.5 -62.5t114 -61t96.5 -66.5t82 -79q37 -48 64 -106t39.5 -120t8.5 -125.5t-29 -121.5q-58 -135 -157.5 -211.5t-227.5 -103.5
t-277.5 -9t-307.5 71q-41 -24 -100 -39t-130.5 -23.5t-153 -12t-166.5 -3.5zM630 709q-26 -1 -58 -21.5t-59.5 -51t-45 -66.5t-14.5 -67q1 -29 16.5 -57t37.5 -51.5t47 -40.5t47 -24q30 4 62.5 16.5t60 36.5t45 60.5t17.5 88.5q0 25 -18 56.5t-43 58.5t-51.5 45t-43.5 17z
M1289 367q3 21 -6.5 41.5t-27.5 39.5t-42 36t-48 31t-46 24.5t-37 16.5q-5 -34 -14.5 -76t-23.5 -84.5t-33.5 -81.5t-43.5 -66q50 -6 103.5 -4.5t99.5 14.5t78.5 39t40.5 70z" />
    <glyph glyph-name="uni06C0" unicode="&#x6c0;" horiz-adv-x="1018" arabic-form="isolated" 
d="M514 -100q-58 0 -117 14t-113 40.5t-101 65t-81.5 88t-54.5 109.5t-20 130q0 72 19.5 135.5t52 120.5t74.5 109t87 100l-58 50l236 310q64 -48 144 -120t178 -176q67 -77 113.5 -146.5t75.5 -134t41.5 -126t12.5 -122.5q0 -110 -41.5 -193.5t-109.5 -140t-156.5 -85
t-181.5 -28.5zM690 330q5 9 -1.5 28t-21 45t-35.5 56.5t-45.5 60.5t-51 57.5t-50.5 48.5q-24 -27 -52.5 -63.5t-52 -74.5t-36.5 -74t-4 -64q8 -26 28.5 -40.5t46 -21.5t52 -9t46.5 -2q24 0 52 3.5t53 10t44.5 16.5t27.5 23zM540 1621q-26 4 -46.5 8.5t-39 6.5t-36 0.5
t-36.5 -8.5q-20 -8 -36 -21t-26.5 -31t-12.5 -39.5t7 -46.5q6 -18 21 -30t33.5 -18t37.5 -7.5t33 1.5t23.5 5.5t26.5 10.5t48 24t89 46l76 -102l-257 -150l-240 -133l-62 113l166 93q-34 20 -60.5 50t-41.5 65q-17 42 -14.5 85t20.5 82t49 70.5t72 49.5q25 11 51 15.5
t53 4.5q13 0 25.5 -1t28 -3.5t36 -7t49.5 -11.5z" />
    <glyph glyph-name="uni06C1" unicode="&#x6c1;" horiz-adv-x="1039" arabic-form="isolated" 
d="M514 -100q-58 0 -117 14t-113 40.5t-101 65t-81.5 88t-54.5 109.5t-20 130q0 72 19.5 135.5t52 120.5t74.5 109t87 100l-58 50l236 310q64 -48 144 -120t178 -176q67 -77 113.5 -146.5t75.5 -134t41.5 -126t12.5 -122.5q0 -110 -41.5 -193.5t-109.5 -140t-156.5 -85
t-181.5 -28.5zM690 330q5 9 -1.5 28t-21 45t-35.5 56.5t-45.5 60.5t-51 57.5t-50.5 48.5q-24 -27 -52.5 -63.5t-52 -74.5t-36.5 -74t-4 -64q8 -26 28.5 -40.5t46 -21.5t52 -9t46.5 -2q24 0 52 3.5t53 10t44.5 16.5t27.5 23z" />
    <glyph glyph-name="uni06C2.fina" unicode="&#x6c2;" horiz-adv-x="1347" 
d="M1368 296v-396h-41q-83 0 -152 28.5t-127.5 73.5t-107.5 99.5t-92 107.5q-28 34 -56 66.5t-56.5 58t-56 41t-53.5 15.5q-48 0 -81.5 -25t-60 -72.5t-49 -116t-47.5 -154.5l-372 96q38 147 87 267t119.5 205.5t168.5 132.5t235 47q89 0 162 -26.5t134.5 -70t113.5 -98
t99 -109.5q67 -81 110 -125.5t79 -44.5h44zM504 1211q-26 4 -46.5 8.5t-39 6.5t-36 0.5t-36.5 -8.5q-20 -8 -36 -21t-26.5 -31t-12.5 -39.5t7 -46.5q6 -18 21 -30t33.5 -18t37.5 -7.5t33 1.5t23.5 5.5t26.5 10.5t48 24t89 46l76 -102l-257 -150l-240 -133l-62 113l166 93
q-34 20 -60.5 50t-41.5 65q-17 42 -14.5 85t20.5 82t49 70.5t72 49.5q25 11 51 15.5t53 4.5q13 0 25.5 -1t28 -3.5t36 -7t49.5 -11.5z" />
    <glyph glyph-name="uni06C3.fina" unicode="&#x6c3;" horiz-adv-x="1347" 
d="M1368 296v-396h-41q-83 0 -152 28.5t-127.5 73.5t-107.5 99.5t-92 107.5q-28 34 -56 66.5t-56.5 58t-56 41t-53.5 15.5q-48 0 -81.5 -25t-60 -72.5t-49 -116t-47.5 -154.5l-372 96q38 147 87 267t119.5 205.5t168.5 132.5t235 47q89 0 162 -26.5t134.5 -70t113.5 -98
t99 -109.5q67 -81 110 -125.5t79 -44.5h44zM593 991l-188 -188l-194 193l192 193l190 -190l188 188l194 -193l-192 -193z" />
    <glyph glyph-name="uni06CC" unicode="&#x6cc;" horiz-adv-x="1809" arabic-form="isolated" 
d="M785 194q0 93 25 184.5t70.5 175t109.5 155t143 123.5t170 82t190 30q36 0 69.5 -3.5t68.5 -12.5t73.5 -25t84.5 -40l-134 -354q-58 27 -117.5 32t-117 -7t-110 -39.5t-96 -66t-76 -86.5t-48.5 -101q36 -17 97 -32.5t131.5 -36.5t143 -50t131 -72.5t95.5 -105t37 -146.5
q0 -113 -39.5 -201.5t-106.5 -155.5t-156 -113.5t-188 -75.5t-202.5 -42t-198.5 -13q-177 0 -326.5 46t-258 135.5t-170 222t-61.5 305.5q0 171 44.5 343.5t113.5 342.5l325 -135q-28 -68 -53.5 -134.5t-45 -133.5t-31.5 -133t-12 -132q0 -93 41 -155t108 -99t152.5 -52.5
t173.5 -15.5q209 0 358.5 36t230.5 118q-94 22 -178 41.5t-155 42t-127.5 51t-96 69.5t-60.5 98t-21 136z" />
    <glyph glyph-name="uni06D2" unicode="&#x6d2;" horiz-adv-x="1298" arabic-form="isolated" 
d="M845 296v-396h-386q-34 0 -57.5 -5t-37.5 -13t-20.5 -17t-6.5 -18l1 -8q1 -8 8 -17.5t23.5 -17t47.5 -7.5h951v-374h-932q-111 0 -191 39.5t-132 101.5t-76.5 137.5t-24.5 147.5q0 53 14.5 106.5t42.5 103.5t68.5 93t93 75t115.5 50.5t137 18.5h362z" />
    <glyph glyph-name="uni06D3" unicode="&#x6d3;" horiz-adv-x="1298" arabic-form="isolated" 
d="M845 296v-396h-386q-34 0 -57.5 -5t-37.5 -13t-20.5 -17t-6.5 -18l1 -8q1 -8 8 -17.5t23.5 -17t47.5 -7.5h951v-374h-932q-111 0 -191 39.5t-132 101.5t-76.5 137.5t-24.5 147.5q0 53 14.5 106.5t42.5 103.5t68.5 93t93 75t115.5 50.5t137 18.5h362zM488 729
q-26 4 -46.5 8.5t-39 6.5t-36 0.5t-36.5 -8.5q-20 -8 -36 -21t-26.5 -31t-12.5 -39.5t7 -46.5q6 -18 21 -30t33.5 -18t37.5 -7.5t33 1.5t23.5 5.5t26.5 10.5t48 24t89 46l76 -102l-257 -150l-240 -133l-62 113l166 93q-34 20 -60.5 50t-41.5 65q-17 42 -14.5 85t20.5 82
t49 70.5t72 49.5q25 11 51 15.5t53 4.5q13 0 25.5 -1t28 -3.5t36 -7t49.5 -11.5z" />
    <glyph glyph-name="uni0671.fina" unicode="&#x671;" horiz-adv-x="640" arabic-form="final" 
d="M631 -100q-136 0 -230.5 36.5t-154 101t-86.5 152t-27 190.5q0 120 2 240.5t2 242t-5 244.5t-19 249l378 109q16 -120 21 -245.5t5 -250.5t-3 -248t-3 -237q0 -45 0.5 -80t11 -59t35.5 -36.5t74 -12.5h27v-396h-28zM572 1770q-2 19 -13.5 29t-27 13.5t-31.5 3t-26 -1.5
q-27 -4 -50 -16t-42.5 -29t-36.5 -37.5t-32 -41.5q20 -6 47.5 -8.5t57 -1t58 7.5t50.5 17t35 27t11 38zM664 1772q-2 -58 -26.5 -95.5t-59.5 -59t-73 -30.5t-67 -11q-83 -7 -134 5t-84 29t-55.5 32t-48.5 14q-12 0 -25 -5.5t-26.5 -14t-25.5 -18t-22 -18.5l-35 103
q30 21 60.5 39t67.5 20q33 2 57 -6.5t47 -24.5q24 40 53.5 76.5t64 64t74.5 43.5t87 16q34 0 65 -12.5t54 -34t37 -50.5t15 -62z" />
    <glyph glyph-name="uni067E.fina" unicode="&#x67e;" horiz-adv-x="2316" arabic-form="final" 
d="M2300 -100q-160 0 -275 52.5t-193 161.5q-71 -60 -157 -101t-186.5 -67t-215.5 -37.5t-245 -11.5q-176 0 -326.5 20.5t-269.5 62.5t-205 105.5t-134 149.5q-45 81 -60 160.5t-5.5 162t40.5 170.5t78 185l307 -178q-17 -35 -32 -77.5t-23.5 -84.5t-8 -78.5t14.5 -60.5
q26 -49 86 -76.5t143 -41t184.5 -17t210.5 -3.5q102 0 193.5 5.5t169 19.5t140 37.5t105.5 59.5q34 28 57.5 66t40.5 83t29 95t24 101l357 -90l-43 -243q-5 -29 7 -53.5t38.5 -42.5t66 -28t87.5 -10h36v-396h-36zM1005 -389l188 188l194 -193l-192 -193l-190 190l-188 -188
l-194 193l192 193zM826 -681l178 178l179 -179l-178 -178z" />
    <glyph glyph-name="uni067E.init" unicode="&#x67e;" horiz-adv-x="843" arabic-form="initial" 
d="M-20 296h202q24 0 55 2t63.5 6.5t64 12t56 18.5t39.5 25t15 33q0 21 -16.5 63.5t-42.5 98t-57 118.5t-61 124l358 177q30 -69 58.5 -144t50.5 -150t35.5 -148t13.5 -137q0 -131 -48 -224.5t-131 -153.5t-195.5 -88.5t-241.5 -28.5h-218v396zM383 -389l188 188l194 -193
l-192 -193l-190 190l-188 -188l-194 193l192 193zM204 -681l178 178l179 -179l-178 -178z" />
    <glyph glyph-name="uni067E.medi" unicode="&#x67e;" horiz-adv-x="852" arabic-form="medial" 
d="M872 296v-396h-22q-47 0 -95 8t-91 23.5t-77.5 38t-53.5 50.5q-29 -32 -75 -54.5t-103 -37t-123 -21.5t-133 -7h-119v396h119q64 0 111.5 3t80 15t49.5 35t21.5 63t-3.5 99.5t-26 143.5l356 88q9 -38 17.5 -90.5t14.5 -108t7 -108t-5 -88.5q9 -20 26.5 -30.5t36.5 -15
t36.5 -5.5t28.5 -1h22zM383 -389l188 188l194 -193l-192 -193l-190 190l-188 -188l-194 193l192 193zM204 -681l178 178l179 -179l-178 -178z" />
    <glyph glyph-name="uni0679.fina" unicode="&#x679;" horiz-adv-x="2316" arabic-form="final" 
d="M2300 -100q-160 0 -275 52.5t-193 161.5q-71 -60 -157 -101t-186.5 -67t-215.5 -37.5t-245 -11.5q-176 0 -326.5 20.5t-269.5 62.5t-205 105.5t-134 149.5q-45 81 -60 160.5t-5.5 162t40.5 170.5t78 185l307 -178q-17 -35 -32 -77.5t-23.5 -84.5t-8 -78.5t14.5 -60.5
q26 -49 86 -76.5t143 -41t184.5 -17t210.5 -3.5q102 0 193.5 5.5t169 19.5t140 37.5t105.5 59.5q34 28 57.5 66t40.5 83t29 95t24 101l357 -90l-43 -243q-5 -29 7 -53.5t38.5 -42.5t66 -28t87.5 -10h36v-396h-36zM1108 813q-87 0 -169.5 15.5t-178.5 53.5l43 107
q35 -14 62 -23t51 -15q12 15 25 33.5t32 54.5q4 16 4.5 43t-1.5 58.5t-4.5 65t-4.5 62.5q-2 22 -4.5 45t-5.5 49t-6.5 56.5t-8.5 68.5l116 32q8 -93 19 -184t12 -188q91 79 180 94q33 5 70 -3t68.5 -27.5t53.5 -49.5t25 -69q4 -53 -14 -94t-49.5 -72t-73 -52.5t-84.5 -35
t-84.5 -19.5t-72.5 -6zM1025 930q11 -1 20.5 -1h17.5h29q26 0 62 3t74 11.5t74.5 23.5t63.5 39q14 14 22.5 31.5t8.5 31.5q0 28 -29.5 45.5t-80.5 12.5q-29 -3 -63.5 -20.5t-69.5 -44.5t-68.5 -61.5t-60.5 -70.5z" />
    <glyph glyph-name="uni0679.init" unicode="&#x679;" horiz-adv-x="843" arabic-form="initial" 
d="M-20 296h202q24 0 55 2t63.5 6.5t64 12t56 18.5t39.5 25t15 33q0 21 -16.5 63.5t-42.5 98t-57 118.5t-61 124l358 177q30 -69 58.5 -144t50.5 -150t35.5 -148t13.5 -137q0 -131 -48 -224.5t-131 -153.5t-195.5 -88.5t-241.5 -28.5h-218v396zM403 1105q-87 0 -169.5 15.5
t-178.5 53.5l43 107q35 -14 62 -23t51 -15q12 15 25 33.5t32 54.5q4 16 4.5 43t-1.5 58.5t-4.5 65t-4.5 62.5q-2 22 -4.5 45t-5.5 49t-6.5 56.5t-8.5 68.5l116 32q8 -93 19 -184t12 -188q91 79 180 94q33 5 70 -3t68.5 -27.5t53.5 -49.5t25 -69q4 -53 -14 -94t-49.5 -72
t-73 -52.5t-84.5 -35t-84.5 -19.5t-72.5 -6zM320 1222q11 -1 20.5 -1h17.5h29q26 0 62 3t74 11.5t74.5 23.5t63.5 39q14 14 22.5 31.5t8.5 31.5q0 28 -29.5 45.5t-80.5 12.5q-29 -3 -63.5 -20.5t-69.5 -44.5t-68.5 -61.5t-60.5 -70.5z" />
    <glyph glyph-name="uni0679.medi" unicode="&#x679;" horiz-adv-x="852" arabic-form="medial" 
d="M872 296v-396h-22q-47 0 -95 8t-91 23.5t-77.5 38t-53.5 50.5q-29 -32 -75 -54.5t-103 -37t-123 -21.5t-133 -7h-119v396h119q64 0 111.5 3t80 15t49.5 35t21.5 63t-3.5 99.5t-26 143.5l356 88q9 -38 17.5 -90.5t14.5 -108t7 -108t-5 -88.5q9 -20 26.5 -30.5t36.5 -15
t36.5 -5.5t28.5 -1h22zM403 948q-87 0 -169.5 15.5t-178.5 53.5l43 107q35 -14 62 -23t51 -15q12 15 25 33.5t32 54.5q4 16 4.5 43t-1.5 58.5t-4.5 65t-4.5 62.5q-2 22 -4.5 45t-5.5 49t-6.5 56.5t-8.5 68.5l116 32q8 -93 19 -184t12 -188q91 79 180 94q33 5 70 -3
t68.5 -27.5t53.5 -49.5t25 -69q4 -53 -14 -94t-49.5 -72t-73 -52.5t-84.5 -35t-84.5 -19.5t-72.5 -6zM320 1065q11 -1 20.5 -1h17.5h29q26 0 62 3t74 11.5t74.5 23.5t63.5 39q14 14 22.5 31.5t8.5 31.5q0 28 -29.5 45.5t-80.5 12.5q-29 -3 -63.5 -20.5t-69.5 -44.5
t-68.5 -61.5t-60.5 -70.5z" />
    <glyph glyph-name="veh.isol" unicode="&#x6a4;" horiz-adv-x="1985" arabic-form="isolated" 
d="M1462 871q-32 3 -57 -11.5t-42.5 -38t-26.5 -51.5t-9 -52q0 -11 17 -22.5t44.5 -21.5t62 -18.5t68.5 -13t65 -4.5t51 6q-9 35 -26.5 74t-40.5 72t-50.5 56t-55.5 25zM998 -100q-93 0 -201 7.5t-215.5 30t-208.5 63t-179.5 106t-128.5 159.5t-56 223q0 59 13.5 117t36 115
t52 114t61.5 114l297 -252q-17 -27 -35 -59.5t-32.5 -65.5t-23.5 -62.5t-9 -50.5q0 -44 53.5 -75t141.5 -50.5t201 -28.5t233 -9h59.5t98.5 1t119.5 2.5t122.5 4t108 7t77 10.5q-113 3 -209.5 20.5t-166.5 58.5t-109.5 108.5t-39.5 169.5q0 59 12 121t36 120.5t59 110.5
t80 91t100.5 62t120.5 23q78 0 144.5 -30.5t121 -83t96.5 -121.5t70.5 -146.5t43.5 -159t15 -157.5q0 -141 -37 -240.5t-103.5 -167t-157.5 -107.5t-198 -60.5t-225 -26.5t-238 -6zM1485 1478l-188 -188l-194 193l192 193l190 -190l188 188l194 -193l-192 -193zM1664 1770
l-178 -178l-179 179l178 178z" />
    <glyph glyph-name="veh.fina" unicode="&#x6a4;" horiz-adv-x="2106" arabic-form="final" 
d="M1028 -100q-176 0 -326.5 20t-269.5 61t-205 104.5t-134 149.5q-45 81 -60 160.5t-5.5 162t40.5 170.5t78 185l307 -178q-17 -35 -32 -77.5t-23.5 -84.5t-8 -78.5t14.5 -60.5q26 -49 87.5 -78t160 -43.5t236 -15.5t315.5 6q-26 38 -42 92t-19 115q-2 64 13.5 129
t46.5 124.5t74.5 110.5t97.5 88t115.5 57.5t128.5 18.5q63 -3 121 -24.5t108 -56.5t90.5 -83t69 -103t44 -116.5t15.5 -124.5q0 -60 -16.5 -117t-42.5 -111q18 -2 44 -4t55 -2h20v-396h-39q-65 0 -125 3t-117.5 12.5t-113 26.5t-110.5 45q-38 -25 -96.5 -41.5t-134.5 -26.5
t-167 -14.5t-195 -4.5zM1749 500q0 35 -15 64.5t-37 52.5t-45.5 38.5t-40.5 21.5q-19 -6 -45.5 -21.5t-50.5 -39t-41 -53.5t-17 -63q0 -27 14.5 -53t37.5 -48.5t50 -40.5t53 -28q24 10 48.5 26.5t44 38t32 48t12.5 57.5zM1620 1295l-188 -188l-194 193l192 193l190 -190
l188 188l194 -193l-192 -193zM1799 1587l-178 -178l-179 179l178 178z" />
    <glyph glyph-name="veh.init" unicode="&#x6a4;" horiz-adv-x="943" arabic-form="initial" 
d="M15 296h55.5t88 1t106 2.5t109.5 4t98 7t73 10.5q-113 3 -209.5 20.5t-166.5 58.5t-109.5 108.5t-39.5 169.5q0 59 12 121t36 120.5t59 110.5t80 91t100.5 62t120.5 23q78 0 144.5 -30.5t121 -83t96.5 -121.5t70.5 -146.5t43.5 -159t15 -157.5q0 -141 -33 -240.5
t-93.5 -167t-144 -107.5t-184 -60.5t-214.5 -26.5t-234 -6h-36v396h35zM424 871q-32 3 -57 -11.5t-42.5 -38t-26.5 -51.5t-9 -52q0 -11 17 -22.5t44.5 -21.5t62 -18.5t68.5 -13t65 -4.5t51 6q-9 35 -26.5 74t-40.5 72t-50.5 56t-55.5 25zM426 1484l-188 -188l-194 193
l192 193l190 -190l188 188l194 -193l-192 -193zM605 1776l-178 -178l-179 179l178 178z" />
    <glyph glyph-name="veh.medi" unicode="&#x6a4;" horiz-adv-x="1001" arabic-form="medial" 
d="M-20 296h33l85 7q-26 38 -42 92t-19 115q-2 64 13.5 129t46.5 124.5t74.5 110.5t97.5 88t115.5 57.5t128.5 18.5q63 -3 121 -24.5t108 -56.5t90.5 -83t69 -103t44 -116.5t15.5 -124.5q0 -60 -16.5 -117t-42.5 -111q18 -2 44 -4t55 -2h20v-396h-39q-65 0 -125 3
t-117.5 12.5t-113 26.5t-110.5 45q-38 -25 -95 -41.5t-124 -26.5t-138.5 -14.5t-139.5 -4.5h-39v396zM644 500q0 35 -15 64.5t-37 52.5t-45.5 38.5t-40.5 21.5q-19 -6 -45.5 -21.5t-50.5 -39t-41 -53.5t-17 -63q0 -27 14.5 -53t37.5 -48.5t50 -40.5t53 -28q24 10 48.5 26.5
t44 38t32 48t12.5 57.5zM502 1295l-188 -188l-194 193l192 193l190 -190l188 188l194 -193l-192 -193zM681 1587l-178 -178l-179 179l178 178z" />
    <glyph glyph-name="uni0686.fina" unicode="&#x686;" horiz-adv-x="1702" arabic-form="final" 
d="M1542 -624q-93 -83 -208.5 -139.5t-240.5 -85.5t-254 -30.5t-249 27t-225.5 86t-184 146t-124 208.5t-45.5 273q0 103 39.5 200t110.5 182.5t169 156t214.5 121t247 78t267.5 26.5q-56 29 -115 57.5t-117 50.5t-112.5 35t-101.5 11q-44 -2 -89 -15.5t-86.5 -36.5
t-78.5 -54t-65 -68l-258 191q57 82 119 147t132 110t150 69t173 24q86 0 171 -26t167 -66.5t161 -89.5t153.5 -94t144 -80.5t132.5 -49.5l-101 -375q23 -23 55.5 -36.5t68.5 -20.5t72 -9.5t66 -2.5h23v-396h-23q-113 0 -202.5 19t-158.5 51.5t-119.5 74t-85.5 86.5t-56.5 90
t-33.5 84q-93 -18 -181 -44.5t-165.5 -60.5t-142 -74t-111 -85t-72.5 -94t-26 -100q0 -76 31 -133.5t84.5 -98.5t125 -65t152 -32.5t166.5 -2t168 27.5t156 55t131 81zM846 -42.9141l170.283 170.077l175.718 -174.601l-173.906 -174.6l-172.095 171.886l-170.283 -170.076
l-175.718 174.6l173.906 174.6zM683.869 -307.075l161.225 161.029l162.132 -161.935l-161.226 -161.029z" />
    <glyph glyph-name="uni0686.init" unicode="&#x686;" horiz-adv-x="1601" arabic-form="initial" 
d="M-21 296h212q139 0 269.5 16t249 43t223.5 62t194 74q-51 19 -113.5 41t-128.5 41.5t-132 32.5t-125 13q-40 0 -83.5 -18t-81 -42t-64.5 -47.5t-33 -35.5l-283 182q44 78 102 143.5t127.5 113t149 74.5t166.5 27q78 0 157.5 -21t158.5 -52.5t158 -69t157 -70.5t154 -56.5
t150 -26.5l-30 -372q-142 -72 -265.5 -133.5t-235.5 -111.5t-215 -88t-205 -63.5t-205.5 -38.5t-215.5 -13h-212v396zM807 -389l188 188l194 -193l-192 -193l-190 190l-188 -188l-194 193l192 193zM628 -681l178 178l179 -179l-178 -178z" />
    <glyph glyph-name="uni0686.medi" unicode="&#x686;" horiz-adv-x="1667" arabic-form="medial" 
d="M-21 296h212q139 0 269.5 16t249 43t223.5 62t194 74q-51 19 -113.5 41t-128.5 41.5t-132 32.5t-125 13q-40 0 -83.5 -18t-81 -42t-64.5 -47.5t-33 -35.5l-283 182q44 78 102 143.5t127.5 113t149 74.5t166.5 27q78 0 157.5 -21t158.5 -52.5t158 -69t157 -70.5t154 -56.5
t150 -26.5l-30 -372q-12 -6 -23 -12t-22 -11q47 -20 93 -24.5t72 -4.5h34v-396h-34q-177 0 -318.5 61t-233.5 173q-124 -57 -236.5 -100.5t-222 -73.5t-220 -45t-231.5 -15h-212v396zM739 -387l188 188l194 -193l-192 -193l-190 190l-188 -188l-194 193l192 193zM560 -679
l178 178l179 -179l-178 -178z" />
    <glyph glyph-name="uni0688.fina" unicode="&#x688;" horiz-adv-x="1262" arabic-form="final" 
d="M534 -100q-132 0 -262 51t-251 167l228 321q50 -42 94 -69t83 -42.5t72 -21.5t61 -6q21 0 47 2t53 6.5t52 12t43 18.5q-38 82 -80 173t-87 187.5t-91.5 195.5t-92.5 197l365 151l331 -797q32 -78 72.5 -114t81.5 -36h29v-396h-29q-58 0 -104.5 10t-84.5 26.5t-68.5 37.5
t-56.5 43q-46 -28 -92 -50t-95 -37t-103 -22.5t-115 -7.5zM677 1318q-87 0 -169.5 15.5t-178.5 53.5l43 107q35 -14 62 -23t51 -15q12 15 25 33.5t32 54.5q4 16 4.5 43t-1.5 58.5t-4.5 65t-4.5 62.5q-2 22 -4.5 45t-5.5 49t-6.5 56.5t-8.5 68.5l116 32q8 -93 19 -184
t12 -188q91 79 180 94q33 5 70 -3t68.5 -27.5t53.5 -49.5t25 -69q4 -53 -14 -94t-49.5 -72t-73 -52.5t-84.5 -35t-84.5 -19.5t-72.5 -6zM594 1435q11 -1 20.5 -1h17.5h29q26 0 62 3t74 11.5t74.5 23.5t63.5 39q14 14 22.5 31.5t8.5 31.5q0 28 -29.5 45.5t-80.5 12.5
q-29 -3 -63.5 -20.5t-69.5 -44.5t-68.5 -61.5t-60.5 -70.5z" />
    <glyph glyph-name="uni0698.fina" unicode="&#x698;" horiz-adv-x="813" arabic-form="final" 
d="M601 692q46 -125 75.5 -202.5t51.5 -120.5t41 -58t43 -15h25v-396h-21q-18 0 -41 2t-58 16q-27 -113 -86.5 -217t-144.5 -196t-192 -172t-228 -144l-242 312q109 59 207 125t175 139t127.5 153.5t62.5 169.5q-15 52 -29.5 97.5t-32.5 95t-41.5 108t-56.5 136.5zM397 1013
l-188 -188l-194 193l192 193l190 -190l188 188l194 -193l-192 -193zM576 1305l-178 -178l-179 179l178 178z" />
    <glyph glyph-name="uni0691.fina" unicode="&#x691;" horiz-adv-x="813" arabic-form="final" 
d="M601 692q46 -125 75.5 -202.5t51.5 -120.5t41 -58t43 -15h25v-396h-21q-18 0 -41 2t-58 16q-27 -113 -86.5 -217t-144.5 -196t-192 -172t-228 -144l-242 312q109 59 207 125t175 139t127.5 153.5t62.5 169.5q-15 52 -29.5 97.5t-32.5 95t-41.5 108t-56.5 136.5zM398 827
q-87 0 -169.5 15.5t-178.5 53.5l43 107q35 -14 62 -23t51 -15q12 15 25 33.5t32 54.5q4 16 4.5 43t-1.5 58.5t-4.5 65t-4.5 62.5q-2 22 -4.5 45t-5.5 49t-6.5 56.5t-8.5 68.5l116 32q8 -93 19 -184t12 -188q91 79 180 94q33 5 70 -3t68.5 -27.5t53.5 -49.5t25 -69
q4 -53 -14 -94t-49.5 -72t-73 -52.5t-84.5 -35t-84.5 -19.5t-72.5 -6zM315 944q11 -1 20.5 -1h17.5h29q26 0 62 3t74 11.5t74.5 23.5t63.5 39q14 14 22.5 31.5t8.5 31.5q0 28 -29.5 45.5t-80.5 12.5q-29 -3 -63.5 -20.5t-69.5 -44.5t-68.5 -61.5t-60.5 -70.5z" />
    <glyph glyph-name="uni06A9.fina" unicode="&#x6a9;" horiz-adv-x="2320" arabic-form="final" 
d="M1350 296q65 0 104 13t60 32t27.5 41t6.5 40q0 28 -18 67.5t-48.5 86.5t-70.5 99t-83 104t-86 101.5t-81 92.5l40 341l919 388l147 -349l-728 -300q95 -97 160.5 -190.5t114.5 -177.5t89 -155.5t84 -123.5t99.5 -81t136.5 -29h117v-396h-75q-134 0 -248.5 38.5
t-208.5 123.5q-40 -44 -95.5 -74.5t-129 -50t-166 -28.5t-205.5 -9h-144q-176 0 -332.5 20t-283.5 61t-219 104.5t-140 149.5q-45 81 -60 160.5t-5.5 162t40.5 170.5t78 185l307 -178q-17 -35 -32 -77.5t-23.5 -84.5t-8 -78.5t14.5 -60.5q26 -49 92 -76.5t157 -41t198.5 -17
t216.5 -3.5h282z" />
    <glyph glyph-name="uni06A9.init" unicode="&#x6a9;" horiz-adv-x="1021" arabic-form="initial" 
d="M-21 296h89q47 0 96.5 0.5t96 5t88 13t72.5 25t49 41.5t18 62q0 38 -18.5 79.5t-51.5 86.5t-77.5 92t-96.5 96t-108.5 99.5t-113.5 102.5l36 322l841 371l154 -341l-601 -279q71 -58 139.5 -132t122 -158t86.5 -173.5t33 -179.5q0 -125 -42 -223t-115.5 -166t-173.5 -104
t-216 -36h-307v396z" />
    <glyph glyph-name="uni06A9.medi" unicode="&#x6a9;" horiz-adv-x="1188" arabic-form="medial" 
d="M-20 296h282q65 0 104 13t60 32t27.5 41t6.5 40q0 28 -18 67.5t-48.5 86.5t-70.5 99t-83 104t-86 101.5t-81 92.5l40 341l919 388l147 -349l-728 -300q95 -97 160.5 -190.5t114.5 -177.5t89 -155.5t84 -123.5t99.5 -81t136.5 -29h73v-396h-31q-134 0 -248.5 38.5
t-208.5 123.5q-40 -44 -88 -74.5t-100.5 -49.5t-107 -28t-108.5 -10h-336v396z" />
    <glyph glyph-name="uni06AF.fina" unicode="&#x6af;" horiz-adv-x="2320" arabic-form="final" 
d="M1350 296q65 0 104 13t60 32t27.5 41t6.5 40q0 28 -18 67.5t-48.5 86.5t-70.5 99t-83 104t-86 101.5t-81 92.5l40 341l919 388l147 -349l-728 -300q95 -97 160.5 -190.5t114.5 -177.5t89 -155.5t84 -123.5t99.5 -81t136.5 -29h117v-396h-75q-134 0 -248.5 38.5
t-208.5 123.5q-40 -44 -95.5 -74.5t-129 -50t-166 -28.5t-205.5 -9h-144q-176 0 -332.5 20t-283.5 61t-219 104.5t-140 149.5q-45 81 -60 160.5t-5.5 162t40.5 170.5t78 185l307 -178q-17 -35 -32 -77.5t-23.5 -84.5t-8 -78.5t14.5 -60.5q26 -49 92 -76.5t157 -41t198.5 -17
t216.5 -3.5h282zM1217 1586l765 319l55 -119l-828 -350z" />
    <glyph glyph-name="uni06AF.init" unicode="&#x6af;" horiz-adv-x="1022" arabic-form="initial" 
d="M-21 296h89q47 0 96.5 0.5t96 5t88 13t72.5 25t49 41.5t18 62q0 38 -18.5 79.5t-51.5 86.5t-77.5 92t-96.5 96t-108.5 99.5t-113.5 102.5l36 322l841 371l154 -341l-601 -279q71 -58 139.5 -132t122 -158t86.5 -173.5t33 -179.5q0 -125 -42 -223t-115.5 -166t-173.5 -104
t-216 -36h-307v396zM53 1586l765 319l55 -119l-828 -350z" />
    <glyph glyph-name="uni06AF.medi" unicode="&#x6af;" horiz-adv-x="1188" arabic-form="medial" 
d="M-20 296h282q65 0 104 13t60 32t27.5 41t6.5 40q0 28 -18 67.5t-48.5 86.5t-70.5 99t-83 104t-86 101.5t-81 92.5l40 341l919 388l147 -349l-728 -300q95 -97 160.5 -190.5t114.5 -177.5t89 -155.5t84 -123.5t99.5 -81t136.5 -29h73v-396h-31q-134 0 -248.5 38.5
t-208.5 123.5q-40 -44 -88 -74.5t-100.5 -49.5t-107 -28t-108.5 -10h-336v396zM139 1586l765 319l55 -119l-828 -350z" />
    <glyph glyph-name="uni06BA.fina" unicode="&#x6ba;" horiz-adv-x="1709" arabic-form="final" 
d="M814 -789q-181 0 -329.5 46.5t-254.5 139t-164 230.5t-58 321q0 165 54.5 334t161.5 343l290 -208q-23 -37 -50 -92.5t-50 -120.5t-38.5 -133.5t-15.5 -130.5q0 -71 36 -129t94.5 -101t133 -68.5t151.5 -30.5q94 0 181 28.5t154.5 77t109.5 113.5t47 139q-3 61 -23.5 130
t-48 138t-59 135.5t-56.5 122.5l331 184q6 -12 22 -46.5t35 -76t37.5 -81.5t29.5 -63q29 -60 72 -88t90 -28h32v-396h-32q-23 0 -42 2.5t-39 8.5q-6 -89 -32 -175.5t-71 -164t-111 -144t-153 -114.5t-195.5 -75t-239.5 -27z" />
    <glyph glyph-name="uni06C0.fina" unicode="&#x6c0;" horiz-adv-x="1090" arabic-form="final" 
d="M544 40q-106 0 -199.5 22t-163 69t-109.5 120t-40 174q0 70 24 133t63.5 118.5t90.5 102t104.5 83.5t105 64.5t92.5 44.5l-15 122l390 83q22 -196 41.5 -351.5t34.5 -264t24.5 -167.5t11.5 -63q9 -20 30 -27t59 -7h22v-396h-29q-121 0 -215.5 36t-148.5 114
q-45 -5 -88 -7.5t-85 -2.5zM331 441q2 -10 29.5 -20.5t67.5 -17t85.5 -7t82.5 9.5l-36 242q-41 -16 -83 -45t-75 -60t-53.5 -59t-17.5 -43zM676 1601q-26 4 -46.5 8.5t-39 6.5t-36 0.5t-36.5 -8.5q-20 -8 -36 -21t-26.5 -31t-12.5 -39.5t7 -46.5q6 -18 21 -30t33.5 -18
t37.5 -7.5t33 1.5t23.5 5.5t26.5 10.5t48 24t89 46l76 -102l-257 -150l-240 -133l-62 113l166 93q-34 20 -60.5 50t-41.5 65q-17 42 -14.5 85t20.5 82t49 70.5t72 49.5q25 11 51 15.5t53 4.5q13 0 25.5 -1t28 -3.5t36 -7t49.5 -11.5z" />
    <glyph glyph-name="uni06C1.fina" unicode="&#x6c1;" horiz-adv-x="1347" arabic-form="final" 
d="M1368 296v-396h-41q-83 0 -152 28.5t-127.5 73.5t-107.5 99.5t-92 107.5q-28 34 -56 66.5t-56.5 58t-56 41t-53.5 15.5q-48 0 -81.5 -25t-60 -72.5t-49 -116t-47.5 -154.5l-372 96q38 147 87 267t119.5 205.5t168.5 132.5t235 47q89 0 162 -26.5t134.5 -70t113.5 -98
t99 -109.5q67 -81 110 -125.5t79 -44.5h44z" />
    <glyph glyph-name="uni06C1.init" unicode="&#x6c1;" horiz-adv-x="728" arabic-form="initial" 
d="M480 -530q-30 3 -54 15.5t-41 31.5t-26 43.5t-9 51.5q0 41 13 83t37 88t57.5 96t74.5 107q24 -16 38.5 -24t36.5 -20q-92 -143 -92 -222q0 -29 27 -52.5t90 -47.5q-20 -31 -42 -58.5t-43 -47.5t-38.5 -32t-27.5 -12h-1zM-28 296h59q36 0 81.5 4.5t85 16t67 30t27.5 46.5
q0 21 -16.5 63.5t-42.5 98t-57 118.5t-61 124l358 177q30 -69 58.5 -144t50.5 -150t35.5 -148t13.5 -137q0 -131 -43 -224.5t-120 -153.5t-184.5 -88.5t-236.5 -28.5h-75v396z" />
    <glyph glyph-name="uni06C1.medi" unicode="&#x6c1;" horiz-adv-x="1011" arabic-form="medial" 
d="M495 348q-30 -76 -44 -141.5t-14 -102.5q0 -36 7.5 -94t24.5 -118q10 77 39.5 143t80.5 118t122.5 87t165.5 50q25 4 54 5t52 1h51v-396h-50q-65 0 -110 -28.5t-73.5 -73.5t-41.5 -100t-13 -108q0 -24 4.5 -55.5t14.5 -68.5l-231 -128q-124 78 -210.5 161t-136.5 174
q-29 54 -51 110.5t-36 119.5q-14 -2 -26 -2.5t-26.5 -0.5h-34h-49.5v396h109q5 14 17 38t26 50t27.5 50t22.5 38z" />
    <glyph glyph-name="uni06BE.fina" unicode="&#x6be;" horiz-adv-x="1172" arabic-form="final" 
d="M48 253l119 43q7 70 30 151t57.5 162.5t79 157t96 133t108.5 92.5t116 35q45 0 88 -19.5t81 -53t69.5 -79t54.5 -98t36 -109.5t13 -113q0 -82 -40.5 -168t-106.5 -164.5t-148.5 -144.5t-166.5 -108q8 -15 28.5 -43.5t44.5 -60t48 -60.5t39 -45q2 63 23 127.5t56 124
t81 111t97.5 90t105.5 60.5t105 22h39v-396h-54q-36 0 -69.5 -19.5t-60 -50.5t-42 -69.5t-15.5 -76.5q0 -15 3.5 -30.5t13 -33t25.5 -39t41 -49.5l-227 -277q-126 77 -223 156t-168.5 160t-121 163t-80.5 166l-83 -35zM721 524q7 21 4 46.5t-13.5 51t-26.5 49t-35 40.5
q-15 -15 -34 -42t-39.5 -61.5t-41 -74t-38 -79t-30.5 -77.5t-18 -70q43 14 87 38.5t81.5 54t65 62t38.5 62.5z" />
    <glyph glyph-name="uni06BE.init" unicode="&#x6be;" horiz-adv-x="1535" arabic-form="initial" 
d="M-20 296l131 2q-31 61 -41 122t-4.5 119t23 110t40.5 94.5t49 73t49 45.5l-54 34l209 358q152 -80 302.5 -148.5t289.5 -132.5q71 -33 132.5 -62.5t114 -61t96.5 -66.5t82 -79q37 -48 64 -106t39.5 -120t8.5 -125.5t-29 -121.5q-58 -135 -157.5 -211.5t-227.5 -103.5
t-277.5 -9t-307.5 71q-41 -24 -99 -39t-124.5 -23.5t-137 -12t-134.5 -3.5h-37v396zM550 709q-26 -1 -58 -21.5t-59.5 -51t-45 -66.5t-14.5 -67q1 -29 16.5 -57t37.5 -51.5t47 -40.5t47 -24q30 4 62.5 16.5t60 36.5t45 60.5t17.5 88.5q0 25 -18 56.5t-43 58.5t-51.5 45
t-43.5 17zM1209 367q3 21 -6.5 41.5t-27.5 39.5t-42 36t-48 31t-46 24.5t-37 16.5q-5 -34 -14.5 -76t-23.5 -84.5t-33.5 -81.5t-43.5 -66q50 -6 103.5 -4.5t99.5 14.5t78.5 39t40.5 70z" />
    <glyph glyph-name="uni06BE.medi" unicode="&#x6be;" horiz-adv-x="1066" arabic-form="medial" 
d="M-20 296h69q7 70 26 151t48.5 162.5t70.5 157t93.5 133t116.5 92.5t139 35q45 0 88 -19.5t81 -53t69.5 -79t54.5 -98t36 -109.5t13 -113q0 -82 -40.5 -168t-106.5 -164.5t-148.5 -144.5t-166.5 -108q8 -15 28.5 -43.5t44.5 -60t48 -60.5t39 -45q2 63 23 127.5t56 124
t81 111t97.5 90t105.5 60.5t105 22h39v-396h-54q-36 0 -69.5 -19.5t-60 -50.5t-42 -69.5t-15.5 -76.5q0 -15 3.5 -30.5t13 -33t25.5 -39t41 -49.5l-227 -277q-119 59 -218 136t-177 162t-133.5 174t-86.5 173h-110v396zM610 524q7 21 4 46.5t-13.5 51t-26.5 49t-35 40.5
q-15 -15 -34 -42t-39.5 -61.5t-41 -74t-38 -79t-30.5 -77.5t-18 -70q43 14 87 38.5t81.5 54t65 62t38.5 62.5z" />
    <glyph glyph-name="uni06D2.fina" unicode="&#x6d2;" horiz-adv-x="1170" arabic-form="final" 
d="M1185 296v-396h-726q-34 0 -57.5 -5t-37.5 -13t-20.5 -17t-6.5 -18l2 -8q2 -8 12 -17.5t32 -17t62 -7.5h846v-374h-855q-111 0 -191 39.5t-132 101.5t-76.5 137.5t-24.5 147.5q0 53 14.5 106.5t42.5 103.5t68.5 93t93 75t115.5 50.5t137 18.5h702z" />
    <glyph glyph-name="uni06D3.fina" unicode="&#x6d3;" horiz-adv-x="1163" arabic-form="final" 
d="M1185 296v-396h-726q-34 0 -57.5 -5t-37.5 -13t-20.5 -17t-6.5 -18l2 -8q2 -8 12 -17.5t32 -17t62 -7.5h846v-374h-855q-111 0 -191 39.5t-132 101.5t-76.5 137.5t-24.5 147.5q0 53 14.5 106.5t42.5 103.5t68.5 93t93 75t115.5 50.5t137 18.5h702zM555 772
q-26 4 -46.5 8.5t-39 6.5t-36 0.5t-36.5 -8.5q-20 -8 -36 -21t-26.5 -31t-12.5 -39.5t7 -46.5q6 -18 21 -30t33.5 -18t37.5 -7.5t33 1.5t23.5 5.5t26.5 10.5t48 24t89 46l76 -102l-257 -150l-240 -133l-62 113l166 93q-34 20 -60.5 50t-41.5 65q-17 42 -14.5 85t20.5 82
t49 70.5t72 49.5q25 11 51 15.5t53 4.5q13 0 25.5 -1t28 -3.5t36 -7t49.5 -11.5z" />
    <glyph glyph-name="uni0649.init" unicode="&#x649;" horiz-adv-x="723" arabic-form="initial" 
d="M-20 296h124q36 0 81.5 4.5t85 16t67 30t27.5 46.5q0 21 -16.5 63.5t-42.5 98t-57 118.5t-61 124l358 177q30 -69 58.5 -144t50.5 -150t35.5 -148t13.5 -137q0 -131 -43 -224.5t-120 -153.5t-184.5 -88.5t-236.5 -28.5h-140v396z" />
    <glyph glyph-name="uni0649.medi" unicode="&#x649;" horiz-adv-x="705" arabic-form="medial" 
d="M725 296v-396h-22q-94 0 -169 31.5t-114 88.5q-57 -63 -162.5 -91.5t-240.5 -28.5h-38v396h38q64 0 109.5 3t74 15t42 35t14.5 63t-9.5 99.5t-28.5 143.5l356 88q9 -38 17.5 -90.5t14.5 -108t7 -108t-5 -88.5q9 -20 21 -30.5t25 -15t25 -5.5t23 -1h22z" />
    <glyph glyph-name="uni06CC.fina" unicode="&#x6cc;" horiz-adv-x="1755" arabic-form="final" 
d="M873 -759q-114 0 -219.5 17t-197.5 52.5t-167.5 92t-130 135t-84 181.5t-29.5 232q0 90 8.5 173t26.5 167.5t47 173.5t70 191l331 -137q-35 -78 -61.5 -155t-43.5 -150t-25.5 -139.5t-8.5 -123.5q0 -66 22.5 -115t60 -84t86.5 -57t103 -34.5t108.5 -17.5t103.5 -5
q23 0 68 3t100 10t114 17.5t110 25.5t87.5 34t47.5 44q-72 47 -209.5 84.5t-322.5 60.5l51 379h856v-396h-124q14 -25 21.5 -56.5t7.5 -54.5q0 -96 -39 -174.5t-104 -139.5t-149 -105t-173.5 -72.5t-178.5 -42.5t-163 -14z" />
    <glyph glyph-name="uni06CC.init" unicode="&#x6cc;" horiz-adv-x="838" arabic-form="initial" 
d="M-20 296h202q24 0 55 2t63.5 6.5t64 12t56 18.5t39.5 25t15 33q0 21 -16.5 63.5t-42.5 98t-57 118.5t-61 124l358 177q30 -69 58.5 -144t50.5 -150t35.5 -148t13.5 -137q0 -131 -48 -224.5t-131 -153.5t-195.5 -88.5t-241.5 -28.5h-218v396zM380 -353l-188 -188l-194 193
l192 193l190 -190l188 188l194 -193l-192 -193z" />
    <glyph glyph-name="uni06CC.medi" unicode="&#x6cc;" horiz-adv-x="852" arabic-form="medial" 
d="M872 296v-396h-22q-47 0 -95 8t-91 23.5t-77.5 38t-53.5 50.5q-29 -32 -75 -54.5t-103 -37t-123 -21.5t-133 -7h-119v396h119q64 0 111.5 3t80 15t49.5 35t21.5 63t-3.5 99.5t-26 143.5l356 88q9 -38 17.5 -90.5t14.5 -108t7 -108t-5 -88.5q9 -20 26.5 -30.5t36.5 -15
t36.5 -5.5t28.5 -1h22zM380 -353l-188 -188l-194 193l192 193l190 -190l188 188l194 -193l-192 -193z" />
    <glyph glyph-name="uni0651064C" unicode="&#xfc5e;" arabic-form="isolated" 
d="M-139 1748q-41 1 -74.5 15t-57.5 37.5t-37.5 56t-13.5 70.5q0 25 5.5 52t13 50t15.5 40.5t13 24.5l102 -54q-11 -22 -21.5 -51t-12 -55.5t11.5 -45t49 -18.5q29 0 45.5 16t24.5 39.5t10 50t2 47.5l109 47q-7 -57 2 -94.5t26.5 -58.5t40 -27t42.5 0t33.5 22t13.5 40
q0 21 -10 46t-25 49.5t-32.5 47.5t-32.5 41l105 73q7 -10 23.5 -36t33.5 -61t30 -75t13 -77t-15 -72t-40.5 -62.5t-59 -44.5t-70.5 -17q-25 0 -57 9t-61 39q-52 -64 -136 -64h-8zM-231 2240q5 7 15 23t20.5 34.5t18.5 37.5t8 33q0 12 -1 22t-6 17q-2 5 -10 11t-17 7
q-11 0 -29.5 -8t-38 -18.5t-36 -21.5t-21.5 -16l-75 91q5 4 21 18.5t41 30t56.5 27.5t67.5 11q40 -2 73.5 -24t52.5 -55q19 -40 22 -81t-6 -83q22 7 50 16.5t56.5 20.5t55.5 22.5t46 22.5l-7 4q-114 58 -155.5 126.5t-3.5 143.5q14 28 35.5 52.5t48 42.5t56 28t59.5 10
q62 0 106.5 -38.5t61.5 -98.5q13 -48 10.5 -103t-16.5 -100l32 -17l-38 -118l-59 17q-31 -29 -72 -53t-86 -44t-89.5 -35t-82 -25.5t-64 -16.5t-34.5 -7zM159 2660q-19 0 -47.5 -14.5t-47.5 -40.5q-9 -12 10 -35.5t59 -43.5l72 -35q5 20 8 43.5t0.5 46.5t-12.5 43.5
t-31 33.5l-8 1q-1 1 -3 1z" />
    <glyph glyph-name="uni0651064D" unicode="&#xfc5f;" arabic-form="isolated" 
d="M-139 1667q-41 1 -74.5 15t-57.5 37.5t-37.5 56t-13.5 70.5q0 25 5.5 52t13 50t15.5 40.5t13 24.5l102 -54q-11 -22 -21.5 -51t-12 -55.5t11.5 -45t49 -18.5q29 0 45.5 16t24.5 39.5t10 50t2 47.5l109 47q-7 -57 2 -94.5t26.5 -58.5t40 -27t42.5 0t33.5 22t13.5 40
q0 21 -10 46t-25 49.5t-32.5 47.5t-32.5 41l105 73q7 -10 23.5 -36t33.5 -61t30 -75t13 -77t-15 -72t-40.5 -62.5t-59 -44.5t-70.5 -17q-25 0 -57 9t-61 39q-52 -64 -136 -64h-8zM289 1220l-566 -199v144l566 191v-136zM289 1479l-566 -199v144l566 191v-136z" />
    <glyph glyph-name="uni0651064E" unicode="&#xfc60;" arabic-form="isolated" 
d="M-139 1748q-41 1 -74.5 15t-57.5 37.5t-37.5 56t-13.5 70.5q0 25 5.5 52t13 50t15.5 40.5t13 24.5l102 -54q-11 -22 -21.5 -51t-12 -55.5t11.5 -45t49 -18.5q29 0 45.5 16t24.5 39.5t10 50t2 47.5l109 47q-7 -57 2 -94.5t26.5 -58.5t40 -27t42.5 0t33.5 22t13.5 40
q0 21 -10 46t-25 49.5t-32.5 47.5t-32.5 41l105 73q7 -10 23.5 -36t33.5 -61t30 -75t13 -77t-15 -72t-40.5 -62.5t-59 -44.5t-70.5 -17q-25 0 -57 9t-61 39q-52 -64 -136 -64h-8zM282 2353l-566 -199v144l566 191v-136z" />
    <glyph glyph-name="uni0651064F" unicode="&#xfc61;" arabic-form="isolated" 
d="M-139 1748q-41 1 -74.5 15t-57.5 37.5t-37.5 56t-13.5 70.5q0 25 5.5 52t13 50t15.5 40.5t13 24.5l102 -54q-11 -22 -21.5 -51t-12 -55.5t11.5 -45t49 -18.5q29 0 45.5 16t24.5 39.5t10 50t2 47.5l109 47q-7 -57 2 -94.5t26.5 -58.5t40 -27t42.5 0t33.5 22t13.5 40
q0 21 -10 46t-25 49.5t-32.5 47.5t-32.5 41l105 73q7 -10 23.5 -36t33.5 -61t30 -75t13 -77t-15 -72t-40.5 -62.5t-59 -44.5t-70.5 -17q-25 0 -57 9t-61 39q-52 -64 -136 -64h-8zM-305 2290q24 7 64 18t85 26t90.5 34t81.5 42l-62 27q-35 18 -63.5 45.5t-45.5 60.5
t-19.5 69.5t15.5 72.5q18 34 49 63.5t69 47.5t79.5 21t79.5 -15q29 -14 50.5 -36t36 -49.5t21.5 -58.5t7 -62t-5.5 -61.5t-12.5 -55.5l34 -8l-40 -128l-57 16q-44 -36 -102 -67.5t-114.5 -56t-103.5 -41.5t-69 -24l-30 -8zM36 2692q-12 0 -25.5 -5t-27 -13.5t-25.5 -20.5
t-20 -26q-1 -12 15 -28t40.5 -32.5t52.5 -30.5t51 -22q4 14 4 40.5t-5.5 53.5t-17 50t-30.5 31q-6 3 -12 3z" />
    <glyph glyph-name="uni06510650" unicode="&#xfc62;" arabic-form="isolated" 
d="M-139 1748q-41 1 -74.5 15t-57.5 37.5t-37.5 56t-13.5 70.5q0 25 5.5 52t13 50t15.5 40.5t13 24.5l102 -54q-11 -22 -21.5 -51t-12 -55.5t11.5 -45t49 -18.5q29 0 45.5 16t24.5 39.5t10 50t2 47.5l109 47q-7 -57 2 -94.5t26.5 -58.5t40 -27t42.5 0t33.5 22t13.5 40
q0 21 -10 46t-25 49.5t-32.5 47.5t-32.5 41l105 73q7 -10 23.5 -36t33.5 -61t30 -75t13 -77t-15 -72t-40.5 -62.5t-59 -44.5t-70.5 -17q-25 0 -57 9t-61 39q-52 -64 -136 -64h-8zM281 1583l-566 -199v144l566 191v-136z" />
    <glyph glyph-name="uniFC63" unicode="&#xfc63;" arabic-form="isolated" 
d="M-139 1748q-41 1 -74.5 15t-57.5 37.5t-37.5 56t-13.5 70.5q0 25 5.5 52t13 50t15.5 40.5t13 24.5l102 -54q-11 -22 -21.5 -51t-12 -55.5t11.5 -45t49 -18.5q29 0 45.5 16t24.5 39.5t10 50t2 47.5l109 47q-7 -57 2 -94.5t26.5 -58.5t40 -27t42.5 0t33.5 22t13.5 40
q0 21 -10 46t-25 49.5t-32.5 47.5t-32.5 41l105 73q7 -10 23.5 -36t33.5 -61t30 -75t13 -77t-15 -72t-40.5 -62.5t-59 -44.5t-70.5 -17q-25 0 -57 9t-61 39q-52 -64 -136 -64h-8zM-85 2215q13 58 19 107.5t6 89.5q0 42 -6 102.5t-19 118.5l131 47q6 -27 11 -59t8 -65
t5 -65.5t2 -61.5q0 -54 -5.5 -117.5t-19.5 -144.5z" />
    <glyph glyph-name="fathatan_01" unicode="&#xfe70;" arabic-form="isolated" 
d="M280 1830l-566 -199v144l566 191v-136zM280 2089l-566 -199v144l566 191v-136z" />
    <glyph glyph-name="dammatan_01" unicode="&#xfe72;" arabic-form="isolated" 
d="M-223 1658q5 7 15 23t20.5 34.5t18.5 37.5t8 33q0 12 -1 22t-6 17q-2 5 -10 11t-17 7q-11 0 -29.5 -8t-38 -18.5t-36 -21.5t-21.5 -16l-75 91q5 4 21 18.5t41 30t56.5 27.5t67.5 11q40 -2 73.5 -24t52.5 -55q19 -40 22 -81t-6 -83q22 7 50 16.5t56.5 20.5t55.5 22.5
t46 22.5l-7 4q-114 58 -155.5 126.5t-3.5 143.5q14 28 35.5 52.5t48 42.5t56 28t59.5 10q62 0 106.5 -38.5t61.5 -98.5q13 -48 10.5 -103t-16.5 -100l32 -17l-38 -118l-59 17q-31 -29 -72 -53t-86 -44t-89.5 -35t-82 -25.5t-64 -16.5t-34.5 -7zM167 2078q-19 0 -47.5 -14.5
t-47.5 -40.5q-9 -12 10 -35.5t59 -43.5l72 -35q5 20 8 43.5t0.5 46.5t-12.5 43.5t-31 33.5l-8 1q-1 1 -3 1z" />
    <glyph glyph-name="kasratan_01" unicode="&#xfe74;" arabic-form="isolated" 
d="M280 -717l-566 -199v144l566 191v-136zM280 -458l-566 -199v144l566 191v-136z" />
    <glyph glyph-name="fatha_01" unicode="&#xfe76;" arabic-form="isolated" 
d="M278 1841l-566 -199v144l566 191v-136z" />
    <glyph glyph-name="damma_01" unicode="&#xfe78;" arabic-form="isolated" 
d="M-310 1667q24 7 64 18t85 26t90.5 34t81.5 42l-62 27q-35 18 -63.5 45.5t-45.5 60.5t-19.5 69.5t15.5 72.5q18 34 49 63.5t69 47.5t79.5 21t79.5 -15q29 -14 50.5 -36t36 -49.5t21.5 -58.5t7 -62t-5.5 -61.5t-12.5 -55.5l34 -8l-40 -128l-57 16q-44 -36 -102 -67.5
t-114.5 -56t-103.5 -41.5t-69 -24l-30 -8zM31 2069q-12 0 -25.5 -5t-27 -13.5t-25.5 -20.5t-20 -26q-1 -12 15 -28t40.5 -32.5t52.5 -30.5t51 -22q4 14 4 40.5t-5.5 53.5t-17 50t-30.5 31q-6 3 -12 3z" />
    <glyph glyph-name="kasra_01" unicode="&#xfe7a;" arabic-form="isolated" 
d="M281 -475l-566 -199v144l566 191v-136z" />
    <glyph glyph-name="shadda_01" unicode="&#xfe7c;" arabic-form="isolated" 
d="M-139 1748q-41 1 -74.5 15t-57.5 37.5t-37.5 56t-13.5 70.5q0 25 5.5 52t13 50t15.5 40.5t13 24.5l102 -54q-11 -22 -21.5 -51t-12 -55.5t11.5 -45t49 -18.5q29 0 45.5 16t24.5 39.5t10 50t2 47.5l109 47q-7 -57 2 -94.5t26.5 -58.5t40 -27t42.5 0t33.5 22t13.5 40
q0 21 -10 46t-25 49.5t-32.5 47.5t-32.5 41l105 73q7 -10 23.5 -36t33.5 -61t30 -75t13 -77t-15 -72t-40.5 -62.5t-59 -44.5t-70.5 -17q-25 0 -57 9t-61 39q-52 -64 -136 -64h-8z" />
    <glyph glyph-name="sukun_01" unicode="&#xfe7e;" arabic-form="isolated" 
d="M1 1848q21 0 40 10.5t33.5 27t22.5 36.5t8 39t-8 38.5t-22.5 36t-33.5 27t-40 10.5t-40 -10.5t-33 -27t-22.5 -36t-8.5 -38.5t8.5 -39t22.5 -36.5t33 -27t40 -10.5zM1 2180q50 0 90.5 -19.5t69 -50.5t44 -70t15.5 -79t-16 -79t-44.5 -70.5t-69 -51t-89.5 -19.5
q-50 0 -90.5 19.5t-69 50.5t-44 70.5t-15.5 79.5t16 79.5t44.5 70.5t69 50t89.5 19z" />
    <glyph glyph-name="uni0622.fina" unicode="&#x622;" horiz-adv-x="640" arabic-form="final" 
d="M631 -100q-136 0 -230.5 36.5t-154 101t-86.5 152t-27 190.5q0 120 2 240.5t2 242t-5 244.5t-19 249l378 109q16 -120 21 -245.5t5 -250.5t-3 -248t-3 -237q0 -45 0.5 -80t11 -59t35.5 -36.5t74 -12.5h27v-396h-28zM-79 1557q15 58 45.5 104.5t70 78.5t86.5 49.5t96 17.5
q36 0 68 -9.5t62 -21t59.5 -21t61.5 -9.5q17 0 32.5 3t31.5 12.5t33 26t38 43.5l166 -106q-2 -5 -25.5 -35t-64 -64.5t-94.5 -62.5t-116 -29q-39 -1 -70.5 8.5t-59.5 21t-55 21.5t-58 10q-34 0 -66 -25t-48 -84z" />
    <glyph glyph-name="uni0623.fina" unicode="&#x623;" horiz-adv-x="640" arabic-form="final" 
d="M631 -100q-136 0 -230.5 36.5t-154 101t-86.5 152t-27 190.5q0 120 2 240.5t2 242t-5 244.5t-19 249l378 109q16 -120 21 -245.5t5 -250.5t-3 -248t-3 -237q0 -45 0.5 -80t11 -59t35.5 -36.5t74 -12.5h27v-396h-28zM414 1917q-26 4 -46.5 8.5t-39 6.5t-36 0.5t-36.5 -8.5
q-20 -8 -36 -21t-26.5 -31t-12.5 -39.5t7 -46.5q6 -18 21 -30t33.5 -18t37.5 -7.5t33 1.5t23.5 5.5t26.5 10.5t48 24t89 46l76 -102l-257 -150l-240 -133l-62 113l166 93q-34 20 -60.5 50t-41.5 65q-17 42 -14.5 85t20.5 82t49 70.5t72 49.5q25 11 51 15.5t53 4.5
q13 0 25.5 -1t28 -3.5t36 -7t49.5 -11.5z" />
    <glyph glyph-name="uni0624.fina" unicode="&#x624;" horiz-adv-x="1083" arabic-form="final" 
d="M19 -418q123 26 228 61t188.5 76t143 87t91.5 94q-15 0 -33 0.5t-35.5 1.5t-33 1.5t-25.5 1.5q-107 9 -194 41t-149 88.5t-96 137.5t-34 187q0 65 16.5 134t46.5 135t71.5 124t91.5 102t106.5 69.5t116.5 25.5q72 0 136 -27t118.5 -73.5t99 -110t78.5 -136t57 -151
t35 -155.5h60v-396h-83q-42 -143 -130 -258t-208 -202.5t-266 -147.5t-304 -94zM512 571q-29 0 -54 -19t-43.5 -47.5t-29 -61t-10.5 -60.5q0 -19 17.5 -33t46.5 -23.5t66 -15.5t75.5 -9t75 -4t65.5 -1q-5 46 -22.5 95t-45 88.5t-63.5 65t-78 25.5zM564 1438q-26 4 -46.5 8.5
t-39 6.5t-36 0.5t-36.5 -8.5q-20 -8 -36 -21t-26.5 -31t-12.5 -39.5t7 -46.5q6 -18 21 -30t33.5 -18t37.5 -7.5t33 1.5t23.5 5.5t26.5 10.5t48 24t89 46l76 -102l-257 -150l-240 -133l-62 113l166 93q-34 20 -60.5 50t-41.5 65q-17 42 -14.5 85t20.5 82t49 70.5t72 49.5
q25 11 51 15.5t53 4.5q13 0 25.5 -1t28 -3.5t36 -7t49.5 -11.5z" />
    <glyph glyph-name="uni0625.fina" unicode="&#x625;" horiz-adv-x="640" arabic-form="final" 
d="M631 -100q-136 0 -230.5 36.5t-154 101t-86.5 152t-27 190.5q0 120 2 240.5t2 242t-5 244.5t-19 249l378 109q16 -120 21 -245.5t5 -250.5t-3 -248t-3 -237q0 -45 0.5 -80t11 -59t35.5 -36.5t74 -12.5h27v-396h-28zM478 -270q-26 4 -46.5 8.5t-39 6.5t-36 0.5t-36.5 -8.5
q-20 -8 -36 -21t-26.5 -31t-12.5 -39.5t7 -46.5q6 -18 21 -30t33.5 -18t37.5 -7.5t33 1.5t23.5 5.5t26.5 10.5t48 24t89 46l76 -102l-257 -150l-240 -133l-62 113l166 93q-34 20 -60.5 50t-41.5 65q-17 42 -14.5 85t20.5 82t49 70.5t72 49.5q25 11 51 15.5t53 4.5
q13 0 25.5 -1t28 -3.5t36 -7t49.5 -11.5z" />
    <glyph glyph-name="uni0626.fina" unicode="&#x626;" horiz-adv-x="1755" arabic-form="final" 
d="M873 -759q-114 0 -219.5 17t-197.5 52.5t-167.5 92t-130 135t-84 181.5t-29.5 232q0 90 8.5 173t26.5 167.5t47 173.5t70 191l331 -137q-35 -78 -61.5 -155t-43.5 -150t-25.5 -139.5t-8.5 -123.5q0 -66 22.5 -115t60 -84t86.5 -57t103 -34.5t108.5 -17.5t103.5 -5
q23 0 68 3t100 10t114 17.5t110 25.5t87.5 34t47.5 44q-72 47 -209.5 84.5t-322.5 60.5l51 379h856v-396h-124q14 -25 21.5 -56.5t7.5 -54.5q0 -96 -39 -174.5t-104 -139.5t-149 -105t-173.5 -72.5t-178.5 -42.5t-163 -14zM770 1159q-26 4 -46.5 8.5t-39 6.5t-36 0.5
t-36.5 -8.5q-20 -8 -36 -21t-26.5 -31t-12.5 -39.5t7 -46.5q6 -18 21 -30t33.5 -18t37.5 -7.5t33 1.5t23.5 5.5t26.5 10.5t48 24t89 46l76 -102l-257 -150l-240 -133l-62 113l166 93q-34 20 -60.5 50t-41.5 65q-17 42 -14.5 85t20.5 82t49 70.5t72 49.5q25 11 51 15.5
t53 4.5q13 0 25.5 -1t28 -3.5t36 -7t49.5 -11.5z" />
    <glyph glyph-name="uni0626.init" unicode="&#x626;" horiz-adv-x="838" arabic-form="initial" 
d="M-20 296h202q24 0 55 2t63.5 6.5t64 12t56 18.5t39.5 25t15 33q0 21 -16.5 63.5t-42.5 98t-57 118.5t-61 124l358 177q30 -69 58.5 -144t50.5 -150t35.5 -148t13.5 -137q0 -131 -48 -224.5t-131 -153.5t-195.5 -88.5t-241.5 -28.5h-218v396zM544 1445q-26 4 -46.5 8.5
t-39 6.5t-36 0.5t-36.5 -8.5q-20 -8 -36 -21t-26.5 -31t-12.5 -39.5t7 -46.5q6 -18 21 -30t33.5 -18t37.5 -7.5t33 1.5t23.5 5.5t26.5 10.5t48 24t89 46l76 -102l-257 -150l-240 -133l-62 113l166 93q-34 20 -60.5 50t-41.5 65q-17 42 -14.5 85t20.5 82t49 70.5t72 49.5
q25 11 51 15.5t53 4.5q13 0 25.5 -1t28 -3.5t36 -7t49.5 -11.5z" />
    <glyph glyph-name="uni0626.medi" unicode="&#x626;" horiz-adv-x="852" arabic-form="medial" 
d="M872 296v-396h-22q-47 0 -95 8t-91 23.5t-77.5 38t-53.5 50.5q-29 -32 -75 -54.5t-103 -37t-123 -21.5t-133 -7h-119v396h119q64 0 111.5 3t80 15t49.5 35t21.5 63t-3.5 99.5t-26 143.5l356 88q9 -38 17.5 -90.5t14.5 -108t7 -108t-5 -88.5q9 -20 26.5 -30.5t36.5 -15
t36.5 -5.5t28.5 -1h22zM514 1274q-26 4 -46.5 8.5t-39 6.5t-36 0.5t-36.5 -8.5q-20 -8 -36 -21t-26.5 -31t-12.5 -39.5t7 -46.5q6 -18 21 -30t33.5 -18t37.5 -7.5t33 1.5t23.5 5.5t26.5 10.5t48 24t89 46l76 -102l-257 -150l-240 -133l-62 113l166 93q-34 20 -60.5 50
t-41.5 65q-17 42 -14.5 85t20.5 82t49 70.5t72 49.5q25 11 51 15.5t53 4.5q13 0 25.5 -1t28 -3.5t36 -7t49.5 -11.5z" />
    <glyph glyph-name="uni0627.fina" unicode="&#x627;" horiz-adv-x="624" arabic-form="final" 
d="M616 -100q-136 0 -230.5 36.5t-154 101t-86.5 152t-27 190.5q0 135 2 271t0 273.5t-10.5 277t-30.5 282.5l375 114q26 -132 36 -273.5t11.5 -285t-2 -284.5t-3.5 -271q0 -45 0.5 -81.5t11 -61t35.5 -36.5t74 -9h27v-396h-28z" />
    <glyph glyph-name="uni0628.fina" unicode="&#x628;" horiz-adv-x="2316" arabic-form="final" 
d="M2300 -100q-160 0 -275 52.5t-193 161.5q-71 -60 -157 -101t-186.5 -67t-215.5 -37.5t-245 -11.5q-176 0 -326.5 20.5t-269.5 62.5t-205 105.5t-134 149.5q-45 81 -60 160.5t-5.5 162t40.5 170.5t78 185l307 -178q-17 -35 -32 -77.5t-23.5 -84.5t-8 -78.5t14.5 -60.5
q26 -49 86 -76.5t143 -41t184.5 -17t210.5 -3.5q102 0 193.5 5.5t169 19.5t140 37.5t105.5 59.5q34 28 57.5 66t40.5 83t29 95t24 101l357 -90l-43 -243q-5 -29 7 -53.5t38.5 -42.5t66 -28t87.5 -10h36v-396h-36zM1058 -608l-222 222l222 222l222 -222z" />
    <glyph glyph-name="uni0628.init" unicode="&#x628;" horiz-adv-x="715" arabic-form="initial" 
d="M-20 296h124q36 0 81.5 4.5t85 16t67 30t27.5 46.5q0 21 -16.5 63.5t-42.5 98t-57 118.5t-61 124l358 177q30 -69 58.5 -144t50.5 -150t35.5 -148t13.5 -137q0 -131 -43 -224.5t-120 -153.5t-184.5 -88.5t-236.5 -28.5h-140v396zM303 -608l-222 222l222 222l222 -222z
" />
    <glyph glyph-name="uni0628.medi" unicode="&#x628;" horiz-adv-x="705" arabic-form="medial" 
d="M725 296v-396h-22q-94 0 -169 31.5t-114 88.5q-57 -63 -162.5 -91.5t-240.5 -28.5h-38v396h38q64 0 109.5 3t74 15t42 35t14.5 63t-9.5 99.5t-28.5 143.5l356 88q9 -38 17.5 -90.5t14.5 -108t7 -108t-5 -88.5q9 -20 21 -30.5t25 -15t25 -5.5t23 -1h22zM336 -608l-222 222
l222 222l222 -222z" />
    <glyph glyph-name="uni0629.fina" unicode="&#x629;" horiz-adv-x="1090" arabic-form="final" 
d="M544 40q-106 0 -199.5 22t-163 69t-109.5 120t-40 174q0 70 24 133t63.5 118.5t90.5 102t104.5 83.5t105 64.5t92.5 44.5l-15 122l390 83q22 -196 41.5 -351.5t34.5 -264t24.5 -167.5t11.5 -63q9 -20 30 -27t59 -7h22v-396h-29q-121 0 -215.5 36t-148.5 114
q-45 -5 -88 -7.5t-85 -2.5zM331 441q2 -10 29.5 -20.5t67.5 -17t85.5 -7t82.5 9.5l-36 242q-41 -16 -83 -45t-75 -60t-53.5 -59t-17.5 -43zM599 1463l-188 -188l-194 193l192 193l190 -190l188 188l194 -193l-192 -193z" />
    <glyph glyph-name="uni062A.fina" unicode="&#x62a;" horiz-adv-x="2316" arabic-form="final" 
d="M2300 -100q-160 0 -275 52.5t-193 161.5q-71 -60 -157 -101t-186.5 -67t-215.5 -37.5t-245 -11.5q-176 0 -326.5 20.5t-269.5 62.5t-205 105.5t-134 149.5q-45 81 -60 160.5t-5.5 162t40.5 170.5t78 185l307 -178q-17 -35 -32 -77.5t-23.5 -84.5t-8 -78.5t14.5 -60.5
q26 -49 86 -76.5t143 -41t184.5 -17t210.5 -3.5q102 0 193.5 5.5t169 19.5t140 37.5t105.5 59.5q34 28 57.5 66t40.5 83t29 95t24 101l357 -90l-43 -243q-5 -29 7 -53.5t38.5 -42.5t66 -28t87.5 -10h36v-396h-36zM1071 1006l-188 -188l-194 193l192 193l190 -190l188 188
l194 -193l-192 -193z" />
    <glyph glyph-name="uni062A.init" unicode="&#x62a;" horiz-adv-x="843" arabic-form="initial" 
d="M-20 296h202q24 0 55 2t63.5 6.5t64 12t56 18.5t39.5 25t15 33q0 21 -16.5 63.5t-42.5 98t-57 118.5t-61 124l358 177q30 -69 58.5 -144t50.5 -150t35.5 -148t13.5 -137q0 -131 -48 -224.5t-131 -153.5t-195.5 -88.5t-241.5 -28.5h-218v396zM446 1288l-188 -188l-194 193
l192 193l190 -190l188 188l194 -193l-192 -193z" />
    <glyph glyph-name="uni062A.medi" unicode="&#x62a;" horiz-adv-x="852" arabic-form="medial" 
d="M872 296v-396h-22q-47 0 -95 8t-91 23.5t-77.5 38t-53.5 50.5q-29 -32 -75 -54.5t-103 -37t-123 -21.5t-133 -7h-119v396h119q64 0 111.5 3t80 15t49.5 35t21.5 63t-3.5 99.5t-26 143.5l356 88q9 -38 17.5 -90.5t14.5 -108t7 -108t-5 -88.5q9 -20 26.5 -30.5t36.5 -15
t36.5 -5.5t28.5 -1h22zM446 1132l-188 -188l-194 193l192 193l190 -190l188 188l194 -193l-192 -193z" />
    <glyph glyph-name="uni062B.fina" unicode="&#x62b;" horiz-adv-x="2316" arabic-form="final" 
d="M2300 -100q-160 0 -275 52.5t-193 161.5q-71 -60 -157 -101t-186.5 -67t-215.5 -37.5t-245 -11.5q-176 0 -326.5 20.5t-269.5 62.5t-205 105.5t-134 149.5q-45 81 -60 160.5t-5.5 162t40.5 170.5t78 185l307 -178q-17 -35 -32 -77.5t-23.5 -84.5t-8 -78.5t14.5 -60.5
q26 -49 86 -76.5t143 -41t184.5 -17t210.5 -3.5q102 0 193.5 5.5t169 19.5t140 37.5t105.5 59.5q34 28 57.5 66t40.5 83t29 95t24 101l357 -90l-43 -243q-5 -29 7 -53.5t38.5 -42.5t66 -28t87.5 -10h36v-396h-36zM1110 993l-188 -188l-194 193l192 193l190 -190l188 188
l194 -193l-192 -193zM1289 1285l-178 -178l-179 179l178 178z" />
    <glyph glyph-name="uni062B.init" unicode="&#x62b;" horiz-adv-x="843" arabic-form="initial" 
d="M-20 296h202q24 0 55 2t63.5 6.5t64 12t56 18.5t39.5 25t15 33q0 21 -16.5 63.5t-42.5 98t-57 118.5t-61 124l358 177q30 -69 58.5 -144t50.5 -150t35.5 -148t13.5 -137q0 -131 -48 -224.5t-131 -153.5t-195.5 -88.5t-241.5 -28.5h-218v396zM418 1293l-188 -188l-194 193
l192 193l190 -190l188 188l194 -193l-192 -193zM597 1585l-178 -178l-179 179l178 178z" />
    <glyph glyph-name="uni062B.medi" unicode="&#x62b;" horiz-adv-x="852" arabic-form="medial" 
d="M872 296v-396h-22q-47 0 -95 8t-91 23.5t-77.5 38t-53.5 50.5q-29 -32 -75 -54.5t-103 -37t-123 -21.5t-133 -7h-119v396h119q64 0 111.5 3t80 15t49.5 35t21.5 63t-3.5 99.5t-26 143.5l356 88q9 -38 17.5 -90.5t14.5 -108t7 -108t-5 -88.5q9 -20 26.5 -30.5t36.5 -15
t36.5 -5.5t28.5 -1h22zM418 1133l-188 -188l-194 193l192 193l190 -190l188 188l194 -193l-192 -193zM597 1425l-178 -178l-179 179l178 178z" />
    <glyph glyph-name="uni062C.fina" unicode="&#x62c;" horiz-adv-x="1702" arabic-form="final" 
d="M1542 -624q-93 -83 -208.5 -139.5t-240.5 -85.5t-254 -30.5t-249 27t-225.5 86t-184 146t-124 208.5t-45.5 273q0 103 39.5 200t110.5 182.5t169 156t214.5 121t247 78t267.5 26.5q-56 29 -115 57.5t-117 50.5t-112.5 35t-101.5 11q-44 -2 -89 -15.5t-86.5 -36.5
t-78.5 -54t-65 -68l-258 191q57 82 119 147t132 110t150 69t173 24q86 0 171 -26t167 -66.5t161 -89.5t153.5 -94t144 -80.5t132.5 -49.5l-101 -375q23 -23 55.5 -36.5t68.5 -20.5t72 -9.5t66 -2.5h23v-396h-23q-113 0 -202.5 19t-158.5 51.5t-119.5 74t-85.5 86.5t-56.5 90
t-33.5 84q-93 -18 -181 -44.5t-165.5 -60.5t-142 -74t-111 -85t-72.5 -94t-26 -100q0 -76 31 -133.5t84.5 -98.5t125 -65t152 -32.5t166.5 -2t168 27.5t156 55t131 81zM903 -339l-222 222l222 222l222 -222z" />
    <glyph glyph-name="uni062C.init" unicode="&#x62c;" horiz-adv-x="1601" arabic-form="initial" 
d="M-21 296h212q139 0 269.5 16t249 43t223.5 62t194 74q-51 19 -113.5 41t-128.5 41.5t-132 32.5t-125 13q-40 0 -83.5 -18t-81 -42t-64.5 -47.5t-33 -35.5l-283 182q44 78 102 143.5t127.5 113t149 74.5t166.5 27q78 0 157.5 -21t158.5 -52.5t158 -69t157 -70.5t154 -56.5
t150 -26.5l-30 -372q-142 -72 -265.5 -133.5t-235.5 -111.5t-215 -88t-205 -63.5t-205.5 -38.5t-215.5 -13h-212v396zM805 -606l-222 222l222 222l222 -222z" />
    <glyph glyph-name="uni062C.medi" unicode="&#x62c;" horiz-adv-x="1667" arabic-form="medial" 
d="M-21 296h212q139 0 269.5 16t249 43t223.5 62t194 74q-51 19 -113.5 41t-128.5 41.5t-132 32.5t-125 13q-40 0 -83.5 -18t-81 -42t-64.5 -47.5t-33 -35.5l-283 182q44 78 102 143.5t127.5 113t149 74.5t166.5 27q78 0 157.5 -21t158.5 -52.5t158 -69t157 -70.5t154 -56.5
t150 -26.5l-30 -372q-12 -6 -23 -12t-22 -11q47 -20 93 -24.5t72 -4.5h34v-396h-34q-177 0 -318.5 61t-233.5 173q-124 -57 -236.5 -100.5t-222 -73.5t-220 -45t-231.5 -15h-212v396zM805 -608l-222 222l222 222l222 -222z" />
    <glyph glyph-name="uni062D.fina" unicode="&#x62d;" horiz-adv-x="1702" arabic-form="final" 
d="M1542 -624q-93 -83 -208.5 -139.5t-240.5 -85.5t-254 -30.5t-249 27t-225.5 86t-184 146t-124 208.5t-45.5 273q0 103 39.5 200t110.5 182.5t169 156t214.5 121t247 78t267.5 26.5q-56 29 -115 57.5t-117 50.5t-112.5 35t-101.5 11q-44 -2 -89 -15.5t-86.5 -36.5
t-78.5 -54t-65 -68l-258 191q57 82 119 147t132 110t150 69t173 24q86 0 171 -26t167 -66.5t161 -89.5t153.5 -94t144 -80.5t132.5 -49.5l-101 -375q23 -23 55.5 -36.5t68.5 -20.5t72 -9.5t66 -2.5h23v-396h-23q-113 0 -202.5 19t-158.5 51.5t-119.5 74t-85.5 86.5t-56.5 90
t-33.5 84q-93 -18 -181 -44.5t-165.5 -60.5t-142 -74t-111 -85t-72.5 -94t-26 -100q0 -76 31 -133.5t84.5 -98.5t125 -65t152 -32.5t166.5 -2t168 27.5t156 55t131 81z" />
    <glyph glyph-name="uni062D.init" unicode="&#x62d;" horiz-adv-x="1601" arabic-form="initial" 
d="M-21 296h212q139 0 269.5 16t249 43t223.5 62t194 74q-51 19 -113.5 41t-128.5 41.5t-132 32.5t-125 13q-40 0 -83.5 -18t-81 -42t-64.5 -47.5t-33 -35.5l-283 182q44 78 102 143.5t127.5 113t149 74.5t166.5 27q78 0 157.5 -21t158.5 -52.5t158 -69t157 -70.5t154 -56.5
t150 -26.5l-30 -372q-142 -72 -265.5 -133.5t-235.5 -111.5t-215 -88t-205 -63.5t-205.5 -38.5t-215.5 -13h-212v396z" />
    <glyph glyph-name="uni062D.medi" unicode="&#x62d;" horiz-adv-x="1667" arabic-form="medial" 
d="M-21 296h212q139 0 269.5 16t249 43t223.5 62t194 74q-51 19 -113.5 41t-128.5 41.5t-132 32.5t-125 13q-40 0 -83.5 -18t-81 -42t-64.5 -47.5t-33 -35.5l-283 182q44 78 102 143.5t127.5 113t149 74.5t166.5 27q78 0 157.5 -21t158.5 -52.5t158 -69t157 -70.5t154 -56.5
t150 -26.5l-30 -372q-12 -6 -23 -12t-22 -11q47 -20 93 -24.5t72 -4.5h34v-396h-34q-177 0 -318.5 61t-233.5 173q-124 -57 -236.5 -100.5t-222 -73.5t-220 -45t-231.5 -15h-212v396z" />
    <glyph glyph-name="uni062E.fina" unicode="&#x62e;" horiz-adv-x="1702" arabic-form="final" 
d="M1542 -624q-93 -83 -208.5 -139.5t-240.5 -85.5t-254 -30.5t-249 27t-225.5 86t-184 146t-124 208.5t-45.5 273q0 103 39.5 200t110.5 182.5t169 156t214.5 121t247 78t267.5 26.5q-56 29 -115 57.5t-117 50.5t-112.5 35t-101.5 11q-44 -2 -89 -15.5t-86.5 -36.5
t-78.5 -54t-65 -68l-258 191q57 82 119 147t132 110t150 69t173 24q86 0 171 -26t167 -66.5t161 -89.5t153.5 -94t144 -80.5t132.5 -49.5l-101 -375q23 -23 55.5 -36.5t68.5 -20.5t72 -9.5t66 -2.5h23v-396h-23q-113 0 -202.5 19t-158.5 51.5t-119.5 74t-85.5 86.5t-56.5 90
t-33.5 84q-93 -18 -181 -44.5t-165.5 -60.5t-142 -74t-111 -85t-72.5 -94t-26 -100q0 -76 31 -133.5t84.5 -98.5t125 -65t152 -32.5t166.5 -2t168 27.5t156 55t131 81zM641 1197l-222 222l222 222l222 -222z" />
    <glyph glyph-name="uni062E.init" unicode="&#x62e;" horiz-adv-x="1601" arabic-form="initial" 
d="M-21 296h212q139 0 269.5 16t249 43t223.5 62t194 74q-51 19 -113.5 41t-128.5 41.5t-132 32.5t-125 13q-40 0 -83.5 -18t-81 -42t-64.5 -47.5t-33 -35.5l-283 182q44 78 102 143.5t127.5 113t149 74.5t166.5 27q78 0 157.5 -21t158.5 -52.5t158 -69t157 -70.5t154 -56.5
t150 -26.5l-30 -372q-142 -72 -265.5 -133.5t-235.5 -111.5t-215 -88t-205 -63.5t-205.5 -38.5t-215.5 -13h-212v396zM627 1073l-222 222l222 222l222 -222z" />
    <glyph glyph-name="uni062E.medi" unicode="&#x62e;" horiz-adv-x="1667" arabic-form="medial" 
d="M-21 296h212q139 0 269.5 16t249 43t223.5 62t194 74q-51 19 -113.5 41t-128.5 41.5t-132 32.5t-125 13q-40 0 -83.5 -18t-81 -42t-64.5 -47.5t-33 -35.5l-283 182q44 78 102 143.5t127.5 113t149 74.5t166.5 27q78 0 157.5 -21t158.5 -52.5t158 -69t157 -70.5t154 -56.5
t150 -26.5l-30 -372q-12 -6 -23 -12t-22 -11q47 -20 93 -24.5t72 -4.5h34v-396h-34q-177 0 -318.5 61t-233.5 173q-124 -57 -236.5 -100.5t-222 -73.5t-220 -45t-231.5 -15h-212v396zM547 1077l-222 222l222 222l222 -222z" />
    <glyph glyph-name="uni062F.fina" unicode="&#x62f;" horiz-adv-x="1262" arabic-form="final" 
d="M534 -100q-132 0 -262 51t-251 167l228 321q50 -42 94 -69t83 -42.5t72 -21.5t61 -6q21 0 47 2t53 6.5t52 12t43 18.5q-38 82 -80 173t-87 187.5t-91.5 195.5t-92.5 197l365 151l331 -797q32 -78 72.5 -114t81.5 -36h29v-396h-29q-58 0 -104.5 10t-84.5 26.5t-68.5 37.5
t-56.5 43q-46 -28 -92 -50t-95 -37t-103 -22.5t-115 -7.5z" />
    <glyph glyph-name="uni0630.fina" unicode="&#x630;" horiz-adv-x="1262" arabic-form="final" 
d="M534 -100q-132 0 -262 51t-251 167l228 321q50 -42 94 -69t83 -42.5t72 -21.5t61 -6q21 0 47 2t53 6.5t52 12t43 18.5q-38 82 -80 173t-87 187.5t-91.5 195.5t-92.5 197l365 151l331 -797q32 -78 72.5 -114t81.5 -36h29v-396h-29q-58 0 -104.5 10t-84.5 26.5t-68.5 37.5
t-56.5 43q-46 -28 -92 -50t-95 -37t-103 -22.5t-115 -7.5zM693 1296l-222 222l222 222l222 -222z" />
    <glyph glyph-name="uni0631.fina" unicode="&#x631;" horiz-adv-x="816" arabic-form="final" 
d="M601 692q46 -125 75.5 -202.5t51.5 -120.5t41 -58t43 -15h25v-396h-21q-18 0 -41 2t-58 16q-27 -113 -86.5 -217t-144.5 -196t-192 -172t-228 -144l-242 312q109 59 207 125t175 139t127.5 153.5t62.5 169.5q-15 52 -29.5 97.5t-32.5 95t-41.5 108t-56.5 136.5z" />
    <glyph glyph-name="uni0632.fina" unicode="&#x632;" horiz-adv-x="813" arabic-form="final" 
d="M601 692q46 -125 75.5 -202.5t51.5 -120.5t41 -58t43 -15h25v-396h-21q-18 0 -41 2t-58 16q-27 -113 -86.5 -217t-144.5 -196t-192 -172t-228 -144l-242 312q109 59 207 125t175 139t127.5 153.5t62.5 169.5q-15 52 -29.5 97.5t-32.5 95t-41.5 108t-56.5 136.5zM395 869
l-222 222l222 222l222 -222z" />
    <glyph glyph-name="uni0633.fina" unicode="&#x633;" horiz-adv-x="2914" arabic-form="final" 
d="M2262 259q32 3 55 26.5t39 60t25.5 81t13.5 90t4 88t-3 73.5l326 49q8 -119 23 -201.5t37.5 -133.5t52 -73.5t67.5 -22.5h32v-396h-32q-95 0 -180 29.5t-153 98.5q-60 -60 -144.5 -92.5t-191.5 -32.5q-45 0 -81.5 10t-66.5 26.5t-54.5 38t-45.5 45.5q-27 -46 -70.5 -74.5
t-95.5 -41.5t-108.5 -11t-107.5 16q-9 -115 -47.5 -209.5t-100.5 -169t-142.5 -129.5t-173 -91t-193 -54t-200.5 -18q-162 0 -295.5 53.5t-229.5 150.5t-148.5 232.5t-52.5 299.5q3 87 25 181.5t56.5 187.5t77.5 180t89 160l281 -213q-36 -61 -68.5 -126.5t-57.5 -131
t-39.5 -128.5t-14.5 -119q-3 -68 24 -127.5t77 -104t119.5 -70.5t152.5 -26q254 0 374.5 99.5t120.5 285.5q0 52 -14 108.5t-40 121.5t-63 142t-83 170l344 193q29 -66 55.5 -130.5t52 -121.5t50 -104.5t49 -80.5t49.5 -49.5t52 -11.5q38 7 62 31.5t38.5 59.5t21 78t8.5 89
t1 90.5t-1 83.5l313 9l2 -33q1 -34 5.5 -84.5t12.5 -108.5t22.5 -107.5t36 -81.5t51.5 -29z" />
    <glyph glyph-name="uni0633.init" unicode="&#x633;" horiz-adv-x="1691" arabic-form="initial" 
d="M0 296q63 0 106.5 35t75.5 95t56 139.5t47 168.5l336 -63q-9 -37 -19.5 -82.5t-19 -91t-14 -89t-5 -77t9 -54.5t27.5 -22q36 2 64.5 25.5t51 60.5t39.5 85t29.5 100t22 104t17.5 98l300 -50q-3 -32 -9 -77t-10 -93t-3.5 -95t9.5 -84.5t29.5 -60.5t57.5 -23q53 0 83 20
t43 54.5t11 79t-13 93t-29 98t-36.5 93.5t-36 79.5t-27.5 55.5l296 165q27 -59 57 -133.5t54.5 -156.5t41 -166.5t16.5 -163.5q0 -109 -29 -196.5t-88 -149t-149 -95t-212 -34.5q-50 0 -95 15.5t-82.5 39t-66 51.5t-44.5 53q-19 -29 -47 -57t-64.5 -50.5t-82 -36.5
t-99.5 -15q-47 -1 -90 12t-78.5 34.5t-62.5 49.5t-42 57q-15 -30 -43 -56t-67.5 -44.5t-90 -29.5t-109.5 -11h-36v396h20z" />
    <glyph glyph-name="uni0633.medi" unicode="&#x633;" horiz-adv-x="1851" arabic-form="medial" 
d="M1180 -112q-50 0 -95 15.5t-82.5 39t-66 51.5t-44.5 53q-19 -29 -47 -57t-64.5 -50.5t-82 -36.5t-99.5 -15q-47 -1 -90 12t-78.5 34.5t-62.5 49.5t-42 57q-15 -30 -43 -56t-67.5 -44.5t-90 -29.5t-109.5 -11h-36v396h20q63 0 106.5 35t75.5 95t56 139.5t47 168.5l336 -63
q-9 -37 -19.5 -82.5t-19 -91t-14 -89t-5 -77t9 -54.5t27.5 -22q36 2 64.5 23t51 55.5t39.5 78.5t29.5 92.5t22 98.5t17.5 96l300 -21q-3 -32 -9 -76t-10 -90.5t-3.5 -92t9.5 -81t29.5 -57.5t57.5 -22q32 2 55.5 25t39.5 59.5t25.5 81.5t13.5 91t4 88.5t-3 73.5l326 49
q8 -119 23 -201.5t37.5 -133.5t52 -73.5t67.5 -22.5h32v-396h-32q-95 0 -180 29.5t-153 98.5q-30 -30 -64.5 -55.5t-75 -44t-87 -29.5t-99.5 -11z" />
    <glyph glyph-name="uni0634.fina" unicode="&#x634;" horiz-adv-x="2914" arabic-form="final" 
d="M2262 259q32 3 55 26.5t39 60t25.5 81t13.5 90t4 88t-3 73.5l326 49q8 -119 23 -201.5t37.5 -133.5t52 -73.5t67.5 -22.5h32v-396h-32q-95 0 -180 29.5t-153 98.5q-60 -60 -144.5 -92.5t-191.5 -32.5q-45 0 -81.5 10t-66.5 26.5t-54.5 38t-45.5 45.5q-27 -46 -70.5 -74.5
t-95.5 -41.5t-108.5 -11t-107.5 16q-9 -115 -47.5 -209.5t-100.5 -169t-142.5 -129.5t-173 -91t-193 -54t-200.5 -18q-162 0 -295.5 53.5t-229.5 150.5t-148.5 232.5t-52.5 299.5q3 87 25 181.5t56.5 187.5t77.5 180t89 160l281 -213q-36 -61 -68.5 -126.5t-57.5 -131
t-39.5 -128.5t-14.5 -119q-3 -68 24 -127.5t77 -104t119.5 -70.5t152.5 -26q254 0 374.5 99.5t120.5 285.5q0 52 -14 108.5t-40 121.5t-63 142t-83 170l344 193q29 -66 55.5 -130.5t52 -121.5t50 -104.5t49 -80.5t49.5 -49.5t52 -11.5q38 7 62 31.5t38.5 59.5t21 78t8.5 89
t1 90.5t-1 83.5l313 9l2 -33q1 -34 5.5 -84.5t12.5 -108.5t22.5 -107.5t36 -81.5t51.5 -29zM1934 1108l-188 -188l-194 193l192 193l190 -190l188 188l194 -193l-192 -193zM2113 1400l-178 -178l-179 179l178 178z" />
    <glyph glyph-name="uni0634.init" unicode="&#x634;" horiz-adv-x="1680" arabic-form="initial" 
d="M0 296q63 0 106.5 35t75.5 95t56 139.5t47 168.5l336 -63q-9 -37 -19.5 -82.5t-19 -91t-14 -89t-5 -77t9 -54.5t27.5 -22q36 2 64.5 25.5t51 60.5t39.5 85t29.5 100t22 104t17.5 98l300 -50q-3 -32 -9 -77t-10 -93t-3.5 -95t9.5 -84.5t29.5 -60.5t57.5 -23q53 0 83 20
t43 54.5t11 79t-13 93t-29 98t-36.5 93.5t-36 79.5t-27.5 55.5l296 165q27 -59 57 -133.5t54.5 -156.5t41 -166.5t16.5 -163.5q0 -109 -29 -196.5t-88 -149t-149 -95t-212 -34.5q-50 0 -95 15.5t-82.5 39t-66 51.5t-44.5 53q-19 -29 -47 -57t-64.5 -50.5t-82 -36.5
t-99.5 -15q-47 -1 -90 12t-78.5 34.5t-62.5 49.5t-42 57q-15 -30 -43 -56t-67.5 -44.5t-90 -29.5t-109.5 -11h-36v396h20zM918 1201l-188 -188l-194 193l192 193l190 -190l188 188l194 -193l-192 -193zM1097 1493l-178 -178l-179 179l178 178z" />
    <glyph glyph-name="uni0634.medi" unicode="&#x634;" horiz-adv-x="1851" arabic-form="medial" 
d="M1180 -112q-50 0 -95 15.5t-82.5 39t-66 51.5t-44.5 53q-19 -29 -47 -57t-64.5 -50.5t-82 -36.5t-99.5 -15q-47 -1 -90 12t-78.5 34.5t-62.5 49.5t-42 57q-15 -30 -43 -56t-67.5 -44.5t-90 -29.5t-109.5 -11h-36v396h20q63 0 106.5 35t75.5 95t56 139.5t47 168.5l336 -63
q-9 -37 -19.5 -82.5t-19 -91t-14 -89t-5 -77t9 -54.5t27.5 -22q36 2 64.5 23t51 55.5t39.5 78.5t29.5 92.5t22 98.5t17.5 96l300 -21q-3 -32 -9 -76t-10 -90.5t-3.5 -92t9.5 -81t29.5 -57.5t57.5 -22q32 2 55.5 25t39.5 59.5t25.5 81.5t13.5 91t4 88.5t-3 73.5l326 49
q8 -119 23 -201.5t37.5 -133.5t52 -73.5t67.5 -22.5h32v-396h-32q-95 0 -180 29.5t-153 98.5q-30 -30 -64.5 -55.5t-75 -44t-87 -29.5t-99.5 -11zM998 1108l-188 -188l-194 193l192 193l190 -190l188 188l194 -193l-192 -193zM1177 1400l-178 -178l-179 179l178 178z" />
    <glyph glyph-name="uni0635.fina" unicode="&#x635;" horiz-adv-x="2934" arabic-form="final" 
d="M820 -749q-106 0 -206.5 19t-189.5 57t-163 95t-127.5 134t-83.5 173.5t-30 212.5q0 103 25.5 210.5t62.5 207t77 184.5t70 143l294 -210q-13 -23 -31.5 -59.5t-37.5 -80.5t-38 -94t-34 -102t-24 -103.5t-9 -97.5q0 -80 39 -135.5t101.5 -90t140 -49.5t154.5 -15
q89 0 171.5 26.5t145.5 77t101 124.5t38 169q0 68 -16 135.5t-40.5 133.5t-55 132t-60.5 131l347 189q41 -104 75 -181t54 -130q58 84 138 168t180.5 151.5t220.5 110t258 42.5q101 0 196.5 -31.5t169.5 -90t118.5 -143t44.5 -189.5q0 -49 -8 -93.5t-22 -85.5h88v-396h-76
q-92 0 -167.5 24t-134.5 58q-110 -59 -238.5 -87.5t-256.5 -28.5q-120 0 -234.5 20.5t-226.5 66.5q-13 -154 -77 -283t-169 -222t-246 -145t-308 -52zM2385 544q-144 0 -289 -70.5t-281 -216.5q65 -14 141.5 -21t154.5 -4.5t154.5 15.5t142 39t115.5 67.5t77 100.5
q-30 42 -89 66t-126 24z" />
    <glyph glyph-name="uni0635.init" unicode="&#x635;" horiz-adv-x="1944" arabic-form="initial" 
d="M0 296q43 0 74 9.5t52.5 22.5t34 26t18.5 21q12 19 23 41t25 61.5t31.5 105t43.5 170.5l320 -109q-7 -27 -14.5 -59.5t-14.5 -65.5t-11.5 -64.5t-4.5 -55.5q41 64 91.5 129.5t110 126t127.5 114t144 93t159 62.5t174 23q132 1 233 -39t168 -107.5t99.5 -155t28.5 -180.5
q-6 -115 -51.5 -203.5t-117 -153.5t-164.5 -109t-194.5 -70.5t-207 -37.5t-201.5 -11q-63 0 -138 7t-151.5 26t-148.5 52t-128 85q-60 -78 -165.5 -113.5t-235.5 -36.5h-29v396h20zM1621 488q-45 45 -109 61t-136.5 9t-148 -34t-144.5 -67t-126 -89t-91 -101
q55 -6 126.5 -7.5t149 4t155 20t143 41t113.5 66.5t68 97z" />
    <glyph glyph-name="uni0635.medi" unicode="&#x635;" horiz-adv-x="1953" arabic-form="medial" 
d="M0 296q43 0 74 9.5t52.5 22.5t34 26t18.5 21q12 19 23 41t25 61.5t31.5 105t43.5 170.5l320 -109q-7 -27 -14.5 -59.5t-14.5 -65.5t-11.5 -64.5t-4.5 -55.5q41 64 91.5 129.5t110 126t127.5 114t144 93t159 62.5t174 23q132 1 233 -39t168 -107.5t99.5 -155t28.5 -180.5
q-3 -48 -12.5 -89.5t-24.5 -79.5h98v-396h-333q-41 0 -75.5 1t-67 3.5t-63 7.5t-62.5 14q-100 -25 -201 -35.5t-195 -10.5q-63 0 -138 7t-151.5 26t-148.5 52t-128 85q-60 -78 -165.5 -113.5t-235.5 -36.5h-29v396h20zM1621 488q-45 45 -109 61t-136 9t-147.5 -34t-144 -67
t-125.5 -89t-91 -101q55 -6 126.5 -7.5t148.5 4t154 20t142.5 41t113.5 66.5t68 97z" />
    <glyph glyph-name="uni0636.fina" unicode="&#x636;" horiz-adv-x="2934" arabic-form="final" 
d="M820 -749q-106 0 -206.5 19t-189.5 57t-163 95t-127.5 134t-83.5 173.5t-30 212.5q0 103 25.5 210.5t62.5 207t77 184.5t70 143l294 -210q-13 -23 -31.5 -59.5t-37.5 -80.5t-38 -94t-34 -102t-24 -103.5t-9 -97.5q0 -80 39 -135.5t101.5 -90t140 -49.5t154.5 -15
q89 0 171.5 26.5t145.5 77t101 124.5t38 169q0 68 -16 135.5t-40.5 133.5t-55 132t-60.5 131l347 189q41 -104 75 -181t54 -130q58 84 138 168t180.5 151.5t220.5 110t258 42.5q101 0 196.5 -31.5t169.5 -90t118.5 -143t44.5 -189.5q0 -49 -8 -93.5t-22 -85.5h88v-396h-76
q-92 0 -167.5 24t-134.5 58q-110 -59 -238.5 -87.5t-256.5 -28.5q-120 0 -234.5 20.5t-226.5 66.5q-13 -154 -77 -283t-169 -222t-246 -145t-308 -52zM2385 544q-144 0 -289 -70.5t-281 -216.5q65 -14 141.5 -21t154.5 -4.5t154.5 15.5t142 39t115.5 67.5t77 100.5
q-30 42 -89 66t-126 24zM2306 1065l-222 222l222 222l222 -222z" />
    <glyph glyph-name="uni0636.init" unicode="&#x636;" horiz-adv-x="1938" arabic-form="initial" 
d="M0 296q43 0 74 9.5t52.5 22.5t34 26t18.5 21q12 19 23 41t25 61.5t31.5 105t43.5 170.5l320 -109q-7 -27 -14.5 -59.5t-14.5 -65.5t-11.5 -64.5t-4.5 -55.5q41 64 91.5 129.5t110 126t127.5 114t144 93t159 62.5t174 23q132 1 233 -39t168 -107.5t99.5 -155t28.5 -180.5
q-6 -115 -51.5 -203.5t-117 -153.5t-164.5 -109t-194.5 -70.5t-207 -37.5t-201.5 -11q-63 0 -138 7t-151.5 26t-148.5 52t-128 85q-60 -78 -165.5 -113.5t-235.5 -36.5h-29v396h20zM1621 488q-45 45 -109 61t-136.5 9t-148 -34t-144.5 -67t-126 -89t-91 -101
q55 -6 126.5 -7.5t149 4t155 20t143 41t113.5 66.5t68 97zM1379 1065l-222 222l222 222l222 -222z" />
    <glyph glyph-name="uni0636.medi" unicode="&#x636;" horiz-adv-x="1953" arabic-form="medial" 
d="M0 296q43 0 74 9.5t52.5 22.5t34 26t18.5 21q12 19 23 41t25 61.5t31.5 105t43.5 170.5l320 -109q-7 -27 -14.5 -59.5t-14.5 -65.5t-11.5 -64.5t-4.5 -55.5q41 64 91.5 129.5t110 126t127.5 114t144 93t159 62.5t174 23q132 1 233 -39t168 -107.5t99.5 -155t28.5 -180.5
q-3 -48 -12.5 -89.5t-24.5 -79.5h98v-396h-333q-41 0 -75.5 1t-67 3.5t-63 7.5t-62.5 14q-100 -25 -201 -35.5t-195 -10.5q-63 0 -138 7t-151.5 26t-148.5 52t-128 85q-60 -78 -165.5 -113.5t-235.5 -36.5h-29v396h20zM1621 488q-45 45 -109 61t-136 9t-147.5 -34t-144 -67
t-125.5 -89t-91 -101q55 -6 126.5 -7.5t148.5 4t154 20t142.5 41t113.5 66.5t68 97zM1370 1065l-222 222l222 222l222 -222z" />
    <glyph glyph-name="uni0637.fina" unicode="&#x637;" horiz-adv-x="1867" arabic-form="final" 
d="M866 -100q-115 0 -224 7.5t-215 27t-209.5 53.5t-208.5 87l142 366q42 -16 75.5 -28t61.5 -21.5t52.5 -17t48.5 -14.5q5 7 11 15l15 20t21.5 28.5t30.5 40.5q14 70 20.5 155t6 176t-6 185.5t-15 185t-22 173t-25.5 150.5l398 106q15 -88 27.5 -187t18.5 -200t3.5 -198.5
t-16.5 -182.5q41 33 88 62.5t100.5 52.5t113.5 36.5t128 15.5q86 2 170.5 -18t153 -65.5t115.5 -117t58 -171.5q1 -97 -19.5 -177.5t-57.5 -148.5h181l-1 -396h-302q-35 0 -74 1t-85.5 5.5t-102.5 13t-123 23.5q-85 -23 -169.5 -33t-163.5 -10zM1483 560q-45 47 -108.5 62.5
t-135 6t-146.5 -41t-145 -79.5t-129.5 -110t-98.5 -132q86 -7 175 -2t173.5 21t159 42.5t130.5 61.5t89.5 78t35.5 93z" />
    <glyph glyph-name="uni0637.init" unicode="&#x637;" horiz-adv-x="1576" arabic-form="initial" 
d="M-20 -100v396h140q22 32 47 69t54 74q14 70 21.5 156.5t9.5 180.5t-1 192t-10.5 191t-18.5 177.5t-24 152.5l398 106q15 -88 27.5 -187t18.5 -200t3.5 -198.5t-16.5 -182.5q41 33 88 62.5t100.5 52.5t113.5 36.5t128 15.5q86 2 170.5 -18t153 -65.5t115.5 -117t58 -171.5
q1 -137 -39.5 -244t-110 -187t-162 -135.5t-195 -90t-208.5 -50t-202 -15.5h-659zM1256 560q-45 47 -108.5 62.5t-135 6t-146.5 -41t-145 -79.5t-129.5 -110t-98.5 -132q86 -7 175 -2t173.5 21t159 42.5t130.5 61.5t89.5 78t35.5 93z" />
    <glyph glyph-name="uni0637.medi" unicode="&#x637;" horiz-adv-x="1583" arabic-form="medial" 
d="M-20 -100v396h140q22 32 47 69t54 74q14 70 21.5 156.5t9.5 180.5t-1 192t-10.5 191t-18.5 177.5t-24 152.5l398 106q15 -88 27.5 -187t18.5 -200t3.5 -198.5t-16.5 -182.5q41 33 88 62.5t100.5 52.5t113.5 36.5t128 15.5q86 2 170.5 -18t153 -65.5t115.5 -117t58 -171.5
q1 -97 -19.5 -177.5t-57.5 -148.5h124l-1 -396h-265q-33 0 -71 1t-83 5t-98.5 12.5t-118.5 22.5q-84 -22 -167 -31.5t-160 -9.5h-659zM1256 560q-45 47 -108.5 62.5t-135 6t-146.5 -41t-145 -79.5t-129.5 -110t-98.5 -132q86 -7 175 -2t173.5 21t159 42.5t130.5 61.5
t89.5 78t35.5 93z" />
    <glyph glyph-name="uni0638.fina" unicode="&#x638;" horiz-adv-x="1867" arabic-form="final" 
d="M866 -100q-115 0 -224 7.5t-215 27t-209.5 53.5t-208.5 87l142 366q42 -16 75.5 -28t61.5 -21.5t52.5 -17t48.5 -14.5q5 7 11 15l15 20t21.5 28.5t30.5 40.5q14 70 20.5 155t6 176t-6 185.5t-15 185t-22 173t-25.5 150.5l398 106q15 -88 27.5 -187t18.5 -200t3.5 -198.5
t-16.5 -182.5q41 33 88 62.5t100.5 52.5t113.5 36.5t128 15.5q86 2 170.5 -18t153 -65.5t115.5 -117t58 -171.5q1 -97 -19.5 -177.5t-57.5 -148.5h181l-1 -396h-302q-35 0 -74 1t-85.5 5.5t-102.5 13t-123 23.5q-85 -23 -169.5 -33t-163.5 -10zM1483 560q-45 47 -108.5 62.5
t-135 6t-146.5 -41t-145 -79.5t-129.5 -110t-98.5 -132q86 -7 175 -2t173.5 21t159 42.5t130.5 61.5t89.5 78t35.5 93zM1321 1212l-222 222l222 222l222 -222z" />
    <glyph glyph-name="uni0638.init" unicode="&#x638;" horiz-adv-x="1578" arabic-form="initial" 
d="M-20 -100v396h140q22 32 47 69t54 74q14 70 21.5 156.5t9.5 180.5t-1 192t-10.5 191t-18.5 177.5t-24 152.5l398 106q15 -88 27.5 -187t18.5 -200t3.5 -198.5t-16.5 -182.5q41 33 88 62.5t100.5 52.5t113.5 36.5t128 15.5q86 2 170.5 -18t153 -65.5t115.5 -117t58 -171.5
q1 -137 -39.5 -244t-110 -187t-162 -135.5t-195 -90t-208.5 -50t-202 -15.5h-659zM1256 560q-45 47 -108.5 62.5t-135 6t-146.5 -41t-145 -79.5t-129.5 -110t-98.5 -132q86 -7 175 -2t173.5 21t159 42.5t130.5 61.5t89.5 78t35.5 93zM1088 1212l-222 222l222 222l222 -222z
" />
    <glyph glyph-name="uni0638.medi" unicode="&#x638;" horiz-adv-x="1583" arabic-form="medial" 
d="M-20 -100v396h140q22 32 47 69t54 74q14 70 21.5 156.5t9.5 180.5t-1 192t-10.5 191t-18.5 177.5t-24 152.5l398 106q15 -88 27.5 -187t18.5 -200t3.5 -198.5t-16.5 -182.5q41 33 88 62.5t100.5 52.5t113.5 36.5t128 15.5q86 2 170.5 -18t153 -65.5t115.5 -117t58 -171.5
q1 -97 -19.5 -177.5t-57.5 -148.5h124l-1 -396h-265q-33 0 -71 1t-83 5t-98.5 12.5t-118.5 22.5q-84 -22 -167 -31.5t-160 -9.5h-659zM1256 560q-45 47 -108.5 62.5t-135 6t-146.5 -41t-145 -79.5t-129.5 -110t-98.5 -132q86 -7 175 -2t173.5 21t159 42.5t130.5 61.5
t89.5 78t35.5 93zM1088 1212l-222 222l222 222l222 -222z" />
    <glyph glyph-name="uni0639.fina" unicode="&#x639;" horiz-adv-x="1417" arabic-form="final" 
d="M351 -218q0 -47 21 -86.5t56.5 -70.5t82 -54t97.5 -38.5t103.5 -23t99.5 -7.5q101 0 206.5 35.5t205.5 97.5l196 -315q-64 -48 -143.5 -87.5t-163.5 -68t-168 -44t-157 -13.5q-68 1 -151.5 15.5t-169 46.5t-167 83t-145.5 125.5t-104 174.5t-44 230q0 99 31 190t85 170.5
t127.5 145.5t157.5 117q-44 38 -89 75t-92 79l-24 261q93 74 173.5 122t159.5 76t161.5 39t177.5 11q58 0 118.5 -10t118 -30.5t108.5 -51.5t89 -73.5t59.5 -96.5t20.5 -120q-2 -59 -18 -108.5t-45.5 -92t-70 -80t-89.5 -71.5q51 -18 103.5 -28t113.5 -10h55v-396l-55 -1
q-95 0 -176 16.5t-159.5 47t-155 72.5t-152.5 93q-42 -18 -87.5 -39t-88.5 -45.5t-81.5 -53t-67.5 -61t-46 -69.5t-17 -78zM875 746q-38 1 -79.5 -3.5t-81.5 -12t-76.5 -17t-64.5 -19.5q15 -16 40.5 -39.5t55 -48t59.5 -47t54 -36.5q44 15 90 39t86 51t69 53t40 45
q-11 5 -32 11t-47 11t-55.5 9t-57.5 4z" />
    <glyph glyph-name="uni0639.init" unicode="&#x639;" horiz-adv-x="1138" arabic-form="initial" 
d="M907 565q-70 32 -135.5 55t-132.5 23q-39 0 -79.5 -11.5t-74 -32t-54.5 -49.5t-21 -64q0 -38 21 -67.5t57.5 -49.5t86.5 -29q34 -6 48 -6h15q28 0 46 1q82 8 173 22.5t184 33.5l51 -389q-76 -19 -177.5 -37t-223 -32.5t-260.5 -23.5t-292 -9h-159v396l136 1
q-12 18 -23 42t-19 51t-12 56t-4 58q1 95 42.5 187t112.5 166t167 122.5t205 56.5q15 2 30.5 2h30.5q64 0 120 -12.5t106.5 -34.5t98 -52.5t96.5 -66.5z" />
    <glyph glyph-name="uni0639.medi" unicode="&#x639;" horiz-adv-x="1235" arabic-form="medial" 
d="M1255 296v-396q-132 -1 -201.5 1t-136.5 13.5t-134.5 36.5t-140.5 70q-71 -45 -147 -70t-153.5 -36t-154.5 -13t-149 -2h-58v396h58q24 0 53 1t59 3t59 5t53 7l-232 229l18 248q85 67 162 108.5t150 64.5t144.5 31t144.5 8q40 0 83 -4.5t85 -12.5t82 -20t76 -27
q64 -30 107 -67.5t69.5 -76.5t38 -75.5t13.5 -62.5v-6q0 -39 -13 -79q-14 -43 -39.5 -87.5t-59 -89t-70.5 -89.5q16 -2 39 -3.5t48 -2.5t49.5 -1.5t43.5 -0.5h54zM649 667q-79 0 -133 -15t-88 -27q21 -23 48 -49.5t56 -52t59 -49.5t56 -43q22 17 51.5 41.5t58.5 52t54.5 55
t40.5 50.5q-14 6 -35.5 13t-48.5 12t-57.5 8.5t-61.5 3.5z" />
    <glyph glyph-name="uni063A.fina" unicode="&#x63a;" horiz-adv-x="1417" arabic-form="final" 
d="M351 -218q0 -47 21 -86.5t56.5 -70.5t82 -54t97.5 -38.5t103.5 -23t99.5 -7.5q101 0 206.5 35.5t205.5 97.5l196 -315q-64 -48 -143.5 -87.5t-163.5 -68t-168 -44t-157 -13.5q-68 1 -151.5 15.5t-169 46.5t-167 83t-145.5 125.5t-104 174.5t-44 230q0 99 31 190t85 170.5
t127.5 145.5t157.5 117q-44 38 -89 75t-92 79l-24 261q93 74 173.5 122t159.5 76t161.5 39t177.5 11q58 0 118.5 -10t118 -30.5t108.5 -51.5t89 -73.5t59.5 -96.5t20.5 -120q-2 -59 -18 -108.5t-45.5 -92t-70 -80t-89.5 -71.5q51 -18 103.5 -28t113.5 -10h55v-396l-55 -1
q-95 0 -176 16.5t-159.5 47t-155 72.5t-152.5 93q-42 -18 -87.5 -39t-88.5 -45.5t-81.5 -53t-67.5 -61t-46 -69.5t-17 -78zM875 746q-38 1 -79.5 -3.5t-81.5 -12t-76.5 -17t-64.5 -19.5q15 -16 40.5 -39.5t55 -48t59.5 -47t54 -36.5q44 15 90 39t86 51t69 53t40 45
q-11 5 -32 11t-47 11t-55.5 9t-57.5 4zM798 1209l-222 222l222 222l222 -222z" />
    <glyph glyph-name="uni063A.init" unicode="&#x63a;" horiz-adv-x="1112" arabic-form="initial" 
d="M907 565q-70 32 -135.5 55t-132.5 23q-39 0 -79.5 -11.5t-74 -32t-54.5 -49.5t-21 -64q0 -38 21 -67.5t57.5 -49.5t86.5 -29q34 -6 48 -6h15q28 0 46 1q82 8 173 22.5t184 33.5l51 -389q-76 -19 -177.5 -37t-223 -32.5t-260.5 -23.5t-292 -9h-159v396l136 1
q-12 18 -23 42t-19 51t-12 56t-4 58q1 95 42.5 187t112.5 166t167 122.5t205 56.5q15 2 30.5 2h30.5q64 0 120 -12.5t106.5 -34.5t98 -52.5t96.5 -66.5zM592 1120l-222 222l222 222l222 -222z" />
    <glyph glyph-name="uni063A.medi" unicode="&#x63a;" horiz-adv-x="1235" arabic-form="medial" 
d="M1255 296v-396q-132 -1 -201.5 1t-136.5 13.5t-134.5 36.5t-140.5 70q-71 -45 -147 -70t-153.5 -36t-154.5 -13t-149 -2h-58v396h58q24 0 53 1t59 3t59 5t53 7l-232 229l18 248q85 67 162 108.5t150 64.5t144.5 31t144.5 8q40 0 83 -4.5t85 -12.5t82 -20t76 -27
q64 -30 107 -67.5t69.5 -76.5t38 -75.5t13.5 -62.5v-6q0 -39 -13 -79q-14 -43 -39.5 -87.5t-59 -89t-70.5 -89.5q16 -2 39 -3.5t48 -2.5t49.5 -1.5t43.5 -0.5h54zM649 667q-79 0 -133 -15t-88 -27q21 -23 48 -49.5t56 -52t59 -49.5t56 -43q22 17 51.5 41.5t58.5 52t54.5 55
t40.5 50.5q-14 6 -35.5 13t-48.5 12t-57.5 8.5t-61.5 3.5zM619 1119l-222 222l222 222l222 -222z" />
    <glyph glyph-name="uni0641.fina" unicode="&#x641;" horiz-adv-x="2106" arabic-form="final" 
d="M1028 -100q-176 0 -326.5 20t-269.5 61t-205 104.5t-134 149.5q-45 81 -60 160.5t-5.5 162t40.5 170.5t78 185l307 -178q-17 -35 -32 -77.5t-23.5 -84.5t-8 -78.5t14.5 -60.5q26 -49 87.5 -78t160 -43.5t236 -15.5t315.5 6q-26 38 -42 92t-19 115q-2 64 13.5 129
t46.5 124.5t74.5 110.5t97.5 88t115.5 57.5t128.5 18.5q63 -3 121 -24.5t108 -56.5t90.5 -83t69 -103t44 -116.5t15.5 -124.5q0 -60 -16.5 -117t-42.5 -111q18 -2 44 -4t55 -2h20v-396h-39q-65 0 -125 3t-117.5 12.5t-113 26.5t-110.5 45q-38 -25 -96.5 -41.5t-134.5 -26.5
t-167 -14.5t-195 -4.5zM1749 500q0 35 -15 64.5t-37 52.5t-45.5 38.5t-40.5 21.5q-19 -6 -45.5 -21.5t-50.5 -39t-41 -53.5t-17 -63q0 -27 14.5 -53t37.5 -48.5t50 -40.5t53 -28q24 10 48.5 26.5t44 38t32 48t12.5 57.5zM1627 1157l-222 222l222 222l222 -222z" />
    <glyph glyph-name="uni0641.init" unicode="&#x641;" horiz-adv-x="943" arabic-form="initial" 
d="M15 296h55.5t88 1t106 2.5t109.5 4t98 7t73 10.5q-113 3 -209.5 20.5t-166.5 58.5t-109.5 108.5t-39.5 169.5q0 59 12 121t36 120.5t59 110.5t80 91t100.5 62t120.5 23q78 0 144.5 -30.5t121 -83t96.5 -121.5t70.5 -146.5t43.5 -159t15 -157.5q0 -141 -33 -240.5
t-93.5 -167t-144 -107.5t-184 -60.5t-214.5 -26.5t-234 -6h-36v396h35zM424 871q-32 3 -57 -11.5t-42.5 -38t-26.5 -51.5t-9 -52q0 -11 17 -22.5t44.5 -21.5t62 -18.5t68.5 -13t65 -4.5t51 6q-9 35 -26.5 74t-40.5 72t-50.5 56t-55.5 25zM420 1287l-222 222l222 222
l222 -222z" />
    <glyph glyph-name="uni0641.medi" unicode="&#x641;" horiz-adv-x="1001" arabic-form="medial" 
d="M-20 296h33l85 7q-26 38 -42 92t-19 115q-2 64 13.5 129t46.5 124.5t74.5 110.5t97.5 88t115.5 57.5t128.5 18.5q63 -3 121 -24.5t108 -56.5t90.5 -83t69 -103t44 -116.5t15.5 -124.5q0 -60 -16.5 -117t-42.5 -111q18 -2 44 -4t55 -2h20v-396h-39q-65 0 -125 3
t-117.5 12.5t-113 26.5t-110.5 45q-38 -25 -95 -41.5t-124 -26.5t-138.5 -14.5t-139.5 -4.5h-39v396zM644 500q0 35 -15 64.5t-37 52.5t-45.5 38.5t-40.5 21.5q-19 -6 -45.5 -21.5t-50.5 -39t-41 -53.5t-17 -63q0 -27 14.5 -53t37.5 -48.5t50 -40.5t53 -28q24 10 48.5 26.5
t44 38t32 48t12.5 57.5zM493 1138l-222 222l222 222l222 -222z" />
    <glyph glyph-name="uni0642.fina" unicode="&#x642;" horiz-adv-x="1664" arabic-form="final" 
d="M817 -360q72 0 137.5 20.5t121.5 55.5t100.5 82.5t73.5 101.5q-154 4 -265.5 29t-185 77.5t-110.5 136.5t-41 206q0 58 12 125t36.5 133t60.5 127t84 107.5t107.5 74t130.5 27.5q82 0 150.5 -27t124 -73.5t99 -109t75.5 -134.5t52.5 -149.5t31.5 -153.5h72v-396h-88
q-33 -147 -105 -268t-174 -207.5t-230 -134.5t-274 -48q-107 0 -207.5 24.5t-189 70.5t-162.5 112t-127 150t-82.5 184t-29.5 213q0 73 7.5 142.5t24 139.5t43.5 143.5t66 154.5l323 -136q-39 -75 -62 -137t-35 -116t-15.5 -100.5t-3.5 -89.5q0 -80 38.5 -146t102 -113.5
t145.5 -73t168 -24.5zM1088 570q-29 0 -54 -19t-43.5 -47.5t-29 -61t-10.5 -60.5q0 -19 17.5 -33t46.5 -23.5t66 -15.5t75.5 -9t75 -4t65.5 -1q-5 46 -22.5 95t-45 88.5t-63.5 65t-78 25.5zM1090 1236l-188 -188l-194 193l192 193l190 -190l188 188l194 -193l-192 -193z" />
    <glyph glyph-name="uni0642.init" unicode="&#x642;" horiz-adv-x="943" arabic-form="initial" 
d="M15 296h55.5t88 1t106 2.5t109.5 4t98 7t73 10.5q-113 3 -209.5 20.5t-166.5 58.5t-109.5 108.5t-39.5 169.5q0 59 12 121t36 120.5t59 110.5t80 91t100.5 62t120.5 23q78 0 144.5 -30.5t121 -83t96.5 -121.5t70.5 -146.5t43.5 -159t15 -157.5q0 -141 -33 -240.5
t-93.5 -167t-144 -107.5t-184 -60.5t-214.5 -26.5t-234 -6h-36v396h35zM424 871q-32 3 -57 -11.5t-42.5 -38t-26.5 -51.5t-9 -52q0 -11 17 -22.5t44.5 -21.5t62 -18.5t68.5 -13t65 -4.5t51 6q-9 35 -26.5 74t-40.5 72t-50.5 56t-55.5 25zM422 1475l-188 -188l-194 193
l192 193l190 -190l188 188l194 -193l-192 -193z" />
    <glyph glyph-name="uni0642.medi" unicode="&#x642;" horiz-adv-x="1001" arabic-form="medial" 
d="M-20 296h33l85 7q-26 38 -42 92t-19 115q-2 64 13.5 129t46.5 124.5t74.5 110.5t97.5 88t115.5 57.5t128.5 18.5q63 -3 121 -24.5t108 -56.5t90.5 -83t69 -103t44 -116.5t15.5 -124.5q0 -60 -16.5 -117t-42.5 -111q18 -2 44 -4t55 -2h20v-396h-39q-65 0 -125 3
t-117.5 12.5t-113 26.5t-110.5 45q-38 -25 -95 -41.5t-124 -26.5t-138.5 -14.5t-139.5 -4.5h-39v396zM644 500q0 35 -15 64.5t-37 52.5t-45.5 38.5t-40.5 21.5q-19 -6 -45.5 -21.5t-50.5 -39t-41 -53.5t-17 -63q0 -27 14.5 -53t37.5 -48.5t50 -40.5t53 -28q24 10 48.5 26.5
t44 38t32 48t12.5 57.5zM494 1308l-188 -188l-194 193l192 193l190 -190l188 188l194 -193l-192 -193z" />
    <glyph glyph-name="uni0643.fina" unicode="&#x643;" horiz-adv-x="2076" arabic-form="final" 
d="M1144 893q-24 4 -47.5 7t-49.5 3t-53 -9.5t-48 -25.5t-31 -38t-1 -47q7 -16 23.5 -30t39 -23t49 -10.5t52.5 7.5q45 15 86.5 40.5t89.5 59.5l62 -146q-18 -11 -35 -22t-40.5 -25.5t-57 -34t-83.5 -48t-120 -67t-166 -90.5l-51 145l129 76q-29 21 -51.5 49t-36.5 60
q-20 41 -17.5 87.5t22 89t53.5 77.5t77 53q60 25 122 20.5t128 -20.5zM1987 402q7 -47 31.5 -76.5t53.5 -29.5h24v-396h-28q-113 2 -201 37t-143 107q-57 -40 -127 -69t-158.5 -48t-197 -28.5t-240.5 -9.5q-188 0 -342 24.5t-269 66.5q-80 30 -150 77.5t-122.5 110.5
t-83 141t-30.5 171q0 99 36 198.5t93 201.5l297 -224q-32 -54 -52 -98t-20 -82q0 -59 52 -95.5t140 -57t204.5 -28t246.5 -7.5h35q66 0 131.5 1.5t125 8.5t111 21.5t89.5 39.5t59.5 63t21.5 93q0 56 12 987l390 89q-5 -563 -5 -687v-126q0 -245 3 -271q6 -58 13 -105z" />
    <glyph glyph-name="uni0643.init" unicode="&#x643;" horiz-adv-x="1023" arabic-form="initial" 
d="M-21 296h89q47 0 96.5 0.5t96 5t88 13t72.5 25t49 41.5t18 62q0 38 -18.5 79.5t-51.5 86.5t-77.5 92t-96.5 96t-108.5 99.5t-113.5 102.5l36 322l841 371l154 -341l-601 -279q71 -58 139.5 -132t122 -158t86.5 -173.5t33 -179.5q0 -125 -42 -223t-115.5 -166t-173.5 -104
t-216 -36h-307v396z" />
    <glyph glyph-name="uni0643.medi" unicode="&#x643;" horiz-adv-x="1188" arabic-form="medial" 
d="M-20 296h282q65 0 104 13t60 32t27.5 41t6.5 40q0 28 -18 67.5t-48.5 86.5t-70.5 99t-83 104t-86 101.5t-81 92.5l40 341l919 388l147 -349l-728 -300q95 -97 160.5 -190.5t114.5 -177.5t89 -155.5t84 -123.5t99.5 -81t136.5 -29h73v-396h-31q-134 0 -248.5 38.5
t-208.5 123.5q-40 -44 -88 -74.5t-100.5 -49.5t-107 -28t-108.5 -10h-336v396z" />
    <glyph glyph-name="uni0644.fina" unicode="&#x644;" horiz-adv-x="1563" arabic-form="final" 
d="M450 277q-20 -37 -37 -77.5t-29 -82.5t-18 -86t-4 -89q3 -62 32.5 -116.5t76 -96t104.5 -65.5t119 -24q42 0 89 8.5t93.5 26.5t89 45.5t75 66.5t52 89t19.5 113q0 79 -5.5 187.5t-14 239.5t-20 281.5t-23.5 313.5q-4 54 -9 115t-10 124.5t-10.5 127t-10.5 123.5l399 93
l8 -216v1q5 -112 9 -219t8 -215q5 -125 9 -256t8 -257q4 -25 12.5 -49.5t22 -43.5t33 -31t45.5 -12h20v-396h-20q-25 0 -51.5 3.5t-55.5 14.5q-8 -126 -46 -225t-97 -174t-133.5 -127.5t-156.5 -85t-167.5 -47.5t-164.5 -15q-72 0 -151.5 16.5t-155.5 51.5t-144.5 89.5
t-120 129.5t-81 171.5t-27.5 216.5q2 126 20 219.5t40 159.5q11 32 25.5 65t32.5 68z" />
    <glyph glyph-name="uni0644.init" unicode="&#x644;" horiz-adv-x="587" arabic-form="initial" 
d="M-20 296h58q157 0 154 181q0 9 -3 47t-8.5 96.5t-12 132.5t-14 155t-15.5 164.5t-15 160.5t-13.5 143t-10.5 113l388 97q3 -32 9 -113t14 -218.5t17.5 -336t19.5 -464.5q0 -8 0.5 -14.5t0.5 -14.5q0 -116 -32 -212.5t-95.5 -166t-159.5 -108t-224 -38.5h-58v396z" />
    <glyph glyph-name="uni0644.medi" unicode="&#x644;" horiz-adv-x="649" arabic-form="medial" 
d="M-20 296h65q50 1 76.5 23t38 59t13 85.5t1.5 101.5q0 69 -1 150t-3 168.5t-4.5 176.5t-5 172.5t-5.5 158t-5 132.5l400 72l12 -1206q0 -44 21.5 -68.5t63.5 -24.5h22v-396h-21q-38 -1 -77 6t-75 21t-67 34t-54 45q-42 -48 -124.5 -77t-207.5 -29h-63v396z" />
    <glyph glyph-name="uni0645.fina" unicode="&#x645;" horiz-adv-x="1276" arabic-form="final" 
d="M46 -803l-36 992q-4 58 17.5 116t64 103.5t103.5 73.5t136 25q32 75 77 149t102.5 132.5t127 94.5t149.5 36q86 0 159 -36.5t130 -99.5t96 -147.5t58 -180.5q6 -33 9.5 -52t6.5 -34t5.5 -30.5t7.5 -42.5h33v-396h-41q-60 2 -103.5 19t-81.5 58q-29 -20 -63 -35t-74 -15
q-47 0 -114.5 16.5t-143 42t-153 57t-144.5 60.5q2 -33 5 -70t7.5 -84.5t10 -109.5t12 -145t14 -190t15.5 -245zM781 555q-30 4 -55.5 -9t-46 -35t-36.5 -48.5t-27 -47.5q28 -15 69.5 -32.5t86 -33.5t87 -29t73.5 -18q-5 54 -20 98.5t-36 77.5t-46 53t-49 24z" />
    <glyph glyph-name="uni0645.init" unicode="&#x645;" horiz-adv-x="1195" arabic-form="initial" 
d="M944 -85q-35 -14 -81.5 -13.5t-98 11.5t-105 29.5t-104 40.5t-94 44.5t-74.5 40.5q-29 -41 -68 -72.5t-85 -52.5t-98.5 -32t-107.5 -11h-48v396h48q47 0 82 12t61.5 34.5t47.5 54.5t40 72q22 45 47.5 95.5t57 100t68.5 94t81.5 78.5t97.5 54t115 20q86 0 156.5 -36.5
t124 -97.5t89.5 -140.5t53 -165.5t14 -173t-28 -162t-72.5 -133.5t-118.5 -87.5zM717 554q-23 0 -44.5 -18.5t-41.5 -46t-37 -60t-29 -60.5q22 -15 55 -32t73 -32.5t85 -26.5t92 -13q13 44 6.5 94.5t-28 94t-55.5 72t-76 28.5z" />
    <glyph glyph-name="uni0645.medi" unicode="&#x645;" horiz-adv-x="1197" arabic-form="medial" 
d="M689 548q-23 0 -44.5 -16.5t-40.5 -41t-34.5 -54.5t-27.5 -57q27 -16 66 -31t81.5 -28t84.5 -23t74 -15q-12 50 -28.5 98t-36 85.5t-43.5 60t-51 22.5zM868 -97q-50 -3 -116 9.5t-136 35t-137.5 52t-121.5 61.5q-68 -73 -155 -117t-202 -44h-21v396h21q47 0 83.5 18.5
t65 48.5t50.5 68t42 77q32 69 75 142t99.5 133t126.5 99t156 39q90 0 161.5 -37t124.5 -100t88.5 -148t54.5 -181q14 -73 17 -116t5 -43h68v-396h-37q-29 0 -56 10t-51 25t-43 33t-32 35q-12 -16 -28 -33t-33.5 -31.5t-35 -24.5t-32.5 -11h-1z" />
    <glyph glyph-name="uni0646.fina" unicode="&#x646;" horiz-adv-x="1720" arabic-form="final" 
d="M825 -789q-181 0 -329.5 46.5t-254.5 139t-164 230.5t-58 321q0 165 54.5 334t161.5 343l290 -208q-23 -37 -50 -92.5t-50 -120.5t-38.5 -133.5t-15.5 -130.5q0 -71 36 -129t94.5 -101t133 -68.5t151.5 -30.5q94 0 181 28.5t154.5 77t109.5 113.5t47 139q-3 61 -23.5 130
t-48 138t-59 135.5t-56.5 122.5l331 184q6 -12 22 -46.5t35 -76t37.5 -81.5t29.5 -63q29 -60 72 -88t90 -28h32v-396h-32q-23 0 -42 2.5t-39 8.5q-6 -89 -32 -175.5t-71 -164t-111 -144t-153 -114.5t-195.5 -75t-239.5 -27zM821 455l-222 222l222 222l222 -222z" />
    <glyph glyph-name="uni0646.init" unicode="&#x646;" horiz-adv-x="738" arabic-form="initial" 
d="M-20 296h124q36 0 81.5 4.5t85 16t67 30t27.5 46.5q0 21 -16.5 63.5t-42.5 98t-57 118.5t-61 124l358 177q30 -69 58.5 -144t50.5 -150t35.5 -148t13.5 -137q0 -131 -43 -224.5t-120 -153.5t-184.5 -88.5t-236.5 -28.5h-140v396zM299 1063l-222 222l222 222l222 -222z
" />
    <glyph glyph-name="uni0646.medi" unicode="&#x646;" horiz-adv-x="705" arabic-form="medial" 
d="M725 296v-396h-22q-94 0 -169 31.5t-114 88.5q-57 -63 -162.5 -91.5t-240.5 -28.5h-38v396h38q64 0 109.5 3t74 15t42 35t14.5 63t-9.5 99.5t-28.5 143.5l356 88q9 -38 17.5 -90.5t14.5 -108t7 -108t-5 -88.5q9 -20 21 -30.5t25 -15t25 -5.5t23 -1h22zM298 894l-222 222
l222 222l222 -222z" />
    <glyph glyph-name="uni0647.fina" unicode="&#x647;" horiz-adv-x="1090" arabic-form="final" 
d="M544 40q-106 0 -199.5 22t-163 69t-109.5 120t-40 174q0 70 24 133t63.5 118.5t90.5 102t104.5 83.5t105 64.5t92.5 44.5l-15 122l390 83q22 -196 41.5 -351.5t34.5 -264t24.5 -167.5t11.5 -63q9 -20 30 -27t59 -7h22v-396h-29q-121 0 -215.5 36t-148.5 114
q-45 -5 -88 -7.5t-85 -2.5zM331 441q2 -10 29.5 -20.5t67.5 -17t85.5 -7t82.5 9.5l-36 242q-41 -16 -83 -45t-75 -60t-53.5 -59t-17.5 -43z" />
    <glyph glyph-name="uni0647.init" unicode="&#x647;" horiz-adv-x="1540" arabic-form="initial" 
d="M-20 296l131 2q-31 61 -41 122t-4.5 119t23 110t40.5 94.5t49 73t49 45.5l-54 34l209 358q152 -80 302.5 -148.5t289.5 -132.5q71 -33 132.5 -62.5t114 -61t96.5 -66.5t82 -79q37 -48 64 -106t39.5 -120t8.5 -125.5t-29 -121.5q-58 -135 -157.5 -211.5t-227.5 -103.5
t-277.5 -9t-307.5 71q-41 -24 -99 -39t-124.5 -23.5t-137 -12t-134.5 -3.5h-37v396zM550 709q-26 -1 -58 -21.5t-59.5 -51t-45 -66.5t-14.5 -67q1 -29 16.5 -57t37.5 -51.5t47 -40.5t47 -24q30 4 62.5 16.5t60 36.5t45 60.5t17.5 88.5q0 25 -18 56.5t-43 58.5t-51.5 45
t-43.5 17zM1209 367q3 21 -6.5 41.5t-27.5 39.5t-42 36t-48 31t-46 24.5t-37 16.5q-5 -34 -14.5 -76t-23.5 -84.5t-33.5 -81.5t-43.5 -66q50 -6 103.5 -4.5t99.5 14.5t78.5 39t40.5 70z" />
    <glyph glyph-name="uni0647.medi" unicode="&#x647;" horiz-adv-x="1070" arabic-form="medial" 
d="M-20 296h69q7 70 26 151t48.5 162.5t70.5 157t93.5 133t116.5 92.5t139 35q45 0 88 -19.5t81 -53t69.5 -79t54.5 -98t36 -109.5t13 -113q0 -82 -40.5 -168t-106.5 -164.5t-148.5 -144.5t-166.5 -108q8 -15 28.5 -43.5t44.5 -60t48 -60.5t39 -45q2 63 23 127.5t56 124
t81 111t97.5 90t105.5 60.5t105 22h39v-396h-54q-36 0 -69.5 -19.5t-60 -50.5t-42 -69.5t-15.5 -76.5q0 -15 3.5 -30.5t13 -33t25.5 -39t41 -49.5l-227 -277q-119 59 -218 136t-177 162t-133.5 174t-86.5 173h-110v396zM610 524q7 21 4 46.5t-13.5 51t-26.5 49t-35 40.5
q-15 -15 -34 -42t-39.5 -61.5t-41 -74t-38 -79t-30.5 -77.5t-18 -70q43 14 87 38.5t81.5 54t65 62t38.5 62.5z" />
    <glyph glyph-name="uni0648.fina" unicode="&#x648;" horiz-adv-x="1083" arabic-form="final" 
d="M19 -418q123 26 228 61t188.5 76t143 87t91.5 94q-15 0 -33 0.5t-35.5 1.5t-33 1.5t-25.5 1.5q-107 9 -194 41t-149 88.5t-96 137.5t-34 187q0 65 16.5 134t46.5 135t71.5 124t91.5 102t106.5 69.5t116.5 25.5q72 0 136 -27t118.5 -73.5t99 -110t78.5 -136t57 -151
t35 -155.5h60v-396h-83q-42 -143 -130 -258t-208 -202.5t-266 -147.5t-304 -94zM512 571q-29 0 -54 -19t-43.5 -47.5t-29 -61t-10.5 -60.5q0 -19 17.5 -33t46.5 -23.5t66 -15.5t75.5 -9t75 -4t65.5 -1q-5 46 -22.5 95t-45 88.5t-63.5 65t-78 25.5z" />
    <glyph glyph-name="uni0649.fina" unicode="&#x649;" horiz-adv-x="1755" arabic-form="final" 
d="M873 -759q-114 0 -219.5 17t-197.5 52.5t-167.5 92t-130 135t-84 181.5t-29.5 232q0 90 8.5 173t26.5 167.5t47 173.5t70 191l331 -137q-35 -78 -61.5 -155t-43.5 -150t-25.5 -139.5t-8.5 -123.5q0 -66 22.5 -115t60 -84t86.5 -57t103 -34.5t108.5 -17.5t103.5 -5
q23 0 68 3t100 10t114 17.5t110 25.5t87.5 34t47.5 44q-72 47 -209.5 84.5t-322.5 60.5l51 379h856v-396h-124q14 -25 21.5 -56.5t7.5 -54.5q0 -96 -39 -174.5t-104 -139.5t-149 -105t-173.5 -72.5t-178.5 -42.5t-163 -14z" />
    <glyph glyph-name="uni064A.fina" unicode="&#x64a;" horiz-adv-x="1755" arabic-form="final" 
d="M873 -759q-114 0 -219.5 17t-197.5 52.5t-167.5 92t-130 135t-84 181.5t-29.5 232q0 90 8.5 173t26.5 167.5t47 173.5t70 191l331 -137q-35 -78 -61.5 -155t-43.5 -150t-25.5 -139.5t-8.5 -123.5q0 -66 22.5 -115t60 -84t86.5 -57t103 -34.5t108.5 -17.5t103.5 -5
q23 0 68 3t100 10t114 17.5t110 25.5t87.5 34t47.5 44q-72 47 -209.5 84.5t-322.5 60.5l51 379h856v-396h-124q14 -25 21.5 -56.5t7.5 -54.5q0 -96 -39 -174.5t-104 -139.5t-149 -105t-173.5 -72.5t-178.5 -42.5t-163 -14zM867 -992l-188 -188l-194 193l192 193l190 -190
l188 188l194 -193l-192 -193z" />
    <glyph glyph-name="uni064A.init" unicode="&#x64a;" horiz-adv-x="838" arabic-form="initial" 
d="M-20 296h202q24 0 55 2t63.5 6.5t64 12t56 18.5t39.5 25t15 33q0 21 -16.5 63.5t-42.5 98t-57 118.5t-61 124l358 177q30 -69 58.5 -144t50.5 -150t35.5 -148t13.5 -137q0 -131 -48 -224.5t-131 -153.5t-195.5 -88.5t-241.5 -28.5h-218v396zM378 -353l-188 -188l-194 193
l192 193l190 -190l188 188l194 -193l-192 -193z" />
    <glyph glyph-name="uni064A.medi" unicode="&#x64a;" horiz-adv-x="852" arabic-form="medial" 
d="M872 296v-396h-22q-47 0 -95 8t-91 23.5t-77.5 38t-53.5 50.5q-29 -32 -75 -54.5t-103 -37t-123 -21.5t-133 -7h-119v396h119q64 0 111.5 3t80 15t49.5 35t21.5 63t-3.5 99.5t-26 143.5l356 88q9 -38 17.5 -90.5t14.5 -108t7 -108t-5 -88.5q9 -20 26.5 -30.5t36.5 -15
t36.5 -5.5t28.5 -1h22zM382 -353l-188 -188l-194 193l192 193l190 -190l188 188l194 -193l-192 -193z" />
    <glyph glyph-name=".notdef" horiz-adv-x="1229" 
d="M102 -362v1806h1024v-1806h-1024zM217 -248h795v1577h-795v-1577z" />
    <glyph glyph-name=".null" 
 />
    <glyph glyph-name="nonmarkingreturn" horiz-adv-x="602" 
 />
    <glyph glyph-name="NULL" unicode="&#xfeff;" 
 />
    <glyph glyph-name="NULL" 
 />
    <glyph glyph-name="space" unicode=" " horiz-adv-x="696" 
 />
    <glyph glyph-name="space" unicode="&#xa0;" horiz-adv-x="696" 
 />
    <glyph glyph-name="exclam" unicode="!" horiz-adv-x="617" 
d="M173 398l-70 752v417h394v-417l-52 -752h-272zM303 290l222 -222l-222 -222l-222 222z" />
    <glyph glyph-name="quotedbl" unicode="&#x22;" horiz-adv-x="729" 
d="M286 1570l-48 -482h-210v638h258v-156zM681 1570l-49 -482h-207v638h256v-156z" />
    <glyph glyph-name="numbersign" unicode="#" horiz-adv-x="1336" 
d="M687 460h-181l-75 -460h-223l75 460h-249v206h283l49 296h-248v206h282l77 467h223l-77 -467h181l78 467h223l-77 -467h259v-206h-293l-50 -296h258v-206h-291l-75 -460h-224zM540 666h181l49 296h-180z" />
    <glyph glyph-name="dollar" unicode="$" horiz-adv-x="1332" 
d="M854 433q0 89 -44 139.5t-154 95.5t-203.5 91t-160.5 107t-103 140.5t-36 192.5q0 190 128 313t341 143v237h179v-241q205 -30 322.5 -169t117.5 -352h-380q0 117 -44.5 179.5t-128.5 62.5q-74 0 -115 -46.5t-41 -128.5q0 -83 47.5 -132t152 -93t197 -92t160 -108.5
t105.5 -141.5t38 -194q0 -192 -122 -313.5t-332 -141.5v-226h-178v227q-245 26 -376 168t-131 374h379q0 -128 56.5 -194.5t161.5 -66.5q76 0 120 45.5t44 124.5z" />
    <glyph glyph-name="percent" unicode="%" horiz-adv-x="1707" 
d="M101 1321q0 151 99 244.5t265 93.5q168 0 266 -93t98 -251v-81q0 -151 -98 -243.5t-264 -92.5q-165 0 -265.5 91.5t-100.5 251.5v80zM345 1234q0 -58 32.5 -94.5t89.5 -36.5q118 0 118 150v68q0 58 -31.5 95.5t-88.5 37.5q-55 0 -87.5 -36.5t-32.5 -99.5v-84zM878 401
q0 153 99.5 245t264.5 92q167 0 266 -91t99 -254v-79q0 -152 -97.5 -244t-265.5 -92q-165 0 -265.5 91.5t-100.5 250.5v81zM1121 314q0 -52 36 -92t87 -40q109 0 118 103l1 116q0 59 -32.5 95.5t-88.5 36.5q-54 0 -86.5 -34t-34.5 -92v-93zM539 122l-176 89l798 1278
l177 -89z" />
    <glyph glyph-name="ampersand" unicode="&#x26;" horiz-adv-x="1550" 
d="M349 861q-66 95 -103.5 180t-37.5 176q0 198 128 320t334 122q186 0 307 -113t121 -280q0 -209 -230 -371l-85 -59l251 -289q62 123 62 271h318q0 -332 -153 -532l249 -286h-422l-76 86q-94 -56 -192.5 -83t-222.5 -27q-242 0 -388 127.5t-146 335.5q0 114 58 206
t225 214zM622 268q99 0 189 46l-294 335l-11 -7q-64 -78 -64 -177q0 -82 52 -139.5t128 -57.5zM535 1222q0 -79 85 -191l75 47q52 34 75.5 70t23.5 91q0 51 -36 89.5t-89 38.5q-63 0 -98.5 -40t-35.5 -105z" />
    <glyph glyph-name="quotesingle" unicode="'" horiz-adv-x="355" 
d="M318 1543l-37 -464h-233v646h270v-182z" />
    <glyph glyph-name="parenleft" unicode="(" horiz-adv-x="952" 
d="M895 1713q-14 -15 -44.5 -45.5t-68 -71t-78.5 -89t-76 -99.5q-41 -56 -83 -131t-77 -163.5t-59 -187.5t-29 -202q0 -260 136 -523.5t408 -519.5l-212 -237q-650 608 -650 1253v37q7 235 89 454t223 415v-2q64 89 141 176.5t183 182.5z" />
    <glyph glyph-name="parenright" unicode=")" horiz-adv-x="957" 
d="M295 1960q106 -95 183 -182.5t140 -176.5v2q142 -196 224 -415t89 -454v-37q0 -645 -650 -1253l-213 237q274 256 409.5 519.5t135.5 523.5q-4 103 -28.5 202t-60 187.5t-77.5 163.5t-82 131q-36 51 -77 99t-78.5 89t-67.5 71.5t-44 45.5z" />
    <glyph glyph-name="asterisk" unicode="*" horiz-adv-x="1069" 
d="M395 1074l-366 101l73 212l358 -147l-28 395h241l-29 -403l348 144l73 -215l-371 -101l246 -297l-194 -133l-206 330l-206 -319l-195 127z" />
    <glyph glyph-name="plus" unicode="+" horiz-adv-x="1229" 
d="M788 928h383v-325h-383v-439h-353v439h-384v325h384v426h353v-426z" />
    <glyph glyph-name="comma" unicode="," horiz-adv-x="620" 
d="M239 -440l-191 90l38 76q79 146 82 278v281h304l-1 -243q-2 -130 -67 -263.5t-165 -218.5z" />
    <glyph glyph-name="hyphen" unicode="-" horiz-adv-x="1034" 
d="M846 558h-675v293h675v-293z" />
    <glyph glyph-name="period" unicode="." horiz-adv-x="695" 
d="M340 221q90 0 149.5 -53t59.5 -136t-59.5 -136.5t-149.5 -53.5q-91 0 -150 54t-59 136t59 135.5t150 53.5z" />
    <glyph glyph-name="slash" unicode="/" horiz-adv-x="807" 
d="M236 -140h-269l559 1775h269z" />
    <glyph glyph-name="zero" unicode="0" horiz-adv-x="1500" 
d="M654 543q0 -27 10 -50.5t27.5 -41t41 -27.5t50.5 -10t51 10t41.5 27.5t28 41t10.5 50.5t-10.5 51t-28 41.5t-41.5 28t-51 10.5t-50.5 -10.5t-41 -28t-27.5 -41.5t-10 -51zM359 542q0 86 34 162.5t92.5 133.5t136.5 90.5t168 33.5q88 0 167 -33.5t138 -90.5t93.5 -133.5
t34.5 -162.5t-34.5 -162t-93.5 -132.5t-138 -89.5t-167 -33q-90 0 -168 33t-136.5 89.5t-92.5 132.5t-34 162z" />
    <glyph glyph-name="one" unicode="1" horiz-adv-x="1500" 
d="M611 -98q0 136 -1.5 275t-8.5 276t-20 269t-36 254.5t-57 231.5t-83 201l321 200q61 -96 101 -194t66.5 -198.5t43 -203.5t30.5 -209q10 -80 16 -173.5t9.5 -190t4.5 -191.5t1 -178v-169h-387z" />
    <glyph glyph-name="two" unicode="2" horiz-adv-x="1500" 
d="M1282 1545q7 -45 11 -81t6.5 -66t3 -57t0.5 -54q0 -133 -33.5 -236.5t-97.5 -175t-157 -109t-213 -37.5q-13 0 -18.5 -0.5t-9 -1t-8 0t-16.5 2.5q10 -100 18 -209.5t14 -220t9 -217.5t3 -203h-387q0 174 -2.5 350t-14 338.5t-35 305.5t-65.5 252q-16 42 -25.5 66
t-18.5 44t-21.5 42t-33.5 60l324 205q25 -39 40.5 -65.5t28.5 -53t27 -59t35 -83.5v2q16 -37 33 -73.5t37.5 -66t46 -47t57.5 -16.5q37 1 61.5 25t39 59.5t20.5 76t6 73.5v35.5t-1.5 33t-4.5 39.5t-8 54z" />
    <glyph glyph-name="three" unicode="3" horiz-adv-x="1500" 
d="M1423 1565q14 -77 21.5 -129t11 -90.5t4 -68t0.5 -60.5q0 -56 -8 -111.5t-25 -107t-45 -95.5t-67.5 -77t-92.5 -51.5t-120 -18.5q-25 0 -55 5t-61.5 17.5t-62 33.5t-56.5 53q-15 -33 -45 -58t-68.5 -41t-82.5 -23.5t-87 -4.5q9 -93 15 -202.5t9 -222.5t4.5 -224t1.5 -208
h-392q1 20 2.5 58.5t2.5 81.5t1.5 81.5t0.5 58.5q0 130 -3.5 278t-23.5 301t-62 304t-119 287l319 184q22 -34 36 -59.5t27 -53t27.5 -62t37.5 -85.5q37 -88 69.5 -129t76.5 -41q19 0 30.5 17t18 45.5t8.5 65.5t1.5 77t-2.5 79.5t-3 73.5l303 38q3 -35 7.5 -77.5t11 -85.5
t15 -83t20 -70t26.5 -46.5t35 -12.5q26 5 37.5 45.5t12.5 99t-7 125.5t-21 125z" />
    <glyph glyph-name="four" unicode="4" horiz-adv-x="1500" 
d="M947 596q-59 0 -115.5 8t-110.5 27q19 -197 24 -380t5 -361h-387q0 201 -8 398.5t-33.5 381.5t-73.5 349t-128 301l330 204q20 -34 33 -56t21 -40t14 -35t13 -39q40 45 90 82.5t105.5 64.5t114 42t117.5 15q86 0 177.5 -29.5t189.5 -110.5l-180 -271q-19 9 -45 16.5
t-56.5 12.5t-64.5 8t-69 3t-77.5 -14t-78 -34.5t-58.5 -44.5t-19 -43q4 -22 34.5 -38.5t72 -28t85 -17t74.5 -5.5q30 0 67 5.5t78 16.5t83 27t81 38l158 -298q-65 -44 -126 -73.5t-119 -47.5t-112.5 -26t-105.5 -8z" />
    <glyph glyph-name="five" unicode="5" horiz-adv-x="1500" 
d="M998 -131q-35 0 -70 8t-68 21.5t-62.5 31.5t-53.5 39q-51 -42 -108.5 -70.5t-126.5 -28.5q-68 0 -125 22t-103.5 60t-82 89t-59.5 109t-36 120t-12 122q0 123 29 239.5t77.5 230.5t113 227t135.5 229l-3 3q-3 3 -10 11t-15 16q-9 10 -19 21l268 269l115 -112
q76 -74 154.5 -152.5t152.5 -163t138.5 -175.5t113 -190t76.5 -206t28 -224q0 -67 -11.5 -132.5t-34.5 -125t-59 -111t-85.5 -90t-112.5 -61.5t-141 -26h-3zM921 536q0 -26 0.5 -60t2 -69t6 -69t12.5 -60.5t20.5 -42.5t30.5 -16q31 0 55.5 20t41.5 49.5t26.5 62t9.5 58.5
q0 57 -18 113t-49 111.5t-73 109.5t-89 107t-97.5 104.5t-99.5 101.5q-52 -74 -105 -155.5t-96 -167.5t-70 -176.5t-27 -181.5q0 -24 11 -51t27 -49.5t34.5 -37.5t34.5 -15q38 0 62 24t38.5 63.5t21.5 89.5t11 102z" />
    <glyph glyph-name="six" unicode="6" horiz-adv-x="1500" 
d="M199 -23q6 36 26.5 91t51 119t68.5 132.5t80 132t85 116.5t84 86q-56 22 -107.5 59.5t-90.5 86.5t-62.5 108.5t-23.5 125.5q0 74 22.5 141.5t62 124.5t93.5 103t118 78t134.5 49.5t142.5 17.5q88 0 168.5 -30t168.5 -84l-141 -266q-36 20 -83 28.5t-97 6t-98.5 -14.5
t-87 -33t-62 -50.5t-23.5 -66.5q0 -32 25.5 -51.5t69 -28t101 -8t121 9.5t130 25t128.5 37l130 -298q-135 -51 -239.5 -119.5t-184 -146t-136.5 -159.5t-98.5 -160.5t-70 -149t-49.5 -123.5z" />
    <glyph glyph-name="seven" unicode="7" horiz-adv-x="1500" 
d="M588 -123q-5 169 -26 316.5t-54 278.5t-77 247.5t-95.5 223.5t-110 207.5t-120.5 198.5l325 204q64 -110 119.5 -236.5t100.5 -254.5t79 -251.5t55 -226.5q19 85 42 176.5t49 183t53.5 180t55 168.5t55 148t52.5 119l323 -206q-57 -99 -112 -216.5t-105 -245t-93 -261
t-74.5 -264.5t-49.5 -255.5t-19 -233.5h-373z" />
    <glyph glyph-name="eight" unicode="8" horiz-adv-x="1500" 
d="M959 1528q1 -110 19 -234t49.5 -255t74.5 -264.5t93 -261t105 -245t112 -216.5l-323 -206q-25 50 -52.5 118.5t-55 148.5t-55 168.5t-53.5 180t-49 183t-42 176.5q-21 -104 -55 -228t-79 -253.5t-100.5 -256.5t-119.5 -237l-325 210q62 98 120.5 198.5t110 207.5
t95.5 223.5t77 247.5t53.5 278.5t26.5 316.5h373z" />
    <glyph glyph-name="nine" unicode="9" horiz-adv-x="1500" 
d="M1125 800q3 -100 21.5 -207.5t48 -208t66.5 -185t78 -138.5l-319 -227q-47 50 -80.5 110.5t-57 127.5t-38 137.5t-23 140.5t-13.5 138t-8 129q-15 -1 -33 -1.5t-36.5 -1t-36 -0.5h-29.5q-93 0 -171 23t-136 75.5t-92.5 137.5t-41.5 208q0 62 14 125.5t40 122t63.5 109.5
t84.5 88.5t102.5 58t117.5 18.5q93 -5 163.5 -43.5t122.5 -99t87 -139t57.5 -163t33.5 -171t15 -163.5v-1zM654 996q29 0 62 1.5t61 5.5q-7 30 -20 66.5t-32 69t-44 54.5t-57 22q-23 0 -43.5 -17.5t-36 -42.5t-24.5 -53t-9 -50q0 -12 14.5 -22.5t36 -18t46.5 -11.5t46 -4z
" />
    <glyph glyph-name="colon" unicode=":" horiz-adv-x="691" 
d="M341 204q90 0 149.5 -53t59.5 -136.5t-59.5 -136.5t-149.5 -53t-149 53.5t-59 135.5t59 136t149 54zM341 1100q90 0 149.5 -53t59.5 -136.5t-59.5 -136.5t-149.5 -53t-149 54t-59 136t59 135.5t149 53.5z" />
    <glyph glyph-name="semicolon" unicode=";" horiz-adv-x="663" 
d="M330 1263q90 0 149.5 -53t59.5 -136t-59.5 -136.5t-149.5 -53.5q-91 0 -150 54t-59 136t59 135.5t150 53.5zM267 -440l-191 90l39 76q78 146 82 278v281h303l-1 -243q-1 -130 -66.5 -263.5t-165.5 -218.5z" />
    <glyph glyph-name="less" unicode="&#x3c;" horiz-adv-x="1172" 
d="M430 684l614 -207v-344l-992 404v299l992 404v-344z" />
    <glyph glyph-name="equal" unicode="=" horiz-adv-x="1347" 
d="M1184 811h-1040v292h1040v-292zM1184 318h-1040v292h1040v-292z" />
    <glyph glyph-name="greater" unicode="&#x3e;" horiz-adv-x="1179" 
d="M736 687l-611 208v344l987 -405v-298l-987 -405v344z" />
    <glyph glyph-name="question" unicode="?" horiz-adv-x="1171" 
d="M386 518q0 164 37 258.5t120.5 164.5t126.5 127.5t43 127.5q0 170 -146 170q-67 0 -108.5 -49.5t-44.5 -133.5h-379q2 224 141.5 349.5t390.5 125.5t388.5 -116t137.5 -329q0 -93 -37 -169.5t-119 -156.5l-130 -120q-55 -53 -76 -108.5t-23 -140.5h-322zM340 176
q0 83 60 136.5t150 53.5t150 -53.5t60 -136.5t-60 -136t-150 -53t-150 53t-60 136z" />
    <glyph glyph-name="at" unicode="@" horiz-adv-x="2060" 
d="M1972 618q-11 -293 -146 -467.5t-359 -174.5q-92 0 -163 40t-110 113q-110 -148 -296 -148q-107 0 -188 63.5t-118.5 180t-23.5 265.5q34 280 181 451t361 171q165 0 284 -77l70 -47l-57 -659q-19 -156 108 -156q95 0 160 122t71 311q19 376 -155.5 580t-511.5 204
q-214 0 -381 -109.5t-264 -310t-109 -456.5q-18 -393 157 -601t525 -208q95 0 200.5 21.5t171.5 51.5l42 -187q-69 -45 -185 -72.5t-233 -27.5q-307 0 -518.5 117.5t-315 347.5t-92.5 558q14 310 143.5 555.5t355 379.5t508.5 134t488.5 -117t308.5 -337t91 -511zM849 490
q-12 -146 23 -221t114 -75q53 0 97.5 47.5t73.5 134.5l45 512q-34 9 -70 9q-126 0 -194 -98t-89 -309z" />
    <glyph glyph-name="A" unicode="A" horiz-adv-x="1567" 
d="M1052 305h-540l-94 -305h-421l599 1635h371l604 -1635h-423zM606 610h352l-176 567z" />
    <glyph glyph-name="B" unicode="B" horiz-adv-x="1484" 
d="M124 0v1635h587q315 0 480 -115.5t165 -335.5q0 -127 -58.5 -217t-172.5 -133q128 -33 196.5 -125t68.5 -225q0 -240 -152 -361t-451 -123h-663zM518 695v-392h258q107 0 164 49t57 138q0 204 -203 205h-276zM518 953h205q129 2 184 48t55 136q0 103 -59.5 148.5
t-191.5 45.5h-193v-378z" />
    <glyph glyph-name="C" unicode="C" horiz-adv-x="1509" 
d="M1446 554q-7 -171 -91.5 -302t-236.5 -202.5t-348 -71.5q-322 0 -507.5 210t-185.5 593v80q0 241 84 421t241 278.5t364 98.5q298 0 478.5 -157t205.5 -432h-393q-5 150 -75.5 215t-215.5 65q-147 0 -215.5 -110t-72.5 -352v-115q0 -262 66 -374.5t226 -112.5
q136 0 208 64t77 204h391z" />
    <glyph glyph-name="D" unicode="D" horiz-adv-x="1487" 
d="M124 0v1635h526q217 0 390 -98t270 -277.5t98 -401.5v-75q0 -225 -94.5 -403t-267 -278.5t-385.5 -101.5h-537zM518 1331v-1028h137q169 0 260 121t91 359v71q0 236 -91 356.5t-265 120.5h-132z" />
    <glyph glyph-name="E" unicode="E" horiz-adv-x="1287" 
d="M1138 693h-620v-390h732v-303h-1126v1635h1128v-304h-734v-345h620v-293z" />
    <glyph glyph-name="F" unicode="F" horiz-adv-x="1258" 
d="M1153 651h-635v-651h-394v1635h1093v-304h-699v-376h635v-304z" />
    <glyph glyph-name="G" unicode="G" horiz-adv-x="1568" 
d="M1462 202q-91 -101 -266 -162.5t-384 -61.5q-321 0 -513 196.5t-206 546.5l-1 142q0 241 85.5 421t244.5 277.5t368 97.5q305 0 474 -140t197 -417h-380q-20 137 -87 195.5t-191 58.5q-148 0 -229 -126t-82 -360v-98q0 -245 83.5 -368t263.5 -123q154 0 229 68v254h-274
v271h668v-672z" />
    <glyph glyph-name="H" unicode="H" horiz-adv-x="1616" 
d="M1490 0h-392v683h-580v-683h-394v1635h394v-649h580v649h392v-1635z" />
    <glyph glyph-name="I" unicode="I" horiz-adv-x="694" 
d="M544 0h-394v1635h394v-1635z" />
    <glyph glyph-name="J" unicode="J" horiz-adv-x="1293" 
d="M775 1635h393v-1122q0 -156 -72.5 -278.5t-202 -189.5t-289.5 -67q-267 0 -415.5 134.5t-148.5 381.5h396q0 -112 38.5 -162.5t129.5 -50.5q82 0 126.5 61t44.5 171v1122z" />
    <glyph glyph-name="K" unicode="K" horiz-adv-x="1471" 
d="M679 609l-161 -178v-431h-394v1635h394v-721l137 208l352 513h488l-553 -723l553 -912h-467z" />
    <glyph glyph-name="L" unicode="L" horiz-adv-x="1247" 
d="M518 303h686v-303h-1080v1635h394v-1332z" />
    <glyph glyph-name="M" unicode="M" horiz-adv-x="2016" 
d="M641 1635l365 -1137l364 1137h519v-1635h-395v382l38 781l-395 -1163h-261l-396 1165l38 -783v-382h-394v1635h517z" />
    <glyph glyph-name="N" unicode="N" horiz-adv-x="1615" 
d="M1489 0h-392l-579 1017v-1017h-394v1635h394l578 -1017v1017h393v-1635z" />
    <glyph glyph-name="O" unicode="O" horiz-adv-x="1588" 
d="M1508 784q0 -239 -88.5 -423.5t-252 -283.5t-372.5 -99t-370.5 96t-252 274.5t-95.5 409.5v92q0 240 88.5 424t253 284t374.5 100q208 0 370.5 -99t253 -281.5t91.5 -418.5v-75zM1107 852q0 244 -81.5 370.5t-232.5 126.5q-297 0 -313 -445l-2 -120q0 -240 80 -369.5
t237 -129.5q149 0 230 127t82 365v75z" />
    <glyph glyph-name="P" unicode="P" horiz-adv-x="1497" 
d="M518 555v-555h-394v1635h652q188 0 332 -69t223.5 -196.5t79.5 -289.5q0 -239 -171.5 -382t-470.5 -143h-251zM518 859h258q115 0 175 57.5t60 161.5q0 115 -62 183.5t-168 69.5h-263v-472z" />
    <glyph glyph-name="Q" unicode="Q" horiz-adv-x="1588" 
d="M1510 784q0 -227 -75 -396t-208 -271l264 -209l-243 -207l-352 283q-49 -6 -99 -6q-209 0 -370.5 96.5t-252 276t-93.5 413.5v86q0 242 88 425t251.5 283t374.5 100q208 0 371 -99t253 -281.5t91 -418.5v-75zM1110 852q0 244 -81.5 370.5t-233.5 126.5
q-156 0 -234.5 -125t-79.5 -365v-75q0 -242 79.5 -370.5t236.5 -128.5q151 0 231 127t82 365v75z" />
    <glyph glyph-name="R" unicode="R" horiz-adv-x="1500" 
d="M731 577h-213v-577h-394v1635h643q291 0 455 -129t164 -365q0 -171 -69 -283t-216 -182l341 -659v-17h-422zM518 882h249q112 0 169 59t57 164.5t-57.5 165.5t-168.5 60h-249v-449z" />
    <glyph glyph-name="S" unicode="S" horiz-adv-x="1440" 
d="M967 435q0 86 -61 134.5t-215 100t-252 99.5q-318 156 -318 429q0 136 79.5 240t224 162t325.5 58q177 0 316.5 -63t217 -179.5t77.5 -265.5h-393q0 100 -61 155t-166 55t-166.5 -46.5t-61.5 -118.5q0 -63 67.5 -114t237 -105.5t278.5 -117.5q265 -153 265 -421
q0 -215 -161.5 -337t-443.5 -122q-199 0 -360 71t-242.5 195t-81.5 286h395q0 -131 68 -193.5t221 -62.5q98 0 154.5 42t56.5 119z" />
    <glyph glyph-name="T" unicode="T" horiz-adv-x="1450" 
d="M1407 1331h-491v-1331h-394v1331h-482v304h1367v-304z" />
    <glyph glyph-name="U" unicode="U" horiz-adv-x="1528" 
d="M1406 1635v-1070q0 -182 -77.5 -315t-222.5 -202.5t-342 -69.5q-299 0 -471 155t-175 424v1078h396v-1086q7 -268 250 -268q122 0 185 67.5t63 218.5v1068h394z" />
    <glyph glyph-name="V" unicode="V" horiz-adv-x="1519" 
d="M758 445l326 1190h440l-550 -1635h-432l-545 1635h436z" />
    <glyph glyph-name="W" unicode="W" horiz-adv-x="1999" 
d="M1390 610l188 1025h391l-347 -1635h-409l-219 932l-215 -932h-407l-348 1635h392l187 -1025l225 1025h334z" />
    <glyph glyph-name="X" unicode="X" horiz-adv-x="1468" 
d="M733 1092l268 543h450l-457 -811l469 -824h-455l-275 554l-275 -554h-454l469 824l-456 811h449z" />
    <glyph glyph-name="Y" unicode="Y" horiz-adv-x="1444" 
d="M722 925l301 710h426l-527 -1048v-587h-400v587l-525 1048h423z" />
    <glyph glyph-name="Z" unicode="Z" horiz-adv-x="1403" 
d="M566 303h782v-303h-1274v208l780 1123h-784v304h1270v-202z" />
    <glyph glyph-name="bracketleft" unicode="[" horiz-adv-x="648" 
d="M633 1640h-132v-1757h132v-275h-512v2308h512v-276z" />
    <glyph glyph-name="backslash" unicode="\" horiz-adv-x="980" 
d="M-22 1635h394l683 -1775h-397z" />
    <glyph glyph-name="bracketright" unicode="]" horiz-adv-x="648" 
d="M16 1916h512v-2308h-512v275h133v1757h-133v276z" />
    <glyph glyph-name="asciicircum" unicode="^" horiz-adv-x="1029" 
d="M517 1327l-192 -508h-285l336 816h280l337 -816h-285z" />
    <glyph glyph-name="underscore" unicode="_" horiz-adv-x="1015" 
d="M1014 -282h-1014v282h1014v-282z" />
    <glyph glyph-name="grave" unicode="`" horiz-adv-x="781" 
d="M685 1372h-308l-316 353h399z" />
    <glyph glyph-name="a" unicode="a" horiz-adv-x="1221" 
d="M791 0q-21 37 -36 109q-105 -131 -292 -131q-172 0 -292 103.5t-120 261.5q0 197 146 298t424 101h117v64q0 168 -145 168q-135 0 -135 -133h-378q0 176 150 286.5t382.5 110.5t367 -113.5t137.5 -311.5v-538q3 -167 52 -256v-19h-378zM554 247q70 0 117 30.5t67 68.5
v194h-110q-198 0 -198 -177q0 -52 35 -84t89 -32z" />
    <glyph glyph-name="b" unicode="b" horiz-adv-x="1295" 
d="M1234 597q0 -298 -123.5 -458.5t-347.5 -160.5q-186 0 -299 147l-16 -125h-339v1725h378v-608q106 121 273 121q227 0 350.5 -163t123.5 -458v-20zM855 621q0 175 -47 250t-143 75q-128 0 -178 -98v-483q49 -97 180 -97q134 0 170 131q18 64 18 222z" />
    <glyph glyph-name="c" unicode="c" horiz-adv-x="1195" 
d="M620 270q80 0 123.5 43t42.5 120h355q0 -199 -143 -327t-369 -128q-265 0 -418 166t-153 460v16q0 184 68 325t196 217t304 76q237 0 376 -131.5t139 -356.5h-355q0 95 -46 145.5t-123 50.5q-148 0 -172 -188q-8 -59 -8 -164q0 -183 43.5 -253.5t139.5 -70.5z" />
    <glyph glyph-name="d" unicode="d" horiz-adv-x="1294" 
d="M58 617q0 288 125 454.5t348 166.5q163 0 274 -128v615h380v-1725h-340l-20 130q-116 -152 -296 -152q-217 0 -344 166t-127 473zM437 593q0 -323 189 -323q125 0 179 105v463q-51 108 -177 108q-175 0 -190 -283z" />
    <glyph glyph-name="e" unicode="e" horiz-adv-x="1252" 
d="M694 -22q-280 0 -452.5 166.5t-172.5 433.5v32q0 186 69 328.5t201.5 221t314.5 78.5q256 0 404 -159t148 -443v-147h-752q20 -103 88.5 -161t177.5 -58q180 0 281 125l173 -204q-71 -98 -201 -155.5t-279 -57.5zM651 946q-166 0 -197 -221h382v30q2 91 -46.5 141
t-138.5 50z" />
    <glyph glyph-name="f" unicode="f" horiz-adv-x="833" 
d="M190 0v952h-177v263h177v97q0 207 122.5 322t343.5 115q81 0 177 -24l1 -279q-34 11 -93 11q-172 0 -172 -149v-93h237v-263h-237v-952h-379z" />
    <glyph glyph-name="g" unicode="g" horiz-adv-x="1323" 
d="M62 617q0 184 60.5 325.5t174 218.5t263.5 77q190 0 297 -128l13 105h344v-1169q0 -161 -74.5 -279.5t-216 -181.5t-328.5 -63q-133 0 -258.5 50.5t-191.5 131.5l158 222q106 -125 279 -125q251 0 251 259v38q-109 -120 -275 -120q-222 0 -359 170t-137 455v14zM441 593
q0 -149 56.5 -236t157.5 -87q122 0 178 82v511q-55 83 -176 83q-101 0 -158.5 -90.5t-57.5 -262.5z" />
    <glyph glyph-name="h" unicode="h" horiz-adv-x="1298" 
d="M476 1085q121 153 310 153q201 0 303.5 -119t104.5 -352v-767h-380v758q0 97 -39 142.5t-134 45.5q-117 0 -165 -75v-871h-378v1725h378v-640z" />
    <glyph glyph-name="i" unicode="i" horiz-adv-x="632" 
d="M505 0h-379v1215h379v-1215zM103 1528q0 81 58.5 133t152 52t151.5 -52t58 -132.5t-58 -132.5t-151.5 -52t-152 52t-58.5 132z" />
    <glyph glyph-name="j" unicode="j" horiz-adv-x="621" 
d="M513 1215v-1257q-1 -215 -123.5 -332t-341.5 -117q-94 0 -178 19v287q65 -10 106 -10q158 0 158 156v1254h379zM106 1528q0 81 58 133t151.5 52t152 -52t58.5 -132.5t-58.5 -132.5t-152 -52t-151.5 52t-58 132z" />
    <glyph glyph-name="k" unicode="k" horiz-adv-x="1258" 
d="M594 453l-107 -107v-346h-378v1726h378v-916l39 50l285 355h454l-426 -500l454 -715h-434z" />
    <glyph glyph-name="l" unicode="l" horiz-adv-x="632" 
d="M505 0h-379v1725h379v-1725z" />
    <glyph glyph-name="m" unicode="m" horiz-adv-x="1981" 
d="M464 1215l12 -142q129 165 347 165q230 0 311 -183q124 183 357 183q370 0 380 -447v-791h-380v767q0 93 -31 136t-115 43q-112 0 -167 -100l1 -16v-830h-379v765q0 95 -30.5 138t-115.5 43q-109 0 -167 -100v-846h-378v1215h355z" />
    <glyph glyph-name="n" unicode="n" horiz-adv-x="1297" 
d="M454 1215l12 -142q126 165 347 165q190 0 283.5 -113.5t97.5 -341.5v-783h-380v767q0 92 -37 135.5t-135 43.5q-111 0 -165 -88v-858h-378v1215h355z" />
    <glyph glyph-name="o" unicode="o" horiz-adv-x="1292" 
d="M58 619q0 182 71 324t203.5 218.5t311.5 76.5q272 0 429.5 -169t157.5 -460v-14q0 -284 -158 -450.5t-427 -166.5q-260 0 -417 155.5t-169 421.5zM437 595q0 -168 52.5 -246.5t156.5 -78.5q202 0 206 311v38q0 327 -208 327q-190 0 -206 -282z" />
    <glyph glyph-name="p" unicode="p" horiz-adv-x="1295" 
d="M1234 599q0 -283 -127.5 -452t-343.5 -169q-168 0 -276 122v-567h-378v1682h354l11 -112q109 135 286 135q225 0 349.5 -166t124.5 -455v-18zM856 622q0 324 -189 324q-135 0 -180 -97v-478q50 -101 182 -101q181 0 187 312v40z" />
    <glyph glyph-name="q" unicode="q" horiz-adv-x="1293" 
d="M58 620q0 290 126 454t347 164q187 0 299 -153l27 130h328v-1682h-380v568q-109 -123 -276 -123q-216 0 -343.5 166.5t-127.5 475.5zM437 596q0 -326 189 -326q130 0 179 98v481q-47 97 -177 97q-177 0 -190 -282z" />
    <glyph glyph-name="r" unicode="r" horiz-adv-x="871" 
d="M841 873l-124 9q-179 0 -230 -113v-769h-378v1215h355l12 -156q96 179 266 179q61 0 106 -14z" />
    <glyph glyph-name="s" unicode="s" horiz-adv-x="1178" 
d="M742 341q0 49 -50.5 78t-192 60.5t-233.5 82.5t-140.5 124t-48.5 168q0 167 138.5 275.5t361.5 108.5q241 0 387 -109t146 -287h-380q0 146 -154 146q-59 0 -99.5 -33t-40.5 -82q0 -51 49.5 -82.5t157.5 -51.5t190 -48q274 -95 274 -338q0 -167 -147.5 -271t-382.5 -104
q-156 0 -278.5 56t-191 152.5t-68.5 203.5h354q2 -85 56 -123.5t138 -38.5q78 0 116.5 31.5t38.5 81.5z" />
    <glyph glyph-name="t" unicode="t" horiz-adv-x="790" 
d="M547 1517v-302h200v-263h-200v-556q0 -68 24.5 -95t97.5 -27q56 0 95 7v-271q-103 -32 -214 -32q-195 0 -288.5 92t-93.5 279v603h-155v263h155v302h379z" />
    <glyph glyph-name="u" unicode="u" horiz-adv-x="1297" 
d="M830 131q-120 -153 -325 -153q-200 0 -302.5 116t-102.5 334v787h378v-789q0 -156 152 -156q130 0 185 93v852h381v-1215h-355z" />
    <glyph glyph-name="v" unicode="v" horiz-adv-x="1188" 
d="M591 450l192 765h398l-396 -1215h-386l-397 1215h400z" />
    <glyph glyph-name="w" unicode="w" horiz-adv-x="1670" 
d="M1156 499l122 716h363l-287 -1215h-320l-201 721l-202 -721h-320l-286 1215h362l121 -733l193 733h264z" />
    <glyph glyph-name="x" unicode="x" horiz-adv-x="1184" 
d="M599 880l176 335h393l-320 -592l336 -623h-396l-191 359l-187 -359h-398l337 623l-319 592h398z" />
    <glyph glyph-name="y" unicode="y" horiz-adv-x="1192" 
d="M592 530l202 685h405l-495 -1418l-21 -52q-106 -236 -373 -236q-74 0 -156 23v270h49q80 0 122 23t62 83l31 81l-422 1226h404z" />
    <glyph glyph-name="z" unicode="z" horiz-adv-x="1184" 
d="M553 292h553v-292h-1032v211l539 712h-515v292h996v-204z" />
    <glyph glyph-name="braceleft" unicode="{" horiz-adv-x="747" 
d="M631 -404q-404 113 -404 522v222q0 227 -182 227v255q182 0 182 228v236q3 202 104.5 326.5t299.5 181.5l71 -198q-142 -54 -147 -302v-244q0 -252 -208 -355q208 -103 208 -356v-242q5 -249 147 -303z" />
    <glyph glyph-name="bar" unicode="|" horiz-adv-x="587" 
d="M400 -303h-207v1938h207v-1938z" />
    <glyph glyph-name="braceright" unicode="}" horiz-adv-x="747" 
d="M46 -206q142 54 147 303v243q0 253 209 355q-209 102 -209 355v244q-5 248 -147 302l71 198q201 -57 302 -184.5t102 -333.5v-226q0 -228 182 -228v-255q-182 0 -182 -226v-239q-8 -395 -404 -506z" />
    <glyph glyph-name="asciitilde" unicode="~" horiz-adv-x="1454" 
d="M1344 897q0 -220 -102.5 -352.5t-272.5 -132.5q-84 0 -152 32.5t-154 117.5t-159 85q-56 0 -93.5 -55t-37.5 -137l-267 4q0 220 100.5 350t271.5 130q86 0 156.5 -33t154.5 -117t154 -84q58 0 94.5 55.5t36.5 137.5z" />
    <glyph glyph-name="exclamdown" unicode="&#xa1;" horiz-adv-x="691" 
d="M192 700h307l48 -1118h-403zM558 1048q0 -83 -60 -136.5t-150 -53.5t-150 53.5t-60 136.5t60 136.5t150 53.5t150 -53.5t60 -136.5z" />
    <glyph glyph-name="cent" unicode="&#xa2;" horiz-adv-x="1358" 
d="M672 270q79 0 123 43t43 120h355q0 -175 -109 -294.5t-287 -150.5v-263h-224v260q-217 32 -340 193t-123 422v20q0 251 122.5 414.5t340.5 195.5v250h224v-253q186 -32 291 -158.5t105 -318.5h-355q0 95 -46 145.5t-124 50.5q-147 0 -172 -188q-7 -59 -7 -164
q0 -183 43.5 -253.5t139.5 -70.5z" />
    <glyph glyph-name="sterling" unicode="&#xa3;" horiz-adv-x="1380" 
d="M697 630l6 -126q0 -128 -66 -201h683v-303h-1201v303h116q64 17 67 116l1 59l-5 152h-182v293h173l-7 244q0 230 137.5 359.5t372.5 129.5q251 0 392 -129t141 -350h-370q0 176 -153 176q-57 0 -92 -45.5t-35 -140.5l10 -244h345v-293h-333z" />
    <glyph glyph-name="currency" unicode="&#xa4;" horiz-adv-x="1569" 
d="M1192 120q-179 -142 -406 -142q-228 0 -405 141l-145 -148l-159 162l152 153q-112 176 -112 397q0 229 122 410l-162 165l159 162l159 -163q174 129 391 129q218 0 392 -132l162 167l159 -163l-166 -170q120 -178 120 -405q0 -217 -110 -392l156 -158l-159 -163zM326 683
q0 -133 60.5 -245.5t167 -178t232.5 -65.5q125 0 231.5 65.5t167 178t60.5 245.5t-61 246t-167 177t-231 64q-126 0 -232 -64t-167 -177t-61 -246z" />
    <glyph glyph-name="yen" unicode="&#xa5;" horiz-adv-x="1414" 
d="M711 988l265 647h426l-406 -802h228v-213h-322v-112h322v-213h-322v-295h-392v295h-358v213h358v112h-358v213h273l-407 802h427z" />
    <glyph glyph-name="brokenbar" unicode="&#xa6;" horiz-adv-x="588" 
d="M134 -303v893h328v-893h-328zM462 784h-328v851h328v-851z" />
    <glyph glyph-name="section" unicode="&#xa7;" horiz-adv-x="1461" 
d="M1343 562q0 -199 -174 -301q155 -116 155 -330q0 -198 -159 -310t-437 -112q-301 0 -461.5 120.5t-160.5 342.5h379q0 -84 57 -127t186 -43q216 0 216 128q0 66 -64.5 106t-265.5 96.5t-303 117.5t-153.5 144.5t-51.5 198.5q0 198 176 303q-158 119 -158 328
q0 196 162.5 315t436.5 119q281 0 439.5 -126t158.5 -352h-379q0 85 -57.5 135.5t-161.5 50.5q-106 0 -162.5 -37t-56.5 -103q0 -74 63 -112t227 -80t260.5 -83.5t160 -97t96 -126.5t32.5 -165zM670 732q-69 18 -131 41q-55 -45 -55 -135q0 -76 50 -116t241 -100l132 -38
q63 49 63 135q0 69 -61.5 113.5t-238.5 99.5z" />
    <glyph glyph-name="dieresis" unicode="&#xa8;" horiz-adv-x="1138" 
d="M274 1682q71 0 119.5 -43.5t48.5 -105.5t-48.5 -105.5t-119.5 -43.5q-72 0 -121 43.5t-49 105.5t49 105.5t121 43.5zM857 1682q71 0 119.5 -43.5t48.5 -105.5t-48.5 -105.5t-119.5 -43.5q-72 0 -121 43.5t-49 105.5t49 105.5t121 43.5z" />
    <glyph glyph-name="copyright" unicode="&#xa9;" horiz-adv-x="1806" 
d="M1253 669q0 -170 -98 -261t-278 -91t-286 119.5t-106 321.5v127q0 195 107.5 315t284.5 120q183 0 280 -93t97 -260h-175q0 108 -51.5 154.5t-150.5 46.5q-103 0 -160 -76t-58 -203v-138q0 -131 57.5 -207t160.5 -76q100 0 150.5 45.5t50.5 155.5h175zM232 819
q0 -186 84 -346.5t238 -257.5t339 -97q184 0 337.5 96.5t237.5 257t84 347t-84 346.5t-238 256t-337 96q-179 0 -332 -92t-241 -253.5t-88 -352.5zM95 819q0 227 105 421t291 306t401.5 112t401.5 -112t291 -306t105 -421q0 -229 -106.5 -424t-291.5 -306t-399 -111
q-217 0 -401.5 112t-290.5 306.5t-106 422.5z" />
    <glyph glyph-name="ordfeminine" unicode="&#xaa;" horiz-adv-x="1015" 
d="M674 792q-11 30 -19 76q-87 -92 -226 -92q-133 0 -206.5 69t-73.5 187q0 124 94.5 192t288.5 68h115v57q0 142 -130 142q-73 0 -114 -28.5t-41 -82.5l-195 16q0 117 98.5 189.5t251.5 72.5q151 0 238.5 -81t87.5 -230v-355q0 -109 30 -200h-199zM477 938q45 0 92.5 20.5
t77.5 48.5v153h-119q-86 -1 -134 -34.5t-48 -88.5q0 -99 131 -99z" />
    <glyph glyph-name="guillemotleft" unicode="&#xab;" horiz-adv-x="1184" 
d="M349 578l261 -448h-232l-305 438v22l305 438h232zM813 578l261 -448h-232l-305 438v22l305 438h232z" />
    <glyph glyph-name="logicalnot" unicode="&#xac;" horiz-adv-x="1262" 
d="M1078 420h-224v292h-714v192h938v-484z" />
    <glyph glyph-name="softhyphen" unicode="&#xad;" horiz-adv-x="1034" 
d="M846 558h-675v293h675v-293z" />
    <glyph glyph-name="registered" unicode="&#xae;" horiz-adv-x="1806" 
d="M95 819q0 227 105 421t291 306t401.5 112t401.5 -112t291 -306t105 -421q0 -229 -106.5 -424t-291.5 -306t-399 -111q-217 0 -401.5 112t-290.5 306.5t-106 422.5zM232 819q0 -186 84 -346.5t238 -257.5t339 -97q184 0 337.5 96.5t237.5 257t84 347t-84 346.5t-238 256
t-337 96q-179 0 -332 -92t-241 -253.5t-88 -352.5zM731 733v-378h-169v954h315q173 0 269 -78.5t96 -217.5q0 -124 -120 -191q65 -36 91 -99t26 -155.5t4 -130.5t15 -64v-18h-174q-15 38 -15 218q0 85 -37 122.5t-123 37.5h-178zM731 884h144q85 0 142 35.5t57 94.5
q0 79 -40 112t-145 34h-158v-276z" />
    <glyph glyph-name="macron" unicode="&#xaf;" horiz-adv-x="1196" 
d="M1005 1443h-824v194h824v-194z" />
    <glyph glyph-name="degree" unicode="&#xb0;" horiz-adv-x="893" 
d="M142 1348q0 127 90 219q91 91 215 91q123 0 211 -91q90 -90 90 -219q0 -130 -90 -218q-88 -88 -211 -88q-122 0 -213 88q-92 89 -92 218zM447 1208q59 0 98 40t39 100q0 58 -39 100q-39 43 -99 43q-59 0 -99 -43q-40 -41 -40 -101q0 -58 41 -99q40 -40 99 -40z" />
    <glyph glyph-name="plusminus" unicode="&#xb1;" horiz-adv-x="1238" 
d="M773 1094h350v-304h-350v-391h-331v391h-348v304h348v358h331v-358zM1099 1h-986v297h986v-297z" />
    <glyph glyph-name="twosuperior" unicode="&#xb2;" horiz-adv-x="863" 
d="M783 749h-706v165l322 284q56 50 83.5 97.5t27.5 70.5q0 85 -96 85q-48 0 -76 -33.5t-28 -82.5h-253q0 133 96 223.5t249 90.5q173 0 266 -73t93 -210q0 -85 -47.5 -155t-210.5 -189l-91 -76h371v-197z" />
    <glyph glyph-name="threesuperior" unicode="&#xb3;" horiz-adv-x="863" 
d="M311 1280h99q113 0 113 92q0 36 -28.5 57t-78.5 21q-40 0 -70 -14.5t-30 -42.5h-252q0 114 95.5 184.5t248.5 70.5q173 0 270 -69.5t97 -185.5q0 -135 -155 -190q173 -46 173 -206q0 -117 -105.5 -189t-279.5 -72q-163 0 -262.5 77.5t-99.5 205.5h255q0 -33 33 -59.5
t92 -26.5q63 0 88 28t25 63q0 96 -122 97h-106v159z" />
    <glyph glyph-name="acute" unicode="&#xb4;" horiz-adv-x="776" 
d="M322 1725h400l-312 -353h-309z" />
    <glyph glyph-name="mu" unicode="&#xb5;" horiz-adv-x="1475" 
d="M528 1215v-710q1 -120 41 -176t142 -56q144 0 203 102v840h379v-1215h-356l-6 60q-100 -84 -236 -84q-95 0 -167 39v-482h-380v1682h380z" />
    <glyph glyph-name="paragraph" unicode="&#xb6;" horiz-adv-x="1124" 
d="M738 0v584h-90q-258 0 -407 142.5t-149 383.5q0 239 149.5 382t407.5 143h346v-1635h-257z" />
    <glyph glyph-name="periodcentered" unicode="&#xb7;" horiz-adv-x="738" 
d="M364 959q91 0 150 -54t59 -136t-59 -136t-150 -54q-90 0 -149.5 53.5t-59.5 136.5t59.5 136.5t149.5 53.5z" />
    <glyph glyph-name="cedilla" unicode="&#xb8;" horiz-adv-x="639" 
d="M419 11l-11 -68q168 -32 168 -195q0 -130 -111 -204t-309 -74l-8 209q99 0 99 86q0 43 -35.5 60t-114.5 22l34 164h288z" />
    <glyph glyph-name="onesuperior" unicode="&#xb9;" horiz-adv-x="863" 
d="M609 749h-251v599l-197 -41v188l426 137h22v-883z" />
    <glyph glyph-name="ordmasculine" unicode="&#xba;" horiz-adv-x="1053" 
d="M131 1259q0 180 107.5 289.5t281.5 109.5t282 -109t108 -296v-81q0 -178 -105.5 -287.5t-282.5 -109.5t-284 110t-107 293v81zM328 1172q0 -110 52 -171.5t142 -61.5q88 0 139 60.5t52 169.5v90q0 109 -52 170.5t-141 61.5q-88 0 -140 -61t-52 -176v-82z" />
    <glyph glyph-name="guillemotright" unicode="&#xbb;" horiz-adv-x="1184" 
d="M319 1026l305 -438v-21l-305 -438h-233l261 448l-261 449h233zM783 1026l305 -438v-21l-305 -438h-233l261 448l-261 449h233z" />
    <glyph glyph-name="onequarter" unicode="&#xbc;" horiz-adv-x="1631" 
d="M575 746h-250v598l-198 -40v187l427 137h21v-882zM519 131l-176 89l798 1278l176 -89zM1446 376h89v-200h-89v-176h-252v176h-374l-17 163l391 547h252v-510zM1039 376h155v215l-18 -26z" />
    <glyph glyph-name="onehalf" unicode="&#xbd;" horiz-adv-x="1726" 
d="M474 131l-176 89l798 1278l176 -89zM548 755h-250v598l-198 -40v187l427 137h21v-882zM1651 0h-705v165l321 284q56 50 83.5 97.5t27.5 70.5q0 85 -95 85q-49 0 -77 -33.5t-28 -82.5h-253q0 133 96 223.5t249 90.5q173 0 266.5 -73t93.5 -210q0 -85 -48 -155t-211 -189
l-91 -76h371v-197z" />
    <glyph glyph-name="threequarters" unicode="&#xbe;" horiz-adv-x="1897" 
d="M723 131l-176 89l798 1278l177 -89zM1669 376h89v-200h-89v-176h-253v176h-374l-17 163l391 547h253v-510zM1261 376h155v215l-18 -26zM360 1281h99q114 0 114 92q0 36 -29 57t-79 21q-39 0 -69.5 -14.5t-30.5 -42.5h-252q0 114 95.5 184.5t248.5 70.5q173 0 270 -69.5
t97 -185.5q0 -135 -155 -190q173 -46 173 -206q0 -116 -105.5 -188.5t-279.5 -72.5q-163 0 -262.5 77.5t-99.5 205.5h255q0 -33 33.5 -59.5t91.5 -26.5q63 0 88 28.5t25 62.5q0 96 -122 97h-106v159z" />
    <glyph glyph-name="questiondown" unicode="&#xbf;" horiz-adv-x="1171" 
d="M790 708q0 -169 -34.5 -259.5t-115.5 -158.5l-74 -69q-104 -101 -104 -209q0 -79 37.5 -115.5t96.5 -36.5q76 0 118 47.5t44 135.5h381q-5 -226 -143.5 -350.5t-390.5 -124.5q-250 0 -386.5 116t-136.5 328q0 94 42.5 176.5t146.5 178.5l95 88q87 74 97 172l5 81h322z
M639 859q-90 0 -150 53.5t-60 136.5t60 136.5t150 53.5q92 0 151 -54.5t59 -135.5t-59 -135.5t-151 -54.5z" />
    <glyph glyph-name="AE" unicode="&#xc6;" horiz-adv-x="2163" 
d="M2079 0h-1008l-15 369h-429l-171 -369h-438l825 1635h1167v-296h-616l14 -355h511v-297h-498l17 -391h641v-296zM767 673h276l-23 546z" />
    <glyph glyph-name="multiply" unicode="&#xd7;" horiz-adv-x="1216" 
d="M60 428l335 342l-335 344l216 206l329 -336l329 336l217 -206l-337 -344l337 -342l-217 -206l-329 335l-329 -335z" />
    <glyph glyph-name="Oslash" unicode="&#xd8;" horiz-adv-x="1582" 
d="M1521 784q0 -239 -89 -423.5t-252.5 -283.5t-372.5 -99q-181 0 -327 73l-91 -158h-233l158 275q-223 224 -223 625v57q0 242 88 425t251.5 283t374.5 100q177 0 323 -72l68 119h234l-136 -237q227 -225 227 -627v-57zM1120 852q0 150 -33 258l-445 -774q68 -51 165 -51
q151 0 231.5 127t81.5 365v75zM491 784q0 -149 30 -255l443 771q-68 49 -159 49q-156 0 -234.5 -125t-79.5 -365v-75z" />
    <glyph glyph-name="Thorn" unicode="&#xde;" horiz-adv-x="1422" 
d="M511 1635v-290h230q192 -1 333 -65t215 -180.5t74 -270.5q0 -235 -166.5 -375t-455.5 -142h-230v-312h-381v1635h381zM511 1053v-449h222q116 0 183 58.5t67 164.5t-66.5 166t-180.5 60h-225z" />
    <glyph glyph-name="germandbls" unicode="&#xdf;" horiz-adv-x="1494" 
d="M530 0h-380v1234q0 248 150 383.5t428 135.5q220 0 358 -117t138 -310q0 -120 -53.5 -205.5t-53.5 -182.5q0 -35 27.5 -72t122.5 -129q160 -156 160 -324q0 -210 -139.5 -322.5t-395.5 -112.5q-85 0 -169.5 15t-131.5 42l66 284q95 -49 237 -49q67 0 111.5 36.5
t44.5 103.5q0 46 -28 86.5t-118 118t-127.5 148.5t-37.5 155q0 115 53 209.5t53 183.5q0 66 -45 108.5t-114 42.5q-83 0 -119.5 -58.5t-36.5 -174.5v-1229z" />
    <glyph glyph-name="ae" unicode="&#xe6;" horiz-adv-x="1943" 
d="M1390 -22q-269 0 -426 150q-75 -74 -185 -112t-235 -38q-224 0 -349.5 102.5t-125.5 283.5q0 177 145 273.5t432 98.5h159v51q0 74 -38 116.5t-111 42.5q-81 0 -123.5 -33.5t-42.5 -81.5l-379 21q0 170 150.5 278t398.5 108q227 0 359 -103q141 105 359 103
q238 0 376 -149.5t138 -404.5v-195h-717q15 -111 83.5 -165t183.5 -54q141 0 250 44l70 31l91 -232q-75 -58 -203.5 -96.5t-259.5 -38.5zM615 238q100 0 190 71v197h-156q-87 -1 -144.5 -41t-57.5 -106q0 -121 168 -121zM1378 946q-92 0 -141 -54.5t-61 -166.5h347v30
q0 91 -37 141t-108 50z" />
    <glyph glyph-name="divide" unicode="&#xf7;" horiz-adv-x="1309" 
d="M1239 632h-1173v274h1173v-274zM442 1220q0 79 57.5 131.5t152 52.5t151.5 -52.5t57 -132t-57 -132t-151.5 -52.5t-152 52.5t-57.5 132.5zM442 311q0 80 57.5 132t152 52t151.5 -52t57 -132t-57 -132t-151.5 -52t-152 52t-57.5 132z" />
    <glyph glyph-name="oslash" unicode="&#xf8;" horiz-adv-x="1308" 
d="M968 1469q293 -291 293 -739v-64q0 -199 -79 -358t-218.5 -244.5t-311.5 -85.5q-166 0 -299.5 71t-207 197.5t-73.5 279.5q0 261 134.5 407t375.5 146q142 0 256 -69q-55 156 -175 270l-200 -123l-88 132l153 95q-121 74 -274 115l121 274q265 -54 466 -197l183 113
l87 -132zM657 270q106 0 165.5 92.5t59.5 263.5v108q-75 75 -218 75q-110 0 -161.5 -76t-51.5 -207q0 -115 56.5 -185.5t149.5 -70.5z" />
    <glyph glyph-name="uni02BC" unicode="&#x2bc;" horiz-adv-x="558" 
d="M240 1123l-166 90q93 162 96 317v195h276v-183q0 -104 -60 -222.5t-146 -196.5z" />
    <glyph glyph-name="circumflex" unicode="&#x2c6;" horiz-adv-x="1160" 
d="M1057 1409v-14h-299l-179 153l-178 -153h-292v19l363 311h216z" />
    <glyph glyph-name="caron" unicode="&#x2c7;" horiz-adv-x="1106" 
d="M553 1576l165 150h322v-12l-366 -318h-244l-368 320v10h325z" />
    <glyph glyph-name="uni02C9" unicode="&#x2c9;" horiz-adv-x="1197" 
d="M1005 1443h-824v194h824v-194z" />
    <glyph glyph-name="breve" unicode="&#x2d8;" horiz-adv-x="1041" 
d="M937 1727q0 -154 -113.5 -249.5t-302.5 -95.5t-302 95.5t-113 249.5h257q0 -67 42 -104.5t116 -37.5t115 36.5t41 105.5h260z" />
    <glyph glyph-name="dotaccent" unicode="&#x2d9;" horiz-adv-x="632" 
d="M120 1548q0 73 53 119t134 46q79 0 132 -46t53 -119q0 -72 -53 -118t-132 -46q-81 0 -134 46t-53 118z" />
    <glyph glyph-name="ring" unicode="&#x2da;" horiz-adv-x="757" 
d="M133 1453q0 97 73.5 162.5t178.5 65.5t178.5 -65.5t73.5 -162.5q0 -95 -72.5 -159t-179.5 -64q-108 0 -180 64t-72 159zM385 1336q54 0 85 34t31 83.5t-31 84t-85 34.5q-55 0 -86 -34.5t-31 -84t31 -83.5t86 -34z" />
    <glyph glyph-name="ogonek" unicode="&#x2db;" horiz-adv-x="724" 
d="M463 0q-88 -44 -125.5 -84t-37.5 -97q0 -69 67 -69q34 0 78 20l42 -189q-82 -49 -186 -49q-124 0 -198.5 65t-74.5 175q0 194 226 295z" />
    <glyph glyph-name="tilde" unicode="&#x2dc;" horiz-adv-x="1108" 
d="M994 1721q0 -129 -74.5 -218t-185.5 -89q-74 0 -165 47t-147 47q-36 0 -61 -24.5t-25 -76.5l-210 11q0 125 74.5 216t183.5 91q56 0 147 -41t115 -46.5t51 -5.5q36 0 62 24.5t26 76.5z" />
    <glyph glyph-name="hungarumlaut" unicode="&#x2dd;" horiz-adv-x="992" 
d="M734 1724h313l-299 -337h-266zM267 1724h315l-268 -337h-269z" />
    <glyph glyph-name="uni02F3" unicode="&#x2f3;" horiz-adv-x="750" 
d="M173 -253q0 83 64 139t154 56t152 -56t62 -139t-60.5 -137t-153.5 -54q-92 0 -155 54.5t-63 136.5zM313 -253q0 -34 22 -56t56 -22q32 0 52.5 22t20.5 56q0 36 -20.5 58.5t-52.5 22.5q-34 0 -56 -22.5t-22 -58.5z" />
    <glyph glyph-name="gravecomb" unicode="&#x300;" 
d="M-399 1372h-306l-317 353h400z" />
    <glyph glyph-name="acutecomb" unicode="&#x301;" 
d="M-554 1725h400l-312 -353h-309z" />
    <glyph glyph-name="tildecomb" unicode="&#x303;" 
d="M-193 1721q0 -129 -75 -218t-185 -89q-74 0 -165 47t-147 47q-36 0 -61 -24.5t-25 -76.5l-210 11q0 125 74.5 216t183.5 91q56 0 147 -41t115 -46.5t51 -5.5q36 0 62 24.5t26 76.5z" />
    <glyph glyph-name="hookabovecomb" unicode="&#x309;" 
d="M-842 1433l-25 142q154 6 154 70q0 74 -152 74l8 163q234 0 353 -58.5t119 -162.5q0 -63 -45 -105t-124 -53v-70h-288z" />
    <glyph glyph-name="uni030F" unicode="&#x30f;" 
d="M-577 1406h-305l-319 299h349zM-150 1406h-308l-275 299h350z" />
    <glyph glyph-name="dotbelowcomb" unicode="&#x323;" 
d="M-880 -258q0 73 60 120t149.5 47t150 -47t60.5 -120t-60.5 -120.5t-150 -47.5t-149.5 47.5t-60 120.5z" />
    <glyph glyph-name="uni060C" unicode="&#x60c;" horiz-adv-x="630" 
d="M565 149q0 -61 -51 -121q-65 -72 -165 -72q-114 0 -180 87q-57 75 -57 185q0 256 284 459q10 -7 32 -24t47 -37t48.5 -38.5t36.5 -28.5q-81 -60 -133 -115t-72 -100q44 6 80.5 -7t63.5 -40t44 -65t22 -81v-2z" />
    <glyph glyph-name="uni0615" unicode="&#x615;" 
d="M-81 1198q-87 0 -169.5 15.5t-178.5 53.5l43 107q35 -14 62 -23t51 -15q12 15 25 33.5t32 54.5q4 16 4.5 43t-1.5 58.5t-4.5 65t-4.5 62.5q-2 22 -4.5 45t-5.5 49t-6.5 56.5t-8.5 68.5l116 32q8 -93 19 -184t12 -188q91 79 180 94q33 5 70 -3t68.5 -27.5t53.5 -49.5
t25 -69q4 -53 -14 -94t-49.5 -72t-73 -52.5t-84.5 -35t-84.5 -19.5t-72.5 -6zM-164 1315q11 -1 20.5 -1h17.5h29q26 0 62 3t74 11.5t74.5 23.5t63.5 39q14 14 22.5 31.5t8.5 31.5q0 28 -29.5 45.5t-80.5 12.5q-29 -3 -63.5 -20.5t-69.5 -44.5t-68.5 -61.5t-60.5 -70.5z" />
    <glyph glyph-name="uni061B" unicode="&#x61b;" horiz-adv-x="512" 
d="M435 125q0 -34 -14 -64.5t-37 -53.5t-54 -36.5t-65 -13.5q-35 0 -66 13t-54 35.5t-36.5 53.5t-13.5 66t13.5 66t36.5 54t54 36.5t66 13.5q34 0 65 -14t54.5 -37t37 -54t13.5 -65zM469 608q0 -39 -16 -74t-43 -61.5t-63 -42t-75 -15.5q-112 0 -179 87q-27 36 -43.5 83.5
t-16.5 101.5q0 260 232 408l149 -142q-69 -43 -105 -79t-47 -78q45 6 81.5 -5t63.5 -36t43 -62.5t19 -84.5z" />
    <glyph glyph-name="uni061F" unicode="&#x61f;" horiz-adv-x="1136" 
d="M613 -154l-222 222l222 222l222 -222zM439 403q0 63 -1 105t-2.5 69t-4.5 42t-6 23q-16 33 -102 103q-87 80 -142.5 142.5t-84.5 110.5q-56 94 -56 203q0 99 40 184t112 157q153 141 392 141q242 0 372 -139q130 -137 123 -402l-289 -44q-9 64 -22.5 115.5t-38 87.5
t-62.5 55.5t-95 19.5q-37 0 -74 -10t-67 -30.5t-49 -52.5t-20 -77q-1 -18 9 -40t29 -47t46 -51t59 -52q78 -63 138 -121t83 -103q37 -79 37 -188v-201h-324z" />
    <glyph glyph-name="uni0640" unicode="&#x640;" horiz-adv-x="907" 
d="M927 296v-396h-947v396h947z" />
    <glyph glyph-name="uni064B" unicode="&#x64b;" 
d="M280 1830l-566 -199v144l566 191v-136zM280 2089l-566 -199v144l566 191v-136z" />
    <glyph glyph-name="uni064C" unicode="&#x64c;" 
d="M-223 1658q5 7 15 23t20.5 34.5t18.5 37.5t8 33q0 12 -1 22t-6 17q-2 5 -10 11t-17 7q-11 0 -29.5 -8t-38 -18.5t-36 -21.5t-21.5 -16l-75 91q5 4 21 18.5t41 30t56.5 27.5t67.5 11q40 -2 73.5 -24t52.5 -55q19 -40 22 -81t-6 -83q22 7 50 16.5t56.5 20.5t55.5 22.5
t46 22.5l-7 4q-114 58 -155.5 126.5t-3.5 143.5q14 28 35.5 52.5t48 42.5t56 28t59.5 10q62 0 106.5 -38.5t61.5 -98.5q13 -48 10.5 -103t-16.5 -100l32 -17l-38 -118l-59 17q-31 -29 -72 -53t-86 -44t-89.5 -35t-82 -25.5t-64 -16.5t-34.5 -7zM167 2078q-19 0 -47.5 -14.5
t-47.5 -40.5q-9 -12 10 -35.5t59 -43.5l72 -35q5 20 8 43.5t0.5 46.5t-12.5 43.5t-31 33.5l-8 1q-1 1 -3 1z" />
    <glyph glyph-name="uni064D" unicode="&#x64d;" 
d="M280 -717l-566 -199v144l566 191v-136zM280 -458l-566 -199v144l566 191v-136z" />
    <glyph glyph-name="uni064E" unicode="&#x64e;" 
d="M278 1841l-566 -199v144l566 191v-136z" />
    <glyph glyph-name="uni064F" unicode="&#x64f;" 
d="M-310 1667q24 7 64 18t85 26t90.5 34t81.5 42l-62 27q-35 18 -63.5 45.5t-45.5 60.5t-19.5 69.5t15.5 72.5q18 34 49 63.5t69 47.5t79.5 21t79.5 -15q29 -14 50.5 -36t36 -49.5t21.5 -58.5t7 -62t-5.5 -61.5t-12.5 -55.5l34 -8l-40 -128l-57 16q-44 -36 -102 -67.5
t-114.5 -56t-103.5 -41.5t-69 -24l-30 -8zM31 2069q-12 0 -25.5 -5t-27 -13.5t-25.5 -20.5t-20 -26q-1 -12 15 -28t40.5 -32.5t52.5 -30.5t51 -22q4 14 4 40.5t-5.5 53.5t-17 50t-30.5 31q-6 3 -12 3z" />
    <glyph glyph-name="uni0650" unicode="&#x650;" 
d="M281 -475l-566 -199v144l566 191v-136z" />
    <glyph glyph-name="uni0651" unicode="&#x651;" 
d="M-139 1748q-41 1 -74.5 15t-57.5 37.5t-37.5 56t-13.5 70.5q0 25 5.5 52t13 50t15.5 40.5t13 24.5l102 -54q-11 -22 -21.5 -51t-12 -55.5t11.5 -45t49 -18.5q29 0 45.5 16t24.5 39.5t10 50t2 47.5l109 47q-7 -57 2 -94.5t26.5 -58.5t40 -27t42.5 0t33.5 22t13.5 40
q0 21 -10 46t-25 49.5t-32.5 47.5t-32.5 41l105 73q7 -10 23.5 -36t33.5 -61t30 -75t13 -77t-15 -72t-40.5 -62.5t-59 -44.5t-70.5 -17q-25 0 -57 9t-61 39q-52 -64 -136 -64h-8z" />
    <glyph glyph-name="uni0652" unicode="&#x652;" 
d="M1 1848q21 0 40 10.5t33.5 27t22.5 36.5t8 39t-8 38.5t-22.5 36t-33.5 27t-40 10.5t-40 -10.5t-33 -27t-22.5 -36t-8.5 -38.5t8.5 -39t22.5 -36.5t33 -27t40 -10.5zM1 2180q50 0 90.5 -19.5t69 -50.5t44 -70t15.5 -79t-16 -79t-44.5 -70.5t-69 -51t-89.5 -19.5
q-50 0 -90.5 19.5t-69 50.5t-44 70.5t-15.5 79.5t16 79.5t44.5 70.5t69 50t89.5 19z" />
    <glyph glyph-name="uni0653" unicode="&#x653;" 
d="M-400 1552q15 58 45.5 104.5t70 78.5t86.5 49.5t96 17.5q36 0 68 -9.5t62 -21t59.5 -21t61.5 -9.5q17 0 32.5 3t31.5 12.5t33 26t38 43.5l166 -106q-2 -5 -25.5 -35t-64 -64.5t-94.5 -62.5t-116 -29q-39 -1 -70.5 8.5t-59.5 21t-55 21.5t-58 10q-34 0 -66 -25t-48 -84z
" />
    <glyph glyph-name="uni0654" unicode="&#x654;" 
d="M121 1912q-26 4 -46.5 8.5t-39 6.5t-36 0.5t-36.5 -8.5q-20 -8 -36 -21t-26.5 -31t-12.5 -39.5t7 -46.5q6 -18 21 -30t33.5 -18t37.5 -7.5t33 1.5t23.5 5.5t26.5 10.5t48 24t89 46l76 -102l-257 -150l-240 -133l-62 113l166 93q-34 20 -60.5 50t-41.5 65q-17 42 -14.5 85
t20.5 82t49 70.5t72 49.5q25 11 51 15.5t53 4.5q13 0 25.5 -1t28 -3.5t36 -7t49.5 -11.5z" />
    <glyph glyph-name="uni0655" unicode="&#x655;" 
d="M130 -249q-26 4 -46.5 8.5t-39 6.5t-36 0.5t-36.5 -8.5q-20 -8 -36 -21t-26.5 -31t-12.5 -39.5t7 -46.5q6 -18 21 -30t33.5 -18t37.5 -7.5t33 1.5t23.5 5.5t26.5 10.5t48 24t89 46l76 -102l-257 -150l-240 -133l-62 113l166 93q-34 20 -60.5 50t-41.5 65q-17 42 -14.5 85
t20.5 82t49 70.5t72 49.5q25 11 51 15.5t53 4.5q13 0 25.5 -1t28 -3.5t36 -7t49.5 -11.5z" />
    <glyph glyph-name="uni0656" unicode="&#x656;" 
d="M-80 -876q13 58 19 107.5t6 89.5q0 42 -6 102.5t-19 118.5l131 47q6 -27 11 -59t8 -65t5 -65.5t2 -61.5q0 -54 -5.5 -117.5t-19.5 -144.5z" />
    <glyph glyph-name="uni0660" unicode="&#x660;" horiz-adv-x="1500" 
d="M654 543q0 -27 10 -50.5t27.5 -41t41 -27.5t50.5 -10t51 10t41.5 27.5t28 41t10.5 50.5t-10.5 51t-28 41.5t-41.5 28t-51 10.5t-50.5 -10.5t-41 -28t-27.5 -41.5t-10 -51zM359 542q0 86 34 162.5t92.5 133.5t136.5 90.5t168 33.5q88 0 167 -33.5t138 -90.5t93.5 -133.5
t34.5 -162.5t-34.5 -162t-93.5 -132.5t-138 -89.5t-167 -33q-90 0 -168 33t-136.5 89.5t-92.5 132.5t-34 162z" />
    <glyph glyph-name="uni0661" unicode="&#x661;" horiz-adv-x="1500" 
d="M611 -98q0 136 -1.5 275t-8.5 276t-20 269t-36 254.5t-57 231.5t-83 201l321 200q61 -96 101 -194t66.5 -198.5t43 -203.5t30.5 -209q10 -80 16 -173.5t9.5 -190t4.5 -191.5t1 -178v-169h-387z" />
    <glyph glyph-name="uni0662" unicode="&#x662;" horiz-adv-x="1500" 
d="M1282 1545q7 -45 11 -81t6.5 -66t3 -57t0.5 -54q0 -133 -33.5 -236.5t-97.5 -175t-157 -109t-213 -37.5q-13 0 -18.5 -0.5t-9 -1t-8 0t-16.5 2.5q10 -100 18 -209.5t14 -220t9 -217.5t3 -203h-387q0 174 -2.5 350t-14 338.5t-35 305.5t-65.5 252q-16 42 -25.5 66
t-18.5 44t-21.5 42t-33.5 60l324 205q25 -39 40.5 -65.5t28.5 -53t27 -59t35 -83.5v2q16 -37 33 -73.5t37.5 -66t46 -47t57.5 -16.5q37 1 61.5 25t39 59.5t20.5 76t6 73.5v35.5t-1.5 33t-4.5 39.5t-8 54z" />
    <glyph glyph-name="uni0663" unicode="&#x663;" horiz-adv-x="1500" 
d="M1423 1565q14 -77 21.5 -129t11 -90.5t4 -68t0.5 -60.5q0 -56 -8 -111.5t-25 -107t-45 -95.5t-67.5 -77t-92.5 -51.5t-120 -18.5q-25 0 -55 5t-61.5 17.5t-62 33.5t-56.5 53q-15 -33 -45 -58t-68.5 -41t-82.5 -23.5t-87 -4.5q9 -93 15 -202.5t9 -222.5t4.5 -224t1.5 -208
h-392q1 20 2.5 58.5t2.5 81.5t1.5 81.5t0.5 58.5q0 130 -3.5 278t-23.5 301t-62 304t-119 287l319 184q22 -34 36 -59.5t27 -53t27.5 -62t37.5 -85.5q37 -88 69.5 -129t76.5 -41q19 0 30.5 17t18 45.5t8.5 65.5t1.5 77t-2.5 79.5t-3 73.5l303 38q3 -35 7.5 -77.5t11 -85.5
t15 -83t20 -70t26.5 -46.5t35 -12.5q26 5 37.5 45.5t12.5 99t-7 125.5t-21 125z" />
    <glyph glyph-name="uni0664" unicode="&#x664;" horiz-adv-x="1500" 
d="M947 596q-59 0 -115.5 8t-110.5 27q19 -197 24 -380t5 -361h-387q0 201 -8 398.5t-33.5 381.5t-73.5 349t-128 301l330 204q20 -34 33 -56t21 -40t14 -35t13 -39q40 45 90 82.5t105.5 64.5t114 42t117.5 15q86 0 177.5 -29.5t189.5 -110.5l-180 -271q-19 9 -45 16.5
t-56.5 12.5t-64.5 8t-69 3t-77.5 -14t-78 -34.5t-58.5 -44.5t-19 -43q4 -22 34.5 -38.5t72 -28t85 -17t74.5 -5.5q30 0 67 5.5t78 16.5t83 27t81 38l158 -298q-65 -44 -126 -73.5t-119 -47.5t-112.5 -26t-105.5 -8z" />
    <glyph glyph-name="uni0665" unicode="&#x665;" horiz-adv-x="1500" 
d="M998 -131q-35 0 -70 8t-68 21.5t-62.5 31.5t-53.5 39q-51 -42 -108.5 -70.5t-126.5 -28.5q-68 0 -125 22t-103.5 60t-82 89t-59.5 109t-36 120t-12 122q0 123 29 239.5t77.5 230.5t113 227t135.5 229l-3 3q-3 3 -10 11t-15 16q-9 10 -19 21l268 269l115 -112
q76 -74 154.5 -152.5t152.5 -163t138.5 -175.5t113 -190t76.5 -206t28 -224q0 -67 -11.5 -132.5t-34.5 -125t-59 -111t-85.5 -90t-112.5 -61.5t-141 -26h-3zM921 536q0 -26 0.5 -60t2 -69t6 -69t12.5 -60.5t20.5 -42.5t30.5 -16q31 0 55.5 20t41.5 49.5t26.5 62t9.5 58.5
q0 57 -18 113t-49 111.5t-73 109.5t-89 107t-97.5 104.5t-99.5 101.5q-52 -74 -105 -155.5t-96 -167.5t-70 -176.5t-27 -181.5q0 -24 11 -51t27 -49.5t34.5 -37.5t34.5 -15q38 0 62 24t38.5 63.5t21.5 89.5t11 102z" />
    <glyph glyph-name="uni0666" unicode="&#x666;" horiz-adv-x="1500" 
d="M199 -23q6 36 26.5 91t51 119t68.5 132.5t80 132t85 116.5t84 86q-56 22 -107.5 59.5t-90.5 86.5t-62.5 108.5t-23.5 125.5q0 74 22.5 141.5t62 124.5t93.5 103t118 78t134.5 49.5t142.5 17.5q88 0 168.5 -30t168.5 -84l-141 -266q-36 20 -83 28.5t-97 6t-98.5 -14.5
t-87 -33t-62 -50.5t-23.5 -66.5q0 -32 25.5 -51.5t69 -28t101 -8t121 9.5t130 25t128.5 37l130 -298q-135 -51 -239.5 -119.5t-184 -146t-136.5 -159.5t-98.5 -160.5t-70 -149t-49.5 -123.5z" />
    <glyph glyph-name="uni0667" unicode="&#x667;" horiz-adv-x="1500" 
d="M588 -123q-5 169 -26 316.5t-54 278.5t-77 247.5t-95.5 223.5t-110 207.5t-120.5 198.5l325 204q64 -110 119.5 -236.5t100.5 -254.5t79 -251.5t55 -226.5q19 85 42 176.5t49 183t53.5 180t55 168.5t55 148t52.5 119l323 -206q-57 -99 -112 -216.5t-105 -245t-93 -261
t-74.5 -264.5t-49.5 -255.5t-19 -233.5h-373z" />
    <glyph glyph-name="uni0668" unicode="&#x668;" horiz-adv-x="1500" 
d="M959 1528q1 -110 19 -234t49.5 -255t74.5 -264.5t93 -261t105 -245t112 -216.5l-323 -206q-25 50 -52.5 118.5t-55 148.5t-55 168.5t-53.5 180t-49 183t-42 176.5q-21 -104 -55 -228t-79 -253.5t-100.5 -256.5t-119.5 -237l-325 210q62 98 120.5 198.5t110 207.5
t95.5 223.5t77 247.5t53.5 278.5t26.5 316.5h373z" />
    <glyph glyph-name="uni0669" unicode="&#x669;" horiz-adv-x="1500" 
d="M1125 800q3 -100 21.5 -207.5t48 -208t66.5 -185t78 -138.5l-319 -227q-47 50 -80.5 110.5t-57 127.5t-38 137.5t-23 140.5t-13.5 138t-8 129q-15 -1 -33 -1.5t-36.5 -1t-36 -0.5h-29.5q-93 0 -171 23t-136 75.5t-92.5 137.5t-41.5 208q0 62 14 125.5t40 122t63.5 109.5
t84.5 88.5t102.5 58t117.5 18.5q93 -5 163.5 -43.5t122.5 -99t87 -139t57.5 -163t33.5 -171t15 -163.5v-1zM654 996q29 0 62 1.5t61 5.5q-7 30 -20 66.5t-32 69t-44 54.5t-57 22q-23 0 -43.5 -17.5t-36 -42.5t-24.5 -53t-9 -50q0 -12 14.5 -22.5t36 -18t46.5 -11.5t46 -4z
" />
    <glyph glyph-name="uni066A" unicode="&#x66a;" horiz-adv-x="1217" 
d="M715 209l244 243l245 -245l-244 -243zM-8 1329l244 243l245 -245l-244 -243zM1086 1629l-641 -1690h-348l637 1690h352z" />
    <glyph glyph-name="uni066B" unicode="&#x66b;" horiz-adv-x="689" 
d="M687 978l-517 -1164h-233l518 1164h232z" />
    <glyph glyph-name="uni066C" unicode="&#x66c;" horiz-adv-x="511" 
d="M51 156q0 38 17 71t44.5 57t63 38.5t73.5 15.5q54 1 95.5 -19t70 -55t44 -81.5t16.5 -97.5q2 -152 -89.5 -274t-287.5 -221l-72 174q115 51 177 108.5t73 117.5q-14 -3 -27 -4t-27 -2q-85 -1 -128 41.5t-43 130.5z" />
    <glyph glyph-name="uni066D" unicode="&#x66d;" horiz-adv-x="1126" 
d="M163 715l227 307l-110 9l-238 18l39 269l381 -108q-2 23 -5.5 46t-5.5 46l-31 289h283l-42 -382l387 109l36 -269l-352 -27l112 -148l119 -159l-245 -132l-159 323l-144 -324z" />
    <glyph glyph-name="uni066E" unicode="&#x66e;" horiz-adv-x="2013" 
d="M996 -100q-93 0 -201 7.5t-215.5 30t-208.5 63t-179.5 106t-128.5 159.5t-56 223q0 59 13.5 117t36 115t52 114t61.5 114l297 -252q-17 -27 -35 -59.5t-32.5 -65.5t-23.5 -62.5t-9 -50.5q0 -44 53.5 -75t141.5 -50t201 -27.5t233 -8.5q65 0 150 6t176.5 19.5t182 35
t167.5 51.5q-23 42 -43 80t-42.5 79t-51 88.5t-68.5 108.5l310 202q22 -37 47.5 -83t51 -98t49.5 -107t41.5 -109t27.5 -105t8 -95q-4 -68 -36.5 -124.5t-85.5 -102.5t-122.5 -82t-148 -63t-162 -46t-164 -30.5t-154.5 -17t-133 -5.5z" />
    <glyph glyph-name="uni066F" unicode="&#x66f;" horiz-adv-x="1640" 
d="M1088 570q-29 0 -54 -19t-43.5 -47.5t-29 -61t-10.5 -60.5q0 -19 17.5 -33t46.5 -23.5t66 -15.5t75.5 -9t75 -4t65.5 -1q-5 46 -22.5 95t-45 88.5t-63.5 65t-78 25.5zM817 -360q72 0 137.5 20.5t121.5 55.5t100.5 82.5t73.5 101.5q-154 4 -265.5 29t-185 77.5
t-110.5 136.5t-41 206q0 58 12 125t36.5 133t60.5 127t84 107.5t107.5 74t130.5 27.5q96 0 174 -36.5t138.5 -98.5t104 -143t72 -170t42 -180t13.5 -173q0 -130 -27.5 -247t-79 -217t-124 -180.5t-162.5 -137.5t-195.5 -87.5t-221.5 -30.5q-107 0 -207.5 24.5t-189 70.5
t-162.5 112t-127 150t-82.5 184t-29.5 213q0 73 7.5 142.5t24 139.5t43.5 143.5t66 154.5l323 -136q-39 -75 -62 -137t-35 -116t-15.5 -100.5t-3.5 -89.5q0 -80 38.5 -146t102 -113.5t145.5 -73t168 -24.5z" />
    <glyph glyph-name="uni0670" unicode="&#x670;" 
d="M-85 1693q13 58 19 107.5t6 89.5q0 42 -6 102.5t-19 118.5l131 47q6 -27 11 -59t8 -65t5 -65.5t2 -61.5q0 -54 -5.5 -117.5t-19.5 -144.5z" />
    <glyph glyph-name="uni06C2" unicode="&#x6c2;" horiz-adv-x="1023" 
d="M514 -100q-58 0 -117 14t-113 40.5t-101 65t-81.5 88t-54.5 109.5t-20 130q0 72 19.5 135.5t52 120.5t74.5 109t87 100l-58 50l236 310q64 -48 144 -120t178 -176q67 -77 113.5 -146.5t75.5 -134t41.5 -126t12.5 -122.5q0 -110 -41.5 -193.5t-109.5 -140t-156.5 -85
t-181.5 -28.5zM690 330q5 9 -1.5 28t-21 45t-35.5 56.5t-45.5 60.5t-51 57.5t-50.5 48.5q-24 -27 -52.5 -63.5t-52 -74.5t-36.5 -74t-4 -64q8 -26 28.5 -40.5t46 -21.5t52 -9t46.5 -2q24 0 52 3.5t53 10t44.5 16.5t27.5 23zM534 1629q-26 4 -46.5 8.5t-39 6.5t-36 0.5
t-36.5 -8.5q-20 -8 -36 -21t-26.5 -31t-12.5 -39.5t7 -46.5q6 -18 21 -30t33.5 -18t37.5 -7.5t33 1.5t23.5 5.5t26.5 10.5t48 24t89 46l76 -102l-257 -150l-240 -133l-62 113l166 93q-34 20 -60.5 50t-41.5 65q-17 42 -14.5 85t20.5 82t49 70.5t72 49.5q25 11 51 15.5
t53 4.5q13 0 25.5 -1t28 -3.5t36 -7t49.5 -11.5z" />
    <glyph glyph-name="uni06C3" unicode="&#x6c3;" horiz-adv-x="1028" 
d="M514 -100q-58 0 -117 14t-113 40.5t-101 65t-81.5 88t-54.5 109.5t-20 130q0 72 19.5 135.5t52 120.5t74.5 109t87 100l-58 50l236 310q64 -48 144 -120t178 -176q67 -77 113.5 -146.5t75.5 -134t41.5 -126t12.5 -122.5q0 -110 -41.5 -193.5t-109.5 -140t-156.5 -85
t-181.5 -28.5zM690 330q5 9 -1.5 28t-21 45t-35.5 56.5t-45.5 60.5t-51 57.5t-50.5 48.5q-24 -27 -52.5 -63.5t-52 -74.5t-36.5 -74t-4 -64q8 -26 28.5 -40.5t46 -21.5t52 -9t46.5 -2q24 0 52 3.5t53 10t44.5 16.5t27.5 23zM468 1345l-188 -188l-194 193l192 193l190 -190
l188 188l194 -193l-192 -193z" />
    <glyph glyph-name="uni06D5" unicode="&#x6d5;" horiz-adv-x="1018" 
d="M514 -100q-58 0 -117 14t-113 40.5t-101 65t-81.5 88t-54.5 109.5t-20 130q0 72 19.5 135.5t52 120.5t74.5 109t87 100l-58 50l236 310q64 -48 144 -120t178 -176q67 -77 113.5 -146.5t75.5 -134t41.5 -126t12.5 -122.5q0 -110 -41.5 -193.5t-109.5 -140t-156.5 -85
t-181.5 -28.5zM690 330q5 9 -1.5 28t-21 45t-35.5 56.5t-45.5 60.5t-51 57.5t-50.5 48.5q-24 -27 -52.5 -63.5t-52 -74.5t-36.5 -74t-4 -64q8 -26 28.5 -40.5t46 -21.5t52 -9t46.5 -2q24 0 52 3.5t53 10t44.5 16.5t27.5 23z" />
    <glyph glyph-name="uni06F0" unicode="&#x6f0;" horiz-adv-x="1500" 
d="M654 543q0 -27 10 -50.5t27.5 -41t41 -27.5t50.5 -10t51 10t41.5 27.5t28 41t10.5 50.5t-10.5 51t-28 41.5t-41.5 28t-51 10.5t-50.5 -10.5t-41 -28t-27.5 -41.5t-10 -51zM359 542q0 86 34 162.5t92.5 133.5t136.5 90.5t168 33.5q88 0 167 -33.5t138 -90.5t93.5 -133.5
t34.5 -162.5t-34.5 -162t-93.5 -132.5t-138 -89.5t-167 -33q-90 0 -168 33t-136.5 89.5t-92.5 132.5t-34 162z" />
    <glyph glyph-name="uni06F1" unicode="&#x6f1;" horiz-adv-x="1500" 
d="M611 -98q0 136 -1.5 275t-8.5 276t-20 269t-36 254.5t-57 231.5t-83 201l321 200q61 -96 101 -194t66.5 -198.5t43 -203.5t30.5 -209q10 -80 16 -173.5t9.5 -190t4.5 -191.5t1 -178v-169h-387z" />
    <glyph glyph-name="uni06F2" unicode="&#x6f2;" horiz-adv-x="1500" 
d="M1282 1545q7 -45 11 -81t6.5 -66t3 -57t0.5 -54q0 -133 -33.5 -236.5t-97.5 -175t-157 -109t-213 -37.5q-13 0 -18.5 -0.5t-9 -1t-8 0t-16.5 2.5q10 -100 18 -209.5t14 -220t9 -217.5t3 -203h-387q0 174 -2.5 350t-14 338.5t-35 305.5t-65.5 252q-16 42 -25.5 66
t-18.5 44t-21.5 42t-33.5 60l324 205q25 -39 40.5 -65.5t28.5 -53t27 -59t35 -83.5v2q16 -37 33 -73.5t37.5 -66t46 -47t57.5 -16.5q37 1 61.5 25t39 59.5t20.5 76t6 73.5v35.5t-1.5 33t-4.5 39.5t-8 54z" />
    <glyph glyph-name="uni06F3" unicode="&#x6f3;" horiz-adv-x="1500" 
d="M1423 1565q14 -77 21.5 -129t11 -90.5t4 -68t0.5 -60.5q0 -56 -8 -111.5t-25 -107t-45 -95.5t-67.5 -77t-92.5 -51.5t-120 -18.5q-25 0 -55 5t-61.5 17.5t-62 33.5t-56.5 53q-15 -33 -45 -58t-68.5 -41t-82.5 -23.5t-87 -4.5q9 -93 15 -202.5t9 -222.5t4.5 -224t1.5 -208
h-392q1 20 2.5 58.5t2.5 81.5t1.5 81.5t0.5 58.5q0 130 -3.5 278t-23.5 301t-62 304t-119 287l319 184q22 -34 36 -59.5t27 -53t27.5 -62t37.5 -85.5q37 -88 69.5 -129t76.5 -41q19 0 30.5 17t18 45.5t8.5 65.5t1.5 77t-2.5 79.5t-3 73.5l303 38q3 -35 7.5 -77.5t11 -85.5
t15 -83t20 -70t26.5 -46.5t35 -12.5q26 5 37.5 45.5t12.5 99t-7 125.5t-21 125z" />
    <glyph glyph-name="uni06F4" unicode="&#x6f4;" horiz-adv-x="1500" 
d="M947 596q-59 0 -115.5 8t-110.5 27q19 -197 24 -380t5 -361h-387q0 201 -8 398.5t-33.5 381.5t-73.5 349t-128 301l330 204q20 -34 33 -56t21 -40t14 -35t13 -39q40 45 90 82.5t105.5 64.5t114 42t117.5 15q86 0 177.5 -29.5t189.5 -110.5l-180 -271q-19 9 -45 16.5
t-56.5 12.5t-64.5 8t-69 3t-77.5 -14t-78 -34.5t-58.5 -44.5t-19 -43q4 -22 34.5 -38.5t72 -28t85 -17t74.5 -5.5q30 0 67 5.5t78 16.5t83 27t81 38l158 -298q-65 -44 -126 -73.5t-119 -47.5t-112.5 -26t-105.5 -8z" />
    <glyph glyph-name="uni06F5" unicode="&#x6f5;" horiz-adv-x="1500" 
d="M998 -131q-35 0 -70 8t-68 21.5t-62.5 31.5t-53.5 39q-51 -42 -108.5 -70.5t-126.5 -28.5q-68 0 -125 22t-103.5 60t-82 89t-59.5 109t-36 120t-12 122q0 123 29 239.5t77.5 230.5t113 227t135.5 229l-3 3q-3 3 -10 11t-15 16q-9 10 -19 21l268 269l115 -112
q76 -74 154.5 -152.5t152.5 -163t138.5 -175.5t113 -190t76.5 -206t28 -224q0 -67 -11.5 -132.5t-34.5 -125t-59 -111t-85.5 -90t-112.5 -61.5t-141 -26h-3zM921 536q0 -26 0.5 -60t2 -69t6 -69t12.5 -60.5t20.5 -42.5t30.5 -16q31 0 55.5 20t41.5 49.5t26.5 62t9.5 58.5
q0 57 -18 113t-49 111.5t-73 109.5t-89 107t-97.5 104.5t-99.5 101.5q-52 -74 -105 -155.5t-96 -167.5t-70 -176.5t-27 -181.5q0 -24 11 -51t27 -49.5t34.5 -37.5t34.5 -15q38 0 62 24t38.5 63.5t21.5 89.5t11 102z" />
    <glyph glyph-name="uni06F6" unicode="&#x6f6;" horiz-adv-x="1500" 
d="M199 -23q6 36 26.5 91t51 119t68.5 132.5t80 132t85 116.5t84 86q-56 22 -107.5 59.5t-90.5 86.5t-62.5 108.5t-23.5 125.5q0 74 22.5 141.5t62 124.5t93.5 103t118 78t134.5 49.5t142.5 17.5q88 0 168.5 -30t168.5 -84l-141 -266q-36 20 -83 28.5t-97 6t-98.5 -14.5
t-87 -33t-62 -50.5t-23.5 -66.5q0 -32 25.5 -51.5t69 -28t101 -8t121 9.5t130 25t128.5 37l130 -298q-135 -51 -239.5 -119.5t-184 -146t-136.5 -159.5t-98.5 -160.5t-70 -149t-49.5 -123.5z" />
    <glyph glyph-name="uni06F7" unicode="&#x6f7;" horiz-adv-x="1500" 
d="M588 -123q-5 169 -26 316.5t-54 278.5t-77 247.5t-95.5 223.5t-110 207.5t-120.5 198.5l325 204q64 -110 119.5 -236.5t100.5 -254.5t79 -251.5t55 -226.5q19 85 42 176.5t49 183t53.5 180t55 168.5t55 148t52.5 119l323 -206q-57 -99 -112 -216.5t-105 -245t-93 -261
t-74.5 -264.5t-49.5 -255.5t-19 -233.5h-373z" />
    <glyph glyph-name="uni06F8" unicode="&#x6f8;" horiz-adv-x="1500" 
d="M959 1528q1 -110 19 -234t49.5 -255t74.5 -264.5t93 -261t105 -245t112 -216.5l-323 -206q-25 50 -52.5 118.5t-55 148.5t-55 168.5t-53.5 180t-49 183t-42 176.5q-21 -104 -55 -228t-79 -253.5t-100.5 -256.5t-119.5 -237l-325 210q62 98 120.5 198.5t110 207.5
t95.5 223.5t77 247.5t53.5 278.5t26.5 316.5h373z" />
    <glyph glyph-name="uni06F9" unicode="&#x6f9;" horiz-adv-x="1500" 
d="M1125 800q3 -100 21.5 -207.5t48 -208t66.5 -185t78 -138.5l-319 -227q-47 50 -80.5 110.5t-57 127.5t-38 137.5t-23 140.5t-13.5 138t-8 129q-15 -1 -33 -1.5t-36.5 -1t-36 -0.5h-29.5q-93 0 -171 23t-136 75.5t-92.5 137.5t-41.5 208q0 62 14 125.5t40 122t63.5 109.5
t84.5 88.5t102.5 58t117.5 18.5q93 -5 163.5 -43.5t122.5 -99t87 -139t57.5 -163t33.5 -171t15 -163.5v-1zM654 996q29 0 62 1.5t61 5.5q-7 30 -20 66.5t-32 69t-44 54.5t-57 22q-23 0 -43.5 -17.5t-36 -42.5t-24.5 -53t-9 -50q0 -12 14.5 -22.5t36 -18t46.5 -11.5t46 -4z
" />
    <glyph glyph-name="uni2000" unicode="&#x2000;" horiz-adv-x="1172" 
 />
    <glyph glyph-name="uni2001" unicode="&#x2001;" horiz-adv-x="2346" 
 />
    <glyph glyph-name="uni2002" unicode="&#x2002;" horiz-adv-x="1172" 
 />
    <glyph glyph-name="uni2003" unicode="&#x2003;" horiz-adv-x="2346" 
 />
    <glyph glyph-name="uni2004" unicode="&#x2004;" horiz-adv-x="783" 
 />
    <glyph glyph-name="uni2005" unicode="&#x2005;" horiz-adv-x="586" 
 />
    <glyph glyph-name="uni2006" unicode="&#x2006;" horiz-adv-x="391" 
 />
    <glyph glyph-name="uni2007" unicode="&#x2007;" horiz-adv-x="1293" 
 />
    <glyph glyph-name="uni2008" unicode="&#x2008;" horiz-adv-x="629" 
 />
    <glyph glyph-name="uni2009" unicode="&#x2009;" horiz-adv-x="469" 
 />
    <glyph glyph-name="uni200A" unicode="&#x200a;" horiz-adv-x="235" 
 />
    <glyph glyph-name="ZWSP" unicode="&#x200b;" 
 />
    <glyph glyph-name="uni200C" unicode="&#x200c;" 
d="M36 1667v-1484h-72v1484h72z" />
    <glyph glyph-name="uni200D" unicode="&#x200d;" 
d="M36 183h-72v1185l-134 -136l-49 49l171 169l-171 168l49 49l170 -171l170 171l49 -49l-171 -168l171 -169l-49 -49l-134 136v-1185z" />
    <glyph glyph-name="uni200E" unicode="&#x200e;" 
d="M430 1452l-217 -214l-49 49l137 130h-266v-1234h-71v1305h337l-137 130l49 49z" />
    <glyph glyph-name="uni200F" unicode="&#x200f;" 
d="M35 183h-71v1234h-266l137 -130l-49 -49l-217 214l217 215l49 -49l-137 -130h337v-1305z" />
    <glyph glyph-name="uni2010" unicode="&#x2010;" horiz-adv-x="1034" 
d="M846 558h-675v293h675v-293z" />
    <glyph glyph-name="uni2011" unicode="&#x2011;" horiz-adv-x="1034" 
d="M846 558h-675v293h675v-293z" />
    <glyph glyph-name="endash" unicode="&#x2013;" horiz-adv-x="1422" 
d="M1350 649h-1185v297h1185v-297z" />
    <glyph glyph-name="emdash" unicode="&#x2014;" horiz-adv-x="1731" 
d="M1676 649h-1579v297h1579v-297z" />
    <glyph glyph-name="horizontalbar" unicode="&#x2015;" horiz-adv-x="1755" 
d="M1672 669h-1550v265h1550v-265z" />
    <glyph glyph-name="underscoredbl" unicode="&#x2017;" horiz-adv-x="1012" 
d="M1014 -579h-1014v281h1014v-281zM1014 -282h-1014v282h1014v-282z" />
    <glyph glyph-name="quoteleft" unicode="&#x2018;" horiz-adv-x="574" 
d="M327 1770l166 -90q-92 -166 -95 -311v-199h-277v186q1 102 60.5 219t145.5 195z" />
    <glyph glyph-name="quoteright" unicode="&#x2019;" horiz-adv-x="558" 
d="M240 1123l-166 90q93 162 96 317v195h276v-183q0 -104 -60 -222.5t-146 -196.5z" />
    <glyph glyph-name="quotesinglbase" unicode="&#x201a;" horiz-adv-x="624" 
d="M259 -348l-166 90q81 140 83 314v224h290l-1 -214q-1 -102 -60.5 -219.5t-145.5 -194.5z" />
    <glyph glyph-name="quotereversed" unicode="&#x201b;" horiz-adv-x="486" 
d="M354 1725v-195q2 -155 95 -317l-166 -90q-85 76 -145.5 195.5t-60.5 221.5v185h277z" />
    <glyph glyph-name="quotedblleft" unicode="&#x201c;" horiz-adv-x="983" 
d="M335 1770l166 -90q-92 -166 -96 -311v-199h-276v186q1 102 60.5 219t145.5 195zM729 1770l166 -90q-92 -166 -95 -311v-199h-277v186q1 102 61 219t145 195z" />
    <glyph glyph-name="quotedblright" unicode="&#x201d;" horiz-adv-x="989" 
d="M256 1123l-166 90q93 162 95 317v195h277v-183q0 -104 -60.5 -222.5t-145.5 -196.5zM663 1123l-167 90q94 162 96 317v195h276v-183q0 -104 -60 -222.5t-145 -196.5z" />
    <glyph glyph-name="quotedblbase" unicode="&#x201e;" horiz-adv-x="984" 
d="M272 -371l-179 90q81 151 83 336v247h290l-1 -232q0 -109 -54 -233t-139 -208zM666 -371l-180 90q92 172 96 334v249h291l-2 -239q-2 -108 -60.5 -229t-144.5 -205z" />
    <glyph glyph-name="dagger" unicode="&#x2020;" horiz-adv-x="1222" 
d="M1167 912h-369v-912h-378v912h-364v303h364v420h378v-420h369v-303z" />
    <glyph glyph-name="daggerdbl" unicode="&#x2021;" horiz-adv-x="1340" 
d="M1226 0h-368v-467h-380v467h-362v292h362v631h-362v292h362v420h380v-420h368v-292h-368v-631h368v-292z" />
    <glyph glyph-name="bullet" unicode="&#x2022;" horiz-adv-x="850" 
d="M150 857q0 120 79 195.5t204 75.5q130 0 207.5 -73t79.5 -192v-48q0 -120 -77.5 -193.5t-206.5 -73.5q-127 0 -205 72.5t-81 189.5v47z" />
    <glyph glyph-name="twodotenleader" unicode="&#x2025;" horiz-adv-x="1257" 
d="M353 367q89 0 149 -53t60 -136.5t-60 -136.5t-149 -53q-91 0 -150 53.5t-59 135.5t59 136t150 54zM902 367q90 0 149.5 -53t59.5 -136.5t-59.5 -136.5t-149.5 -53q-91 0 -150 53.5t-59 135.5t59 136t150 54z" />
    <glyph glyph-name="ellipsis" unicode="&#x2026;" horiz-adv-x="1782" 
d="M353 367q89 0 149 -53t60 -136.5t-60 -136.5t-149 -53q-91 0 -150 53.5t-59 135.5t59 136t150 54zM902 367q90 0 149.5 -53t59.5 -136.5t-59.5 -136.5t-149.5 -53q-91 0 -150 53.5t-59 135.5t59 136t150 54zM1450 367q90 0 149.5 -53t59.5 -136.5t-59.5 -136.5
t-149.5 -53q-91 0 -150 53.5t-59 135.5t59 136t150 54z" />
    <glyph glyph-name="uni2027" unicode="&#x2027;" horiz-adv-x="692" 
d="M509 558h-338v293h338v-293z" />
    <glyph glyph-name="perthousand" unicode="&#x2030;" horiz-adv-x="2215" 
d="M910 401q0 146 101.5 241.5t260.5 95.5q167 0 256 -114q93 114 255 114t263.5 -94.5t101.5 -250.5v-79q0 -147 -101 -241.5t-261 -94.5q-164 0 -258 112q-89 -112 -253 -112q-160 0 -262.5 94.5t-102.5 247.5v81zM113 1320q0 147 94.5 242.5t243.5 95.5q162 0 263 -95.5
t101 -248.5v-80q0 -146 -101 -241t-260 -95q-150 0 -245.5 95t-95.5 249v78zM551 122l-176 89l799 1278l176 -89zM1152 314q0 -52 35.5 -92t87.5 -40q109 0 118 103l1 116q0 59 -32.5 95.5t-89.5 36.5q-55 0 -87.5 -36.5t-32.5 -98.5v-84zM1663 314q0 -52 35.5 -92t87.5 -40
q109 0 118 103l1 116q0 59 -32.5 95.5t-89.5 36.5q-55 0 -87.5 -36.5t-32.5 -98.5v-84zM331 1234q0 -58 32.5 -94.5t90.5 -36.5q54 0 86 36t33 93v88q0 57 -32.5 95t-89.5 38q-120 0 -120 -150v-69z" />
    <glyph glyph-name="minute" unicode="&#x2032;" horiz-adv-x="355" 
d="M318 1543l-37 -464h-233v646h270v-182z" />
    <glyph glyph-name="second" unicode="&#x2033;" horiz-adv-x="729" 
d="M286 1570l-48 -482h-210v638h258v-156zM681 1570l-49 -482h-207v638h256v-156z" />
    <glyph glyph-name="guilsinglleft" unicode="&#x2039;" horiz-adv-x="730" 
d="M398 578l260 -448h-231l-306 438v22l306 438h231z" />
    <glyph glyph-name="guilsinglright" unicode="&#x203a;" horiz-adv-x="696" 
d="M318 1026l305 -438v-21l-305 -438h-233l261 448l-261 449h233z" />
    <glyph glyph-name="exclamdbl" unicode="&#x203c;" horiz-adv-x="1269" 
d="M482 518h-307l-48 1117h403zM116 170q0 83 60 136t150 53t150 -53t60 -136.5t-60 -136.5t-150 -53t-150 53t-60 137zM1116 518h-306l-49 1117h404zM750 170q0 83 60 136t150 53t150 -53t60 -136.5t-60 -136.5t-150 -53t-150 53t-60 137z" />
    <glyph glyph-name="fraction" unicode="&#x2044;" horiz-adv-x="1013" 
d="M193 122l-176 89l798 1278l177 -89z" />
    <glyph glyph-name="partialdiff" unicode="&#x2202;" horiz-adv-x="1318" 
d="M630 1170q174 0 302 -120q-41 198 -131.5 299t-222.5 101q-105 0 -168 -24l-79 -33l-68 252l54 27q134 64 293 64q297 0 469 -226.5t186 -643.5l1 -125q0 -223 -72 -399t-205.5 -271t-311.5 -95q-270 0 -428 162.5t-158 442.5v15q0 260 144.5 417t394.5 157zM679 878
q-205 0 -210 -294v-34q0 -282 208 -282q210 0 210 350v139q-78 121 -208 121z" />
    <glyph glyph-name="Delta" unicode="&#x2206;" horiz-adv-x="1712" 
d="M859 1635l5 -4l4 4h210l641 -1635h-1701l631 1635h210zM545 303h647l-327 882z" />
    <glyph glyph-name="product" unicode="&#x220f;" horiz-adv-x="1581" 
d="M1414 -303h-381v1655h-470v-1655h-381v1938h1232v-1938z" />
    <glyph glyph-name="summation" unicode="&#x2211;" horiz-adv-x="1490" 
d="M1069 656l-487 -667h830v-292h-1356v169l616 811l-616 790v168h1343v-292h-812l482 -646v-41z" />
    <glyph glyph-name="minus" unicode="&#x2212;" horiz-adv-x="1258" 
d="M1139 649h-987v297h987v-297z" />
    <glyph glyph-name="radical" unicode="&#x221a;" horiz-adv-x="1248" 
d="M660 339l298 1296h275l-395 -1635h-334l-181 545h-266v295h471z" />
    <glyph glyph-name="infinity" unicode="&#x221e;" horiz-adv-x="2437" 
d="M2331 597q0 -178 -74 -321t-210 -220.5t-310 -77.5q-161 0 -295 86t-225 247q-96 -165 -227.5 -249t-290.5 -84q-268 0 -430.5 172.5t-162.5 466.5q0 178 74 321t208 221.5t308 78.5q326 0 521 -319q94 156 227.5 237.5t295.5 81.5q267 0 429 -174.5t162 -466.5zM472 597
q0 -144 68.5 -230t182.5 -86q155 0 262 199q41 78 46 125v26q-6 51 -52 129q-103 174 -258 174q-112 0 -180.5 -87t-68.5 -250zM1964 617q0 140 -67.5 228.5t-181.5 88.5q-155 0 -258 -174q-46 -78 -52 -129v-26q6 -57 57.5 -146.5t115.5 -133.5t135 -44q114 0 182.5 86.5
t68.5 249.5z" />
    <glyph glyph-name="integral" unicode="&#x222b;" horiz-adv-x="704" 
d="M523 -28q0 -225 -119.5 -344t-339.5 -119q-97 0 -179 19l17 287q50 -14 100 -14q138 0 143 157v1355q0 209 123.5 323t355.5 114q77 0 189 -24l-27 -280q-54 12 -114 12q-149 0 -149 -150v-1336z" />
    <glyph glyph-name="approxequal" unicode="&#x2248;" horiz-adv-x="1342" 
d="M113 1030q54 56 128.5 87.5t148.5 31.5q63 1 120 -13t162.5 -67t159 -66.5t116.5 -13.5q138 0 251 142v-281q-53 -56 -109 -87.5t-130 -31.5q-63 0 -116 13.5t-159 66.5t-163 67t-120 13q-77 0 -157.5 -39.5t-131.5 -102.5v281zM113 558q115 119 263 119q107 2 215 -46
l146 -71q95 -42 197 -42q152 0 265 141v-281q-114 -119 -251 -119q-63 0 -116.5 13.5t-159 66.5t-162.5 67t-120 13q-74 0 -148.5 -37t-128.5 -105v281z" />
    <glyph glyph-name="notequal" unicode="&#x2260;" horiz-adv-x="1347" 
d="M1184 318h-634l-119 -233l-145 70l83 163h-225v292h376l103 201h-479v292h630l113 220l145 -71l-77 -149h229v-292h-380l-103 -201h483v-292z" />
    <glyph glyph-name="lessequal" unicode="&#x2264;" horiz-adv-x="1174" 
d="M430 856l614 -186v-310l-992 363v269l992 364v-309zM1056 38h-987v297h987v-297z" />
    <glyph glyph-name="greaterequal" unicode="&#x2265;" horiz-adv-x="1180" 
d="M736 859l-611 187v309l987 -364v-269l-987 -363v309zM1114 38h-987v297h987v-297z" />
    </font>
</defs>
</svg>
